<svg xmlns="http://www.w3.org/2000/svg" width="666" height="253" fill="none"><path fill="#A01818" d="M131.536 250.976c.262-.291 1.604.148 2.098-.026-.22 2.735-3.075 1.089-2.098.026m3.5-6.911c-.468 2.032-2.22.652-3.063 1.406-1.243 1.103-2.242 10.375-2.504 1.254a458 458 0 0 1 5.536-2.889l.059-.038a5 5 0 0 1-.028.267M418.009 1.167c-.18-.941 9.054-.837 9.435-.387 1.383 1.959-4.235.917-3.137 3.357.291.847 13.91-1.04 16.964-.026 3.348 1.138 4.769 7.58 4.904.377.841 7.083 1.755 2.28 2.195 2.336 5.215.773 5.239.853 9.622.328.267-.03.515.113.743.33.56.567.979 1.632 1.219 1.382.193-.211-.06-2.519.871-3.191 1.281-.925 8.758 1.767 9.261 3.068.496 1.293-3.216.4-2.64 2.517 2.685.333 5.345-.054 8.053.31 1.142.158.476 1.584.968 1.64.209.027 4.211-1.037 4.079-1.582-.345-1.291-12.509-1.07-9.192-3.46.631-.463 2.657 3.008 2.515-1.096a1044 1044 0 0 1 32.664 4.98c-6.573 2.516-13.431-.732-20.029-.86-.913-.024-3.917-.6-3.675 1.487 5.527.863 12.554.265 17.848 2.034.166.06-.604 1.861.012 2.205 1.158.64 5.331-2.026 5.922-1.197.083.19-2.328 2.446-1.784 4.053 1.38 4.123 2.599-4.651 4.076-4.42 1.171.179 8.543 5.154 10.711 2.662 2.339-2.67-5.556-2.22-4.756-4.503 5.512-1.866 10.616 1.198 15.419 1.418.083.001-.444-1.911.64-2.055 1.9-.248 2.088 2.406 2.906 2.917.504.304 1.758.435 2.775.656.817.177 1.519.417 1.659.858.038.136-.874 2.644-.979 2.706-.469.29-.805.146-1.046-.187-.515-.717-.612-2.318-.696-2.36-.479-.18-1.078 1.052-1.525.926-.734-.209-1.003-1.44-1.994-1.653-.677-.15-.26 2.2-.914 2.026-.245-.08-2.358-5.568-3.179-.279-.133.704 3.854 1.937 8.128 2.99 5.727 1.42 12.821 2.539 14.049 1.883-1.509-.746-3.026-1.494-4.54-2.244 3.279 1.418 7.524-1.852 7.201 4.208 13.094 1.851 25.376 3.455 40.018 5.379 1.293.374 1.657 1.378 2.091 2.3.2.46.514.91.986 1.256.522.353 1.105.58 2.98.771.989-.165 3.935.924 4.933.825.316.04.685.048 1.115.017q-.407-.741-.819-1.481c-1.018.1-4.024-1.011-5.033-.842-1.86-1.116-2.699-2.07-3.662-3.045.709.27 1.39.556 3.919 1.119 1.035-.173 4.117.966 5.16.863 3.564 1.627 8.456 3.611 9.581 3.15.177-.082 1.131-3.633 3.079-3.58 1.724.045 1.478 2.799 2.281 3.486.668.567 1.643.01 1.836.2.146.152-.088 1.82.27 2.183 1.148 1.127.917-3.73 1.254 1.859-.352.149-.696.299-1.049.446 1.424 1.055 3.173 3.863.632 4.662-.44.134.187-1.409-.114-1.459-11.792-1.847-2.973 3.023 1.587 1.23.646 2.571 6.855 2.08 6.988 2.572.174.724-1.154 2.473-.054 4.327.236.409 8.563.239 5.186 2.997-.724.569-4.527-.69-5.482-.746 1.454 5.407 7.757-1.104 8.307-.847 2.275 1.115-5.192 3.765.115 5.09 4.101 1.004.65-2.898 2.43-4.134 1.004-.688 5.232 3.63 5.703-1.227 1.684-.322.428 2.126.607 2.335.175.185 3.529-.89 4.468.245.114.142-.57 2.614-.461 2.835.213.383 3.398.22 3.538.017.093-.141-.406-2.423-.048-2.927.265-.37 1.556-.163 2.535-.127l-1.032-.098c.555.012.987-.03 1.063-.253.122-.362-.363-.537-.975-.758l1.047.1c-.951-.364-2.136-.845-1.604-2.314.505.249 1.143.288 1.825.168l-1.083-.103c1.49-.284 3.058-1.337 3.86-2.622-.368.478-1.824.427-2.359.188.63-3.59 3.83-3.285 2.516-.505.794-1.487.397-2.34.878-3.764.135-.36.99-.373 1.161-.992.041-.122-.698-1.55-.478-2.274.21-.653.93-.86 1.402-.88.244-.008.452.033.675.101.218.068.457.164.518.255.376.515-.234 1.033-.637 1.628s-.803 1.255-.93 2.014c-.042.238 1.083 3.305 1.342 3.583-.252 2.838-1.708.705-1.674 3.27.363.565.636 1.123 1.196 1.693-1.111 1.243-1.923 1.508-3.434 1.754-1.415.252-2.897.532-3.601 1.953 3.964-.538 6.263-.301 5.924 6.332-.158 2.796-1.361 4.368-1.38 5.079.019 2.555 1.761-.117 1.985.025q.093.237.081.458c-.318 1.481-2.6 2.427-2.843 3.086-.3 1.193.504 6.235.434 7.332-.015.225-2.044 1.265-1.52 3.227.576 1.99 2.167 2.125 2.242 2.329.247 1.182-2.723 2.06-2.943 2.724-.065.345 1.466 2.584 1.464 3.195.012.617-1.338 1.873-2.035 3.764-.506 1.407.583 2.594.361 2.804-.129.146-3.413-.134-3.619.1-.277.354.372 2.134.221 2.553-.213.603-1.257-.106-1.167.54.068.489 3.82 6.737 3.679 8.309-.222 2.7-4.313-3.854-.874 7.109.023.072 1.118-.61 1.138-.543.525 2.001-3.074 4.794 1.114 4.534-7.986 2.871-1.261 3.997-2.713 8.461-.59 1.717-3.73 2.194-3.758 2.453.116 2.237 1.235.6 1.486 1.711.134.623-2.813 2.739-2.32 4.307.25.811 3.245.767 3.381.926 1.116 1.529-.493 2.975-.301 4.018.118.7 2.044.886 2.098 1.011.059.267-2.766 2.86-3.354 3.791-.464.72.976 2.009.668 2.315-1.899 1.828-4.97-3.443-2.142 3.816.17.445 1.521.374 1.559.462.692 2.044-1.817 2.028-2.359 3.613-.976 2.734 2.668 1.455-.415 3.188 2.039 1.998 3.34 2.031 6.383 1.691-8.094.911-11.055 7.903-2.545 8.36-2.895-.309-2.792 3.792-3.619 3.803-.541-.001-3.816-4.349-2.908 4.887.103 1.154 2.511-.107 1.607 2.163-5.356-1.034-.272 1.47-.255 1.78-.191 2.066-2.293 2.521-4.719 2.324-.201-.081-.877-.019-1.076-.103-3.93-.378-9.114-2.493-10.517-2.282-2.617.411-5.428 4.333-6.006 4.266-1.853-.232-.048-2.174-.362-3.011-.297-.822-6.1 2.575-6.345 2.309-.894-1.039.479-3.424.391-3.568-1.044-1.708-8.394-.741-10.309-1.645-.192 1.647 3.795 2.376.907 4.631-3.402 2.619-2.456-4.618-2.481-4.948-7.813-1.152-16.118-2.628-23.716-4.071-.479.484-.852 1.016-.875 1.575-.031.831 2.342 1.421 2.377 1.595.404 1.69-1.247 2.74-1.404 3.776-.104.696 1.268 1.258 1.265 1.388-.033.267-2.887 2.179-3.63 2.942-.567.592.164 2.121-.162 2.35-1.968 1.364-2.944-4.355-2.773 3.2.006.461 1.08.678 1.078.767-.067 2.094-1.984 1.565-2.898 2.957-1.568 2.404 1.696 1.961-1.254 2.958 1.052 2.353 2.041 2.638 4.217 2.882-5.939-.664-10.54 5.2-4.445 7.426-1.853-.53-2.999 3.137-3.611 2.986-.394-.104-1.863-5.011-3.773 4.031-.231 1.133 2.086.457.699 2.43-4.131-2.202-.629 1.353-.72 1.646-1.997 5.041-11.084-3.268-12.423-3.184-.619-.013-1.295.319-1.938.78q.007-.022.006-.031c-.237-1.703-3.539-.503-3.929-1.183-.357 1.612.911 2.053-.519 4.442-1.57 2.81.012-4.29.042-4.624-1.797-.355-3.048-.539-5.858-.836l.152.018c-4.367-.449-9.78-.938-15.02-1.414-.241 3.873 6.179 1.568 6.23 2.087.561 3.018-9.326 2.064-10.912.63q1.303 1.343 2.595 2.684c-2.091 4.278-5.252-1.854-7.897-.136-.844.559.482 2.417.451 2.535-1.054 1.637-2.346.169-1.053-2.041-2.403 2.003-1.827-.411-3.487-.761-.086-.016.46 1.848-.946 2.459-.64.287-3.963-.037-4.563 1.484-.248.643.743 7.757 1.54 1.798 3.331 3.274 1.429-2.61 2.809-2.335.202.055-.592 3.343 3.063 2.117-1.259 5.954-4.862 1.054-5.644 1.712-1.586 1.357 4.037 5.052 5.568.465-.973 4.646.369.675 1.645.995 1.417.351.657 1.688 1.431 1.772 2.086.239 1.571-3.158 3.003 0-.778-9.419 3.076-.932 4.195 1.625-2.255.253-4.478.51-6.761.76l.234 1.496q-.855-.189-1.731-.378l.421-1.37c-3.317 2.73-3.746-.744-3.98-.808-3.152-.709-6.863-1.047-10.116-1.386-.493-.051-.445 3.013-3.779.28-1.058-.87.255-3.115-1.071-2.894-2.283 6.232-1.715 1.135-2.197 1.076-1.376-.14-2.392 1.353-2.518 1.36-1.727.072-4.204-.454-6.114-.418-.036.027.726 2.088-.426 1.379-.406-.257-3.365-9.049-7.021-6.681.799.646 1.582 1.29 2.386 1.936-1.15-.803-8.321.513-6.828 2.907.942 1.492 4.174-3.624 3.902 1.606-2.225-1.805-15.849-.985-16.767-2.325-.124-.189.957-1.771.784-2.011-.138-.181-3.252-.142-3.583-.837-.197-.413 1.279-1.286 1.24-1.906-.029-.292-1.65-.896-2.9-.691-.354.144-.685.503-.809 1.225.196-.247.463-.327.695-.271.99.183 1.855 1.027.755 2.137-.146.142-.576-.562-.903-.888-.061-.124-.119-.187-.161-.111-.495.884-.378 1.421-.034 1.745 1.271.659 3.981.724 4.581.807-1.447.792-3.052.827-4.747.59-1.552-.253-3.638-1.396-5.63-.405-1.044-1.86 1.974-2.557.755-4.128-2.618-3.256-.936 2.381-1.047 2.598-.797 1.724-2.663-7.995-3.155-.724-1.017-1.163-.614-2.06-2.246-1.199q.274.773.538 1.546c-1.922 4.108-5.283-6.695-4.999-7.494.905-2.139 2.785 1.344 2.945 1.272.245-.112 1.408-7.458 3.723-.697 1.449-4.885-4.17-3.592-1.46-6.824-1.675.44-8.926-3.3-10.12-1.141-.139.281.326 5.233-1.458 2.671-.856-1.22 1.281-1.222.907-2.357-1.046-3.554-18.644-1.512-22.117-1.231-.222.007-.155-1.525-.374-1.511-.664.048-3.08 2.363-4.29 1.678 2.525 2.8-2.286 3.091-3.534 2.807-1.653-.388-1.809-2.544-2.395-3.422a1.1 1.1 0 0 0-.329-.269c-4.191-2.122-9.613 4.315-12.358-1.658.163 5.943-4.693-2.892-6.832-2.94-1.682-.037-4.134 3.903-1.837 6.293-2.908-.266-5.939.85-8.638 1.218-.441.061.162-1.697-.592-1.536-.069.034-.159 1.749-.812 1.93-5.367 1.516-2.777-2.15-3.775-3.224-.558-.601-.974-.899-1.28-.997 3.124-.347 6.731-1.032 7.713-1.083-.847-3.802-6.943.747-8.746-.27-.061-.041.148-2.127.085-2.148h-.004c-.655-.159-4.924.63-4.034 3.127.233.666 2.203.658 4.522.423-.635.471-.155 2.812-.265 2.918-1.336 1.165-4.636-1.115-5.822-1.419-.267-.066-.241 1.433-.284 1.441-1.055-.339-.639-4.635-1.711-.2-1.948-5.346 3.597-.81 3.201-4.285-.317-2.68-12.593-1.182-12.518 3.039-.045-.451-.218-1.01-.57-1.645-.764-1.411-4.186-.946-4.756-.164-.098.158-.029 4.245-.151 4.286-.31.095-4.496-3.082-6.023-.648.833.566 1.687 1.133 2.53 1.7-4.745.072-4.341 1.144-2.877 2.273l.305.227c.084.011.167.165.247.181 1.302.893 3.002 1.752 3.024 2.075.1 1.229-8.46 1.99-6.845-1.822.216-.52 4.212 1.134 2.218-1.558-.358-.472-2.882.324-3.025.028-.915-1.978 4.628-4.668 3.924-7.483-1.334 2.698-3.074 1.3-4.624 2.009-.706.32-.862 2.373-.946 2.414-1.285.548-.584-1.608-1.014-1.552-.228.039-2.753 4.646-2.336-1.673-8.385 4.742-2.273 4.663 2.892 4.255-1.607 2.315-4.817 1.239-6.261 1.79-.516.2-.182 2.303-1.044 2.735-.49.246-1.501.246-2.766.108-3.408-.361-8.388-1.68-9.966-2.071 1.34-.762.914-3.052-.127-2.879-1.042.174-.124 3.225-.322 3.557-.224.327-4.638-.915-5.66-.658 3.37-1.182 2.524-3.406-.444-3.59q.626-1 1.262-2.001c-1.759.955-5.422-2.455-6.355-1.389-.147.171.448 2.076.366 2.176-.831.837-3.721-1.035-3.829-.373-.091.55 1.16 2.122.742 2.931-.086.169-1.331-2.391-2.439-1.709-.411.251-.087 2.06-.188 2.17-.84.909-.448-2.175-2.032-1.614-1.162.416-1.888 3.448-3.565 2.542 5.502 3.553.971 2.169-1.202 3.451-.353.205.152 3.482-2.095 2.004 2.964-4.364 1.061-4.128-.803-3.584-1.099.251-2.167.55-2.653.557-.089-.018-.249-2.188-1.04-2.18-.066.007.108 1.471-.612 1.622-6.703 1.402-2.459-.477-3.805-1.864-.583-.59-3.604 1.631-4.429 1.717-.188.014-.167-1.518-.897-1.427-1.293.167-2.376 1.843-3.193 2.007-.094.01-.21-2.399-1.751-1.551-.429.238-.889 1.115-.234 1.782 2.174 2.192 6.003-1.924 8.622.236 2.357 1.971-4.758 2.486-5.058 2.508-.129.011 1.163-1.242-.215-1.42-1.182-.146-3.104 4.106-4.841 3.271-.13-.068-1.632-3.535-1.581-3.745.059-.153 2.093-1.008 1.748-2.016-.039-.115-1.351-.037-1.56-.789-.254-.917-1.202-9.978-1.49-10.201-.74-.532-.186 1.519-.657 1.396-1.021-.262-4.555-2.802-4.535.354q.867.244 1.716.488c-3.118.459-1.739 1.743-2.153 2.353-.445.66-.429-2.113-1.499-2.328-.256-.047-4.61.729-4.48 1.888 2.334-1.96 1.599 1.503 1.711 1.559.441.202.903-1.74 1.473-1.728 4.057.121.109 3.332 1.099 4.069.343.247.925-1.42 1.067-1.343.462.253.563 2.397.853 2.211.697-.434-.272-3.43-.219-3.594.563-1.929 3.122.329 1.735 3.7.963 1.151.917-2.87 1.721-1.296 1.597 3.116-.631 2.394-1.203 2.947-2.031 1.996-2.743.482-5.688 1.143-1.083.235-2.23 2.242-2.736 2.374-.301.081-3.587-6.565-3.15 4.059-1.187-.973-3.314-7.884-4.488-7.504-1.045.345-.512 4.085-.605 4.235-.137.235-1.423.004-1.834.557-.48.654-.148 2.074-.911 2.7-1.905 1.552-2.078-2.276-2.287-2.52-2.513-2.754-1.192 2.645-1.694 3.111-.466.424-7.464-1.288-8.816.179q.819-1.204 1.626-2.406c-1.181-2.33-2.08 1.635-2.354-2.65.177 6.933-2.235 2.438-2.896 2.656-.256.089-.164 1.268-.487 1.339-1.223.281-4.149-.478-4.781.163-2.787 2.761 5.029 6.566 5.623 6.793-1.181-.008-7.796 1.967-4.504 5.098.506.482 1.143-2.664 1.413-2.803 1.771-.911.513 1.951.672 2.208.27.409 1.293-2.346 1.623-2.045.113.1-.418 2.65 1.319 2.597-.704 2.487-5.656.805-6.264 1.419-.206.221 1.519 5.331-2.93.544l.239 1.441c-1.687.255-3.304.507-4.997.766l-1.994.302c.189-1.131 1.399-3.459-.287-2.868-.967.342-.071 2.768-.156 2.849-.868.742-16.359.974-19.238 1.464-1.002.162-3.634 2.35-3.849 2.406-1.251.29-5.819-.676-6.679-.327-.54.222.141 2.251-.36 2.193-.466-.059-.142-2.092-.284-2.17-1.203-.643-9.518 2.645-11.65.927 1.254.462 7.094-4.022 6.871-5.422-.044-.193-1.666-1.596-1.917-.829-.652-1.693-1.984 3.72-3.016 2.761-.116-.109.066-3.102-1.671-3.501-.598-.137-1.933 2.294-3.675-.163-2.149 1.415-13.879-1.383-14.272 1.878-.004.171 1.655 1.113.731 2.517-1.222 1.867-.546-4.087-2.226-4.43-.259-.055-4.666.998-4.747 1.375-.968 3.411 2.989 4.331 2.979 4.719-.043.97-3.133 1.884-3.281 1.675-.146-.223 1.939-4.833-.954-2.855q.608.719 1.225 1.438c-1.338 1.165-1.789-1.813-2.155-1.96-1.149-.457-1.744 4.22-4.038-1.199-.613-1.437-.101-3.179-.181-3.397-.766-1.942-.775 3.504-2.025-.4-.095-.292 1.359-2.915-1.717-2.522q.385.534.776 1.068c-.102.288-.474.578-.925.832-1.332.595-3.155 1.039-3.554.953-1.593-.385-.658-3.313-2.114-2.779 1.486 3.633-3.029 4.756-3.218 1.479-.102 4.163-4.356 1.559-6.194 1.726-1.147.105-3.181 2.214-3.57 2.06-.469-.191-.74-2.986-1.613-3.488-.27-.138-2.264 2.232-4.693-.329-.461-.496-2-5.071-1.464-6.358.904-2.199 3.881 1.228 3.424-1.546-.485-2.968-3.431-.715-4.317-.971-4.16-1.185-2.424-4.693-2.673-5.636-.632-2.281-2.718-1.874-2.83-2.068-.506-.87.654-2.944.464-4.367-.276-1.849-2.845-4.848-2.488-5.544.528-.994 2.861 1.478 2.961 1.328 1.315-2.044-1.541-5.964-2.481-7.96-.237-.502.1-1.38.132-1.775l-.025-.168q-.004-.008-.009-.014c-2.788-2.493.494 6.064-1.134 5.723-.475-.105-.647-.53-.67-1.05-.602-.012-1.231-.498-.718-1.436.034-.047.542-.055.907-.033.128-.537.268-.961.248-1.017-.104-.158-1.722-.048-2.128-.996-.117-.229.598-1.778 1.312-3.591-1.5.298-4.313.994-4.39 1.285-1.1 3.428 3.262 4.297 3.248 4.69-.064.969-3.482 1.923-3.635 1.717-.164-.223 2.182-4.87-1.034-2.842q.67.708 1.34 1.419c-1.473 1.187-1.969-1.786-2.374-1.924-1.27-.433-1.929 4.261-4.486-1.097-.683-1.421-.117-3.182-.204-3.397-.435-.969-.65-.061-.93.58-.315.635-.708 1.014-1.486-.892-.126-.285 1.865-3.02-2.212-2.424q.513.51 1.017 1.021c-.431.931-4.572 2.09-5.206 1.989-1.79-.316-.746-3.296-2.42-2.688 1.724 3.568-3.45 4.929-3.709 1.658-.047 4.174-5.133 1.837-7.326 2.137-1.372.186-3.843 2.464-4.312 2.339-.576-.157-.922-2.944-2.003-3.377-.312-.121-2.774 2.429-5.82.065-.595-.455-2.524-4.926-1.848-6.269 1.169-2.303 4.83.902 4.273-1.853-.611-2.947-4.244-.431-5.388-.605-5.247-.816-3.049-4.507-3.361-5.434-.792-2.24-3.465-1.631-3.62-1.814-.656-.825.897-3.038.636-4.449-.318-1.843-3.613-4.617-3.142-5.356.66-1.048 3.63 1.22 3.769 1.06 1.636-2.172-1.943-5.865-3.119-7.792-.357-.594.344-1.828.117-1.978-3.486-2.261.57 6.074-1.454 5.873-1.832-.171-.178-3.405-.283-3.543-.11-.154-2.2.116-2.718-.801-.29-.459 4-6.962 3.304-9.342-1.614.878-3.263 1.77-4.85 2.656-.782-3.132 2.17-1.32 2.355-1.692.381-.759-1.377-2.068-1.527-3.078-.088-.645 1.141-3.257-.583-3.88-.608-.211-1.26 2.229-3.636.366 6.089-4.276 1.09-5.094.658-6.172-.427-1.079 2.261-4.381-1.575-3.102-1.45-6.111-.326-1.962.585-3.275 1.1-1.61-2.518-2.985 2.867-2.479-.88-2.824-4.906-1.788-5.174-1.968-.23-.169.38-1.773-.043-2.185-4.996-4.757-1.836-2.77-3.692-6.086-.174-.298-4.09-.828-1.436-1.941 4.897-2.024 7.844 1.648 6.958-7.261-4.585-3.03-8.029 3.578-9.144 3.924-1.716.519-.301-1.65-.62-2.101-.108-.145-1.608.339-1.66.204-2.541-6.407 6.79-1.594 9.024-3.235q-1.317-1.29-2.613-2.579c.876-.223 1.81-.456 2.686-.675-4.728-1.122-.315-.729-.31-6.339-.003-1.26-2.453 1.396.141-2.631-2.577-.29-2.016-1.549-3.903.42-.396-2.173 4.059-5.615 5.785-7.104-7.366-1.058-1.84 6.074-8.664 3.113-.537 2.9 2.18 1.791 2.056 2.278-.526 1.763-2.986-.354-4.164 5.708-.187.995 2.045 3.444-.393 3.833-.247.03-2.343-2.008-2.353-2.19-.238-1.916 1.496-1.564 1.362-2.354-.082-.76-1.736.074-1.77-.133-.59-2.333 1.237-1.217.86-1.904-.788-1.505-8.325-5.123.29-5.487-6.223 4.165-.28 2.765 2.093 1.199.603-.396.457-1.834 1.316-2.525 1.058-.881 2.622-.5 3.19-.884.612-.422-3.887-2.972 1.841-3.102-3.485-2.747-7.732 1.814-11.093.132-6.974-3.355 2.852-6.599 3.69-7.223.248-.18-1.065-1.885-.91-2.042.282-.25 5.886-.49 6.113-2.167.214-1.68-1.975.475-2.48-1.129-.347-1.084 5.839-4.36 2.128-4.403-2.564-.028-6.178 5.346-7.993.76a992 992 0 0 1 10.674-3.407c-2.316-1.431-4.689-2.846-7.047-4.254 3.981-1.41 7.903-.05 11.25-3.388-10.422-4.032 2.133-5.236 2.139-5.958-.032-.436-4.599-4.472-5.37-5.219 2.896-2.442 12.617-5.137 5.96-9.852 1.303.77 3.161-2.713 3.087-2.946-.798-2.529-6.151.187-5.659-2.314.568-2.905 2.745.49 4.342-.102 8.207-3.047 3.487-16.151 12.677-15.489q-.383-.68-.768-1.358c4.719-.397 9.546-.773 14.624-1.113 5.844-.42 11.405-.675 16.896-.837 1.795-2.234 5.263-4.233 8.967-5.652 4.064-1.505 7.156-2.297 9.516-2.244.914.02 5.431 1.872 5.779 2.232.663.689-2.655 1.23-1.025 2.492.319.26 7.76.605 7.033-1.688-.833-.207-3.302 1.167-3.785.65-3.255-3.694 19.562-2.33 20.542-4.005-.555-.72-1.109-1.438-1.676-2.157 1.455.26 2.911.52 4.353.78-.513.706-1.042 1.414-1.568 2.12 1.675.3 3.84-.361 5.391.145.257.086-.232 2.051.362 2.09.595.037.271-2.567 1.111-2.918.912-.38 5.456 1.086 6.972.92 5.649-.636 11.284-2.601 17.041-1.984-5.719 2.42.373 3.9 1.941 2.927.186-.12.142-1.548.968-2.75.814-1.066 2.319-1.961 5.436-1.628 4.26.457.844 7.698 7.69 3.704-5.805-4.476-.458-4.531 3.935-4.973.747-.082 6.921.285 9.58-.057.91-.123 2.176-2.742 3.379-2.865.826-.082 1.51 1.285 2.719 1.162 5.634-.556 10.899-.843 16.107-.54-2.813 6.661 2.481 2.719 2.718 3.026 1.291 1.742-4.271 2.43-2.024 3.472 3.08-.303 6.112-.601 9.134-.9-2.485-.729 3.095-5.63 4.232-3.517-.515-4.594 8.498 1.021 13.283 2.515 1.242.387 2.234.497 2.683.084.431-.424-2.624-3.196 4.38-2.106.745.122.521 1.88.905 1.706.228-.111 1.483-5.711 3.122-2.687.601 1.105-2.869 4.866 4.899 3.16-3.28-5.569 10.709-3.39 13.297-2.044q-.796-1.118-1.584-2.238c2.557 1.979 2.973.041 3.545.129 2.297.355 5.521 2.204 7.625 1.967 2.491-.275 2.402-3.796 5.34-2.51q-1.067-1.134-2.129-2.27c1.996.13 4.037.26 6.031.391-4.491 4.787.994.199 1.378.083.59-.186-.211 1.745.778 1.48.098-.046-.087-1.834 1.427-2.079 3.174-.504 2.739 1.769 4.083 1.706.122-.016-.35-1.621 1.948-2.068 7.338-1.422-.008 1.241-.278 1.473-.364.309 2.354 7-3.972 4.775 2.12.705 2.42 3.69 2.659 3.76.207.056 3.819-.465 4.028-.574 1.765-1.066.134-3.067.471-3.445.279-.303 4.725 2.242 5.588-3.94 2.249 5.62-1.071 5.19-4.555 6.16-.479 1.177 3.401 2.203 3.611 2.195 4.974-.146 2.092-4.74 3.098-7.753.529-1.577 2.645 1.553.657-2.583 4.509-.564 1.835 1.935 2.136 2.287.454.515 2.001-.727 2.203-.573.296.23-.673 1.706.485 2.186.192.069 1.969-2.476-.442-3.604 3.189.269 2.87-1.85 4.063 2.407 1.969-8.167 1.716 4.747 2.59 5.181 2.322 1.136 1.488-5.208 1.6-5.526.781-2.012 7.182.005 8.726-.953-.495 4.6-5.027.184-5.986 1.1-3.206 3.046 4.691 2.168 2.458 7.994q1.44-2.415 2.875-4.828c1.933 3.656-.631 5.34 4.274 3.856.724-3.219-3.479.597-2.684-1.944.472-1.49 3.325-1.885 3.361-2.666.032-.939-2.525.24-2.157-1.212.808-3.138 10.325-.423 3.182 1.466 2.001-.106 3.203 6.058 4.883 4.084 1.092-1.282-5.454-9.669 4.069-8.35.283 2.917-3.769.965-3.868 1.188-.136.332.757 6.908.893 7.23.487 1.06 10.037-2.725 12.192.536-.907-3.792 7.277-.871 8.148-2.055.229-.327-.715-2.637-.47-2.894 1.537-1.513 5.902 2.547 7.857 2.605 2.212.066 1.888-1.94 2.01-1.944.974.088.235 1.474.826 1.456.884-.03 7.031.093 7.361-.2.089-.092-.982-2.371.358-2.843.237-.082.14 2.655 4.099 1.373 4.753-1.542-3.43-3.313-1.51-6.226 3.217 3.995 2.984-.037 3.819.257q.041.016.133.114c.612.605 2.635 3.345 4.759 3.096-1.568.554-3.053 1.107-4.638 1.662l-.376.138q.18.06.382.102c1.783.343 4.572-.321 5.878.277.67.315.202 3.148 1.624 3.037.306-.04 1.352-6.941-2.346-3.764-.364-2.445 1.486-.894 2.284-1.607.117-.112.538-4.223 1.674-1.702.273.624-2.24 12.643 4.774 3.815.223-.285-.614-1.761-.397-2.078.142-.214 2.01.346 2.217.13.205-.234-.735-1.846-.492-2.174 1.252-1.688 3.067 4.757.425 4.325.913.78 1.778 1.561 2.693 2.342-1.075-4.864 1.384-1.408 2.569-1.585 7.86-1.137 2.516-4.198 3.836-5.873 2.148-2.688.597 5.71 3.839 3.13.303-.24-3.733-3.713 4.033-1.861-1.133.16-2.287.32-3.417.481.747 4.709 4.108-.396 4.396-.476 3.034-.703.996 1.034 5.558-1.473.397-.224 1.335.928 2.213.335 3.641-2.448-4.893-1.387-5.116-3.291M148.011 243.409c.045-.072 1.115-.046 1.16.029 1.148 1.929-2.07 1.838-1.16-.029m13.398 1.157c-1.391-1.146-.842-6.281.403-4.275.141.232 1.483 5.816-.403 4.275m-25.1-1.473c-.17-1.25 1.448-1.54 1.579-1.369.712 1.114-.783 2.839-1.579 1.369m20.363-.127c-.004-1.587 1.39-.948 1.981-.621.115 1.438-1.45.395-1.981.621m34.5-3.175c-.032-1.244-4.882-.827-5.084.831.706-.749 5.105.286 5.084-.831m-17.989-1.206c.107.281.197.725.262 1.461-.287-.788-.341-1.219-.262-1.461m4.818.949c1.452-2.368-1.839-2.026-1.693-.421.057.604 1.634.515 1.693.421m36.025-3.996c-.568-1.616-1.193-1.224-1.624-.234-.663 1.484-.876 4.311.228 3.73a.1.1 0 0 0 .023-.023c.246-.308 1.436-3.281 1.373-3.473m-10.411 1.638c-.142-.206-1.824.237-1.697 1.328.918 1.378 2.331-.397 1.697-1.328m11.46-1.585c-1.448.316-.077 4.84.699 2.889.049-.124-.602-2.903-.699-2.889m337.005-.009c-.76.984-1.817 2.165-1.984 1.481-.201-.795.174-1.441.709-1.896zm-323.773.052c.076-.283-1.585-7.173 1.622-2.762.471.646-.965 2.558-.798 2.799.352.467.62.68.826.709-1.341.658-2.71 1.013-2.882.599-.764-1.955 1.202-1.23 1.232-1.345m-11.332.05c-.163-.214 1.708-7.142-1.323-1.833 1.851.681-.008 1.546.071 2.137.181 1.701 3.091-.137 3.783.56.316-3.088-1.984-.174-2.527-.864zm13.343.503c.528-.76.381-3.501 1.075-3.217 2.069.851.666 2.266-1.075 3.217m10.457-6.465c.229-1.152 2.055-.638 2.478-.19.074.094-.077 3.087.726 2.822.642-.218-.486-3.227.805-2.802 1.297.427-.29 2.694-.173 2.844.167.192 2.056-1.275 2.091.505.008 1.321-2.129.535-2.648.843-.654.395.265 2.549-.87 2.136-.711-.259-.527-4.139-.684-4.329-.126-.15-2.488 2.2-1.722-1.817zm306.975 3.181 4.67 1.52c-.44.045-1.101.306-1.615.744l-1.512-.492c.003.259-.035.615-.138 1.085-.151-.208-.652-.157-.647-.379 0-.096.005-.184.015-.273-.704 1.576-1.798-.433-1.757-.89.029-1.243.431-1.461.895-1.285q.024.01.048.023c-.077.208-.234.617-.366 1.085l1.325.43-.01.08q.017-.041.036-.08l-.004.007-.022-.007c.022-.162.042-.348.052-.546.004-.213-.565-.775-1.011-.969l.033-.09c.026-.067.008-.056.008.037m-415.294.923c-.917-.017-2.787-.502-1.968 1.449.109.16 2.106-.312 1.968-1.449m413.843-.721c.04-.075.414.184.409.282-.054 2.092-1.057 1.379-.409-.282m-4.91-2.129c2.044-3.425 1.587 2.723 1.445 2.907-1.953 2.321-.37-2.071-.395-2.291-.067-.363-1.572 1.594-1.045-.616zm-413.702 1.491c-.164-.182-2.826.546-2.392 1.438.784 1.691 2.89-.806 2.392-1.438m5.062-.097c-.784-2.453-2.028-.667-3.027-.662.667 2.217 1.996.233 3.027.662m-10.257-1.241c-1.114-2.386-4.278-.051-3.196 1.475.171.193 2.686-1.5 3.196-1.475m366.693 1.21c-6.601.963-6.654-6.392-1.089-2.891.113.079 1.557 2.197 1.089 2.891m-227.673-.845c.33-1.809 1.682-1.29 2.575-1.223-.333 1.809-1.697 1.291-2.575 1.223m-29.095-.626c.485-2.154 2.35-.747 3.348-.482-.505 1.777-2.448 1.095-3.348.482m296.24.523c.329-1.92.821-3.311 2.097-2.456-.502.932-1.469 1.682-2.097 2.456m-302.118-.506c-.153-1.262 2.168-2.624 2.523.497-.526-.197-2.409.293-2.523-.497m306.744-1.407c-.94-1.402 1.627-1.582 2.274-.939-.103 1.234-2.136 1.144-2.274.939m-270.923-.086c-.418-.627 1.538-1.867 2.152-1.253.014 1.351-1.878 1.661-2.152 1.253m-131.216-.575c-.63-2.205-2.028-.24-3.03-.647.504 1.74 2.329.982 3.03.647m337.285-2.603c-.652-.318-1.431 2.379-1.34 2.622.405 1.11 1.938-.967 1.34-2.622m6.604-.687c1.628 2.832-.223.059-.446 2.824 1.286.246 4.476.737 2.574-2.217-.369-.572-1.547-.361-2.128-.607m-251.921 2.633c-1.09 1.844-1.213-4.107-.044-2.138.045.082.087 2.058.044 2.138m219.066-2.14c-.38-3.197 1.257-3.655 2.254-2.299.227.307.949 3.563-.055 4.153.196-3.854-1.314-5.389-2.199-1.854m31.191-1.614c-.306.87-2.014 3.526-.791 3.461.567-.035 1.81-3.061.791-3.461m-14.294 1.677c-.339-.277-1.303-.441-1.509.665-.254 1.381 1.175 1.036 1.509-.665m70.212-3.131c1.635.32 1.711-3.773 2.573-1.832.134.335-.129 8.839-1.648 5.492-.272-.602 1.206-2.487-.925-3.66m-279.671 4.074c-.065-.083-.381-2.587.608-2.095 1.115.56.162 2.873-.608 2.095m311.807-1.924c.445-3.227 3.261-.122 1.102 1.366-.097.041-1.099-1.234-1.102-1.366m-89.069-.197c-.224-.453-7.065-2.868-7.045.577.656-.324 8.437 2.337 7.045-.577m37.93.336c-.531.045-2.021-.872-2.234-.126-.262.976 1.943 1.829 2.234.126m-30.462-.84c-.448-.069-2.297.095-2.387.547-.298 1.566 2.023.944 2.387-.547m42.424-.972c1.193.032 2.322.647 3.341 1.455-.357 1.344-3.321-.423-3.341-1.455m-268.218-3.234c.229-.082.632 2.013.712 2.032.178.021 4.413-.979 2.903 1.8-.246.464-6.401-.295-7.214-.522-.456-2.881 2.301-.251 2.912-.577.11-.066.073-2.489.686-2.721zm-139.833 3.217c-.002-1.094-1.583-1.877-1.815-1.375-.382.79 1.818 3.122 1.815 1.375m316.035-2.138c1.048.038-.126 3.252-.67 2.045-.204-.449.407-2.052.67-2.045m41.137-3.189c-.341-.002.349-2.478-.888-1.662-.588.386.755 3.246.327 3.723-.274.295-1.361-.842-1.84-.051-.141.254.799 2.903 1.166 2.836.52-.087.259-2.117.809-2.069 1.818.165 3.285 1.759 4.988 1.916.151.006-.885-1.519.429-1.352.204.027 1.193 2.238 2.792 2.103 4.172-6.058 6.021.542 10.647-1.314-.109-.625-3.19-2.599-3.387-2.683-3.542-1.451-10.097-2.293-13.95-2.748-.985-.118-.662 1.298-1.093 1.301m-32.908 5.187c-3.562 1.876-2.492-8.348 2.015-4.768l-.472 1.354c5.177 1.699.351.726-.959 1.268-.497.205-.13 1.922-.581 2.158zm17.238-1.765c-.1-.256-3.973-.684-2.773 1.548.385.667 3.803.654 2.773-1.548m-31.032-.455c-3.564-7.262 3.249-2.536 5.157-3.456-1.905 2.983-4.301 2.519-1.034 5.608-4.821.568-2.81-2.309-3-2.554-.227-.27-.97.712-1.123.402m9.229.025c.197-.209 1.682 1.296 2.211 1.066-.787 2.463-3.553.353-2.211-1.066m122.219.6c1.085-1.517 3.675.91 4.82.761-1.752 1.418-3.991.507-5.066-.279a2 2 0 0 1 .19-.402c-.765.575-1.398 1.116-1.42 1.01-.075-.376.039-.938.211-1.502zm-27.536.923c.276.097.508.241.71.352-.207-.041-.442-.149-.71-.352m-292.5-.081c1.341-2.059-1.713-2.506-2.532-.519.407-.15 2.443.652 2.532.519m317.248-2.785c.19.178.326.5.277 1.126l.192.063q-.12.124-.227.241-.017.117-.041.246a1 1 0 0 0-.092-.106c-.385.411-.643.695-.698.677-.352-.136-.138-.711.158-1.34l-.006-.013.011.003c.142-.302.3-.615.426-.897m-58.359-.019c-.972-.647-1.023 1.873-.967 1.961.693.891 2.065-1.231.967-1.961m54.267 1.8c.883-.444.531-2.462 1.218-1.671-.647 2.067-.81 2.293-1.218 1.671m-3.369.012c-.37-.466.587-3.948.768-1.969.05.628-.566 2.221-.768 1.969m-266.975-1.693c.042-.071 1.366.002 1.424.079 1.272 1.977-2.69 1.747-1.424-.079m276.678-.5c-.052.189-.454 1.061-.719 1.931l-1.054-.342c.494-.514 1.117-1.119 1.773-1.589m-45.537 1.452c.522-1.249-1.419-1.791-2.085-1.165-.335 1.556 2.018 1.34 2.085 1.165m-278.646-1.413c-.202-1.771-2.147.493-1.659 1.306.316.517 1.773-.206 1.659-1.306m320.844 1.04c.395-.932 1.38-1.718 1.309-1.276-.029.164-.11.37-.212.597-.154-.144-.344-.196-.5-.236-.131.498-.069.857.063 1.13zm-246.242-1.311c.812-.331 1.638-1.14 1.959.911-.544-.304-2.025.523-1.959-.911m-66.584-.651c-.281-.708-7.163-.762-3.148 1.234.226.114 4.032.897 3.148-1.234m287.162-3.591c-.588-.889-2.992.978-3.638 2.833-.052-.376-.242-.878-.624-1.496l.004.001c-.495-.818-18.194-3.423-6.631 1.42.36.153.014-1.602 1.513-1.15.097.036.011 1.429.313 1.527.684.216 4.397 1.465 5.262.419-.019.258.006.509.088.744.729 2.098 4.173-3.61 3.713-4.298m-181.672 3.698c-.216-2.693 2.536-.968 3.044-.73-.175 1.199-2.905 2.67-3.044.73m-9.456-1.381c.076-.082 1.651.094 1.72.191 1.31 2.057-3.15 1.57-1.72-.191m105.777 1.435c.412-1.771 1.549-1.205 2.292-1.034-.209 1.317-1.75.923-2.292 1.034m-143.559-2.533c.421-1.652 3.709-.448 4.494 1.167-.651 2.398-5.013.888-4.494-1.167m225.272 1.614c.046.333-.015.541-.163.721.018-.244.074-.471.163-.721m5.687-1.663c-.05-.111-1.952-1.072-1.854.677.16 2.566 2.316.315 1.854-.677m-65.783-2.113c-.402.115-1.935 1.571-1.446 3.239.367 1.309.737-1.236.856-1.23.028.005.153.157.31.344 1.131.786 3.296 2.177.454-2.319-.022-.034-.083-.045-.174-.034m-41.995 2.492c-1.162-2.458 3.502-5.336 4.493-3.743.069 1.517-4.327 4.072-4.493 3.743m6.822-2.698c.435-.541 1.437 1.222 1.073 2.29-.471 1.367-1.181-2.135-1.073-2.29m-35.853 1.493c1.101-.689 2.463.1 3.63.044-.473 1.103-3.155 1.415-3.63-.044m-152.884-1.801c-.836-.972-2.758 1.033-2.093 2.008.415.598 3.063-.893 2.093-2.008m-14.815 1.218c.314-1.091-.874-2.776-1.312-2.207-.116.15.908 3.612 1.312 2.207m69.037-1.813c-.716-1.76-2.374.579-1.875 1.259.353.464 2.589.512 1.875-1.259m102.372.632c.686-.745 1.918.038 2.781-.055-.141 1.205-2.475 1.277-2.781.055m-168.87.611c.786-1.242-1.408-4.782-2.16-1.9-.384 1.475 2.033 2.106 2.16 1.9m61.498-3.07c-.184-.107-.353.387-.482.989-.236.782-.386 1.744-.345 1.813.131.216.299.284.47.241.474-.148.965-1.809.357-3.043m-209.61 1.294c.299-.305 1.748.088 2.306-.107-.229 2.749-3.372 1.213-2.306.107m271.378-.015c1.278.706 2.832.368 2.853-1.105.028.23.092.474.196.719.108.242 1.466-.45 2.052.05 3.566 2.962-13.666 1.841-3.711-2.383q-.692 1.359-1.39 2.719m-31.24-1.161c-.23-.316-2.185.965-2.221 1.91 1.145.979 3.224-.436 2.221-1.91m258.758 1.139c-.857-2.127 2.676-1.539 2.679-1.098-.049 1.461-2.295 2.05-2.679 1.098m-294.215-.415c-.779-1.788-2.564-1.564-1.937.246.067.17 1.722 1.115 1.937-.246m39.418-1.029c-.415-.513-1.684-.005-1.803 1.231.647.597 2.76-.034 1.803-1.231m-240.302-5.835c-.338 2.427-2.391.959-3.37 1.783-1.34 1.148-2.426 10.502-2.8 1.369 2.1-1.071 4.168-2.125 6.17-3.152m211.922 6.501c1.132-2.419-1.387-1.753-2.286-1.622.024 1.361 2.211 1.784 2.286 1.622m-14.422-.885c-.606-.116-1.911-1.243-2.345-.868-1.208 1.058 1.966 2.699 2.345.868m-13.554-7.387c2.904 7.257 2.415 1.59 2.637 1.612.482.06 1.742 2.001 2.649 1.634-1.024.875-2.074 1.751-3.094 2.624.82.5 8.387 2.891 8.543 1.684.155-1.709-2.219-1.072-2.285-1.218-.109-.209-.684-4.919-.911-5.093-.39-.269-6.549-.107-7.539-1.243m-4.35 6.82c-.818-2.153 2.474-1.463 2.603-1.223.619 1.456-1.926 2.98-2.603 1.223m315.408.637q.091.027.184.067zm-348.077-2.448c-1.859-4.187-.771 1.178.719 2.478.314-1.948-.415-1.797-.719-2.478m86.091-1.755c-3.677-5.171-1.58 4.327-.956 3.481.091-.122 1.042-3.355.956-3.481m-24.558 1.868c-.105-.123-2.387-.676-2.299.535.659.884 3.631.992 2.299-.535m79.822 1.071q-.233.026-.464.049c.115-.085.266-.113.464-.049m-62.643-2.004c.562.553.759 2.423 1.006 1.97.085-.158.067-1.943.36-2.411q-.687.22-1.366.441m-84.044-2.065c-.476-.745-5.045.388-4.191 2.61.292.79 2.819-1.411 2.95-1.261.196.225-.484 2.778.887 2.195-.134-.844.52-3.294.354-3.544m3.838.222c-1.791-3.162-1.776 2.864-.59 2.811.456-.018.85-2.354.59-2.811m81.944 1.273c.84.195 2.481 1.97 2.257-.719h-.004q-1.14.359-2.253.719m-75.399-1.135c-.622-.537-2.17-1.284-3.121.775 1.426.089 2.834.182 4.256.274.099-1.14-.602-.577-1.139-1.049zm-148.684-2.985c.206-.036.37-.028.402.018.374.516.2 1.185-.174 1.594-.471.463-1.253.613-1.805-.139-.143-.909.954-1.366 1.577-1.473m532.158-1.572c-2.493-2.112 4.924-2.929 4.967-2.574.046.516-3.66 3.682-4.967 2.574m-15.262-4.289c-1.967-2.794 8.686.227 8.934.674.131.249.208.476.243.665.519-.709 2.578-.552 2.537 1.43-.59-.248-2.293-.322-2.46-.568a1.2 1.2 0 0 1-.152-.294c-.957 1.599-8.733-1.361-9.102-1.907m-3.54-1.616c.113-.061 2.39.514 2.456.622 1.535 2.355-4.846.747-2.456-.622m-519.552-.156c-1.009.013-3.132-.389-2.195 1.531.106.157 2.365-.399 2.195-1.531m-5.405-1.153c-.164-.179-3.258.7-2.756 1.572.958 1.646 3.331-.963 2.756-1.572m510.986-2.775c3.328-3.044 2.657 3.09 2.39 3.243-3.387 1.917-.639-2.172-.681-2.403-.148-.388-2.586 1.286-1.701-.838zm-517.049 1.73c-1.31-2.331-5.1.238-3.79 1.695.182.185 3.201-1.69 3.79-1.695m11.781.73c-.856-2.435-2.281-.59-3.39-.545.747 2.197 2.268.148 3.39.545m-1.797-3.502c-.719-2.187-2.284-.158-3.437-.517.6 1.718 2.639.881 3.437.517m562.834-1.788c-.536-3.242 3.513-.944 1.629 1.044-.095.058-1.58-.916-1.629-1.044m-7.714-1.529c.269-2.569 5.033-.454 6.281-.934-1.485 1.816-4.42 1.481-6.281.934m-575.127-1.075c-.015-1.098-1.922-1.766-2.217-1.241-.463.824 2.239 2.995 2.217 1.241m557.231-2.799c1.083.161 2.663.383 2.705 2.077-.706-.358-2.91-.867-2.705-2.077m-10.392 1.19c3.062-.122.613-2.445 3.476-1.348-1.027 2.021-1.566 2.198-3.476 1.348m-11.201-1.404c-.97-.602.906-3.888 1.704-1.774.25.671-1.15 2.106-1.704 1.774m62.195-10.884c-2.096-1.837 3.079-2.182 3.009-1.779.197.707-.189 1.365-.88 1.737-.688.371-1.667.453-2.129.042M33.366 133.093c-.562-.582-1.303-2.715-2.035-1.371 1.307 1.421 2.585 2.849 3.887 4.275.026-3.864-1.235-2.263-1.852-2.904m-6.484-12.797c.123-.122-1.823-5.661.778-2.228 1.72 2.323-4.333 6.182-6.057 3.926 1.062-1.459 4.228-.721 5.279-1.698M9.32 98.36c-.188-.438 2.615-1.798 2.954-1.534 2.058 1.3-1.757 3.789-2.954 1.534m9.004-.882c-1.459-.846 1.13-2.14 2.05-1.665.302 1.042-1.83 1.785-2.05 1.665m-9.81-3.721c-.32-1.04 2.155-1.921 2.335-1.79 1.564.804-1.149 2.165-2.335 1.79m637.69-7.503c-.777-4.072-2.869 4.254-.767 2.774.102-.075.799-2.575.767-2.774m.224-9.461c-1.269-3.015-1.828 6.534-1.672 6.944.664 1.611 3.947-1.786 4.646-2.65-4.445.942-2.369-2.875-2.974-4.294m-5.088 5.472c-.777.033-2.546-.926-3.02-.691-1.627.817 1.944 3.245 3.02.691M12.411 74.386c-2.559 4.078.347 2.461-.006 3.96-.271 1.182-2.417.72-.819 2.638-1.996-2.034-8.21.017-11.282.582l.025-.008c-.796-.002-.147-5.886 1.942-5.619 5.618 1.118 3.143 4.965 10.14-1.552m617.339 2.91c-.739-.453-2.959-1.618-3.578-.194.893-.135 3.019 1.676 3.578.194m15.903-10.947c-1.036-1.146-3.024 2.767-.605 3.518-.957.52-1.875 1.043-2.84 1.558 2.958 2.698 3.428-3.016 4.316-2.672 1.257.487.619 5.167.179 6.61 1.409-2.746 5.996-2.278 8.7-2.558-2.208-1.447-5.745-3.954-7.914-4.984-.625-.296-1.397.915-1.929.706-.864-.345.15-2.101.097-2.177zm-17.018 6.227c-.916-2.205-2.108 3.632-.426 2.096.066-.063.453-1.974.426-2.096m-615.948-.395c-.181 1.617-6.318 3.868-6.689 2-.133-1.7 5.782-1.803 6.689-2m609.455-2.807c-.399-2.465-2.272 3.063-.995 3.435.383.099 1.032-3.151.995-3.435m34.032-.052c-1.251-.347-2.647-.919-3.445.746.998.119 2.302.87 3.327.41l-.782-.074c.354-.164.649-.473.886-1a5 5 0 0 1-.787-.157zm-15.559-.462c-.162-.147-3.899.156-3.817 1.307.395.788 5.696.6 3.817-1.307m-6.778-9.744c-.622 1.07-1.259 2.136-1.895 3.202.261-7.06-1.682 3.922-2.327-2.064-3.288 8.055 5.55.833 5.491 8.017-8.258-2.005 4.579 7.784.188-3.622 4.267 4.502 1.746-1.096 2.667-2.345.986-1.328 3.475.586 3.682-2.026h-.005a593 593 0 0 1-5.015-.115c.852 5.814-2.311 3.67-2.786-1.047m-20.598 8.606c-1.822-3.068-1.442 2.892.087 2.126.073-.067-.042-2.051-.087-2.126m14.837-4.914c-1.319-2.378-1.607 4.492-.086 2.927.088-.094.147-2.818.086-2.927m25.611-2.042c-.192-.165-4.307-.403-4.513-.246-.158.13.158 3.885-.823 4.944 1.398-1.409 5.851-.585 8.245-.242l-.867-.082c.827.107 1.397.162 1.503.067.32-.302-1.581-4.355 1.731-1.854h.004c-.746-2.301-1.79-2.838-2.858-2.616l.938.089c-1.798.35-3.552 2.888-3.8 2.766-.37-.197.519-2.74.44-2.826m-4.003 2.798c-1.399-1.446 2.577-1.072 2.678-.879.859 1.654-2.047 1.529-2.678.88m-4.045-3.093c-.283-.383-3.173-1.061-3.631.618 1.096 2.398 4.275.276 3.631-.618m-62.165-2.224c-2.042 1.562 3.683 2.619 2.208.403-.083-.106-2.102-.475-2.208-.403m-561.567-.85c-1.725-.947 1.6-2.126 2.712-1.723.254.973-2.567 1.803-2.712 1.722m591.704-1.629c-.772.08-2.592-1.622-3-.168.807-.065 2.606 1.628 3 .168m35.815-5.32c1.097-2.106 1.327.596 1.43.645.989.455 3.198.195 2.492 2.268-1.739-1.054-6.098 1.27-3.922-2.913m-18.327-2.416c.918-1.652 9.526 1.14 10.998 1.313-1.709 3.113-2.432.482-4.177.41-.471-.014-.537 1.366-.588 1.361-.81-.05.009-1.54-.478-1.633-.331-.044-7.078.91-5.755-1.451m-1.085.487c-.369-.5-9.283-.823-10.641-.375.993 1.361 9.683 2.898 10.181 2.392.142-.147.503-1.935.46-2.017m20.068.456c.638-1.2 6.397-1.11 6.576-.757 1.455 2.688-6.21 1.259-6.576.757M26.854 41.018c1.124-1.164 1.76 3.087 3.528 1.272-2.908 3.205.147 1.508.545 3.072 1.642 6.51-5.536-2.16-7.144-.417-.215.242 2.092 1.976 1.544 2.7-1.767 2.339-10.465-6.5-2.917-6.19h-.005c1.97.087 1.121 1.953 1.217 1.992 4.45 1.656 2.693-1.869 3.232-2.429m588.008 4.761c-3.173.232 2.179 3.634 1.837 1.204-.02-.147-1.52-1.23-1.837-1.204m35.572 1.074c-.176-1.147.94-4.36 1.399-2.616.198.754-.548 2.676-1.399 2.616m1.94-2.85c.953-1.866 6.232.619 4.61 2.076-.256.242-6.007.656-4.61-2.075M630.74 45c1.522-3.65 5.466-.461 2.219.994-.324.126-1.254-1.7-2.219-.994m-14.877-2.758c-.118-.135-3.092-1.494-3.396-.31.381.565 4.83 1.85 3.396.31m1.185-1.862c-.122-.056.167-2.693-1.843-2.092-.397.128-1.326 1.733-1.302 1.849 1.176 4.477 8.261-2.322 4.319-1.662-.078.029.202 2.466-1.174 1.905M26.63 39.222c-1.012-2.433 2.202-2.411 2.725-2.048.205.152-1.415 5.214-2.725 2.048m568.958-3.834c-.668-.046-1.078-.022-1.173.069.139.642 1.179 1.242 4.104 1.96.957-.16 3.807.895 4.773.8 1.181.593 2.326.992 2.452.917 1.483-.952-.237-1.938-2.132-2.505-.987.097-3.901-.98-4.879-.817-1.587-.267-2.494-.377-3.145-.423m29.117-.236c.291-2.492 3.481-.654 4.448-.96-1.086 1.786-3.142.85-4.448.96m-32.302-8.084c-1.163-1.491 2.849-2.45 4.569-.64.296 1.193-1.153 1.348-2.266 1.243-1.159-.112-2.225-.516-2.303-.603M15.898 21.99c.054-.08 1.736-.27 1.805-.202 1.85 1.713-3.153 2.262-1.805.202m516.628-.003c-.873-.604-5.029-.892-3.571.732.236.25 3.356.623 3.571-.732m6.24-3.104c-.389-.339.608-7.763 2.072-4.703.192.398-1.103 2.252-.962 2.722.092.27 3.801 1.719 4.006 1.567.21-.178.239-2.588.459-2.837.241-.276 2.398 2.069 3.626 2.218 2.342.281 2.781-1.681 2.98-1.67.566.045 1.354 1.552 2.489 1.665 5.701.562 14.657-.276 18.853 4.372-3.934-2.08-7.96-.652-12.056-.495 1.591-4.033-6.232 2.613-1.609-1.765-2.029.864-18.578-.002-19.853-1.074zm-185.753 2.671c1.46-1.742-2.088-3.653-2.679-2.311-.302.67 2.036 3.074 2.679 2.311m161.533-2.273c-1.465 1.366 2.559 3.767 1.649 1.04-.046-.113-1.569-1.114-1.649-1.04m-186.035-4.374c-1.772.395-3.456 7.544-1.274 6.384.233-.128 1.504-5.404 1.274-6.384m7.62 2.656c-1.632 1.812 2.006 3.165 1.617.837-.049-.126-1.555-.913-1.617-.837m38.368.41c-.208-.16-2.317.195-2.216 1.277.795.63 3.455-.179 2.216-1.277m151.845-.858c-.194-.261-5.446-2.024-5.718-1.822-3.036 2.36 8.442 5.43 5.718 1.822m-182.536.234c-1.544-2.761-4.037-2.42-3.322 1.223 2.749-.318-.432-3.279 3.322-1.223m105.236-1.035c-2.133-2.583-2.088 2.136-.494 2.103.563-.01.561-2.02.494-2.103m.706-.655c-1.306.821.827 4.28 2.482.992-.804.25-2.344-1.076-2.482-.992m-14.63.116c-1.08.322-3.834-.276-4.315 1.08 1.298-.29 4.653 1.612 4.315-1.08m-296.973-.804c-.502 2.517 4.826 2.698 3.268.763-.355-.428-2.604-.8-3.268-.764m256.221 1.098c-.087-1.5-2.563-.758-2.202.2.105.322 2.267 1.014 2.202-.2m62.679-3.209c-.878-.244-1.681 3.245-1.585 3.414.907 1.605 2.408-2.015 1.585-3.414m23.064 1.957c.247-2.22-3.997-1.192-2.456.743.375.483 2.373-.002 2.456-.743m-317.827-.318c.719-.743-2.542-2.262-2.38-.358.061.609 2.269.455 2.38.358m159.151-1.504c1.024-2.586-4.565-1.86-4.963 1.11.752.39 4.833-.816 4.963-1.11m-189.889-1.325c.723-2.317 5.007.122 4.357 1.106-.141.212-4.592.154-4.357-1.106M347.13 6.076c.509-.455.884-5.465 3.661-3.002h.008c.822.72-.061 1.96.097 2.39.061.177 2.625 2.598.558 3.051-3.129.695-.395-3.71-2.071-3.72-.206.007-3.32 2.791-3.122 3.38.023.067.969-.529 1.134-.287.623.912.373 2.48.459 2.553.287.18 5.24-2.605 6.033-.304.256.743-7.958 2.685-8.29 2.304-.209-.241-.237-4.572-.458-4.994-.11-.21-3.391 1.5-3.839 1.113a2 2 0 0 1-.298-.334c.537 1.327-2.465 1.31-2.415-.205.038-.595 2.111-.306 2.189-.204.033.043.063.104.09.145-.471-1.622 6.54-1.732 4.961-4.123 2.004-1.385-.197 3.572 1.303 2.237M197.932 9.63c-.128-.097-2.811-.229-2.955-.144-2.638 1.722 5.504 2.11 2.955.144m8.075-.992c-.612.107-3.402-.602-3.413.152-.012 1.216 3.172 1.94 3.413-.152m292.334.605c.25-1.49 2.729.036 3.663-.11-.257 1.491-2.733-.043-3.663.11M353.428 7.219c2.197-1.633.859-5.021 3.399-4.07l-.597 1.383c3.542-1.208 7.667.88 11.789.759 1.03-.028-.225-2.783 1.142-2.057 1.124.582 2.397 3.135 1.818 3.727-.144.145-2.422-1.478-3.515-1.278-3.275.596-2.396 2.965-2.584 3.035-.209.07-2.301-1.555-3.436-1.45-2.834.266-4.109 1.767-8.016-.05m49.651-2.797c.147-.08 2.171.424 2.23.549 1.399 2.59-5.271 1.224-2.23-.55m55.858-2.256c1.16-.164 3.064.755 3.952.56.15 2.326-2.356 1.148-4.006.864-.35-.058-.661-.08-.899-.03-.079-.944.327-1.311.953-1.394m-26.991-1.042c17.1-2.17 13.146 3.731-.981 1.361-.033-1.784-.063-1.218.981-1.361m22.331.589c-.692 1.76-2.678 1.175-4.041 1 .277-1.233 3.062-.712 4.041-1m26.712.548c.969-2.068 3.37-.836 4.932-.71-.825 1.763-3.619.822-4.932.71M404.3 2.013c-.423-2.696 4.163-1.692 4.52-1.098 1.46 2.385-4.193.493-4.52 1.098m65.469-2c.108-.077 2.275.218 2.368.32 1.684 2.154-4.459 1.328-2.368-.32"/></svg>