<svg width="166" height="180" viewBox="0 0 166 180" fill="none" xmlns="http://www.w3.org/2000/svg">
<path d="M68.0537 77.0197C70.9954 76.4882 73.8002 75.4849 76.7012 74.7825C78.3219 78.3612 80.3496 82.6385 81.382 84.7902C82.0369 86.0351 82.3588 87.4472 83.3764 88.5138C84.9897 90.0857 87.6243 89.5729 89.7149 89.2384C91.0211 89.0006 92.3051 88.6736 93.5854 88.3428C94.3106 88.1756 94.9989 87.908 95.5391 87.4398C97.4817 85.3885 95.9868 82.4378 95.2801 80.1858C94.2329 77.4433 92.997 74.7639 91.8721 72.0511C93.0118 71.7539 94.1515 71.4454 95.2653 71.0775C96.6639 70.587 98.1218 70.2154 99.4798 69.6468C100.409 69.1228 100.923 68.1455 100.816 67.1792C100.705 65.9975 100.127 64.9124 99.6611 63.8161C98.5844 61.5344 98.6325 61.553 97.7333 59.7506C96.5529 57.5135 95.6131 54.7933 92.1534 55.4919C89.9702 55.9639 87.8907 56.7666 85.7742 57.4503C85.0008 55.6108 84.2867 53.7527 83.4689 51.9281C82.6956 50.1704 81.9777 48.3903 81.2081 46.6288C80.5975 45.0829 79.5837 43.589 77.5152 43.589C74.148 43.8789 71.0028 45.2093 67.7725 46.0528C63.7096 46.9819 64.261 48.8102 65.7744 51.5602C66.9141 54.0277 67.9094 56.5399 68.9899 59.026C69.4376 60.0702 70.026 61.3337 70.433 62.1922C70.4441 62.2219 70.4515 62.2553 70.4626 62.2813C68.6199 63.255 66.6476 63.5894 63.743 64.8789C60.1944 66.6293 61.6042 70.9363 62.7587 73.6491C63.7726 76.1835 64.6828 77.5994 68.05 77.0159L68.0537 77.0197ZM65.9779 68.3164C65.9779 68.3164 65.9779 68.309 65.9779 68.3015C67.9353 67.3613 68.5533 67.3799 71.2803 66.3431C71.8946 66.0978 75.9537 65.4104 75.6836 63.556C75.5911 62.9094 75.2692 62.2405 74.914 61.5716C74.8659 61.3969 74.8104 61.2222 74.7438 61.0513C74.0925 59.2935 73.4339 57.5358 72.7937 55.7706C72.2091 54.1318 71.6023 52.5004 70.9954 50.869C70.8141 50.4082 70.6772 49.8954 70.4034 49.468C72.5347 48.8177 74.6697 48.1822 76.8529 47.6954C77.7557 49.7133 80.0647 55.1612 81.4375 58.554C82.1627 60.4307 83.1396 62.4746 85.8297 61.6347C88.109 60.9695 90.3106 60.0962 92.6085 59.4979C93.7704 61.5418 94.0072 62.0881 94.6621 63.4705C94.5881 63.3107 94.5104 63.1509 94.4364 62.9948C94.9618 64.1803 95.5872 65.3546 96.0312 66.5698C95.1913 66.8485 94.3513 67.1235 93.5077 67.3874C92.1682 67.811 90.8065 68.1752 89.4337 68.5059C88.5382 68.7252 87.6502 69.0894 87.1432 69.8066C86.5697 70.6093 86.8139 71.5755 87.2173 72.393C87.6465 73.4298 88.0794 74.4667 88.5197 75.496C89.7001 78.0416 91.7944 83.274 91.961 84.5932C91.5909 84.6824 91.2246 84.7716 90.8583 84.8682C88.4901 85.355 87.9832 85.5929 86.5919 85.5854C85.9407 84.3517 84.6382 81.3416 83.6502 79.3794C82.9213 77.8484 82.2256 76.3099 81.5263 74.7677C80.6752 73.1251 80.1128 70.561 77.5892 70.5387C74.2405 70.992 71.099 72.2555 67.8206 72.9876C67.6541 73.0248 67.4839 73.0582 67.3137 73.088C67.2878 73.0359 67.2841 73.0359 67.2952 73.0657C67.2656 73.0025 67.236 72.943 67.2101 72.8836C67.125 72.6829 66.7364 71.8245 66.6365 71.5346C65.9742 69.6319 65.9927 69.7323 65.9483 68.5208C65.9594 68.4167 65.9668 68.3498 65.9668 68.3015L65.9779 68.3164Z" fill="#FDFDFD"/>
<path d="M2.51532 68.0193C4.74287 75.0465 7.43664 81.9177 10.0083 88.8298C14.7039 101.13 19.3366 113.453 24.1173 125.724C28.8388 138.028 33.3346 150.581 40.2281 161.886C41.427 163.729 42.6925 165.528 43.9987 167.297C44.9348 168.519 45.9154 169.842 47.3807 170.455C48.1133 170.753 55.7913 170.095 63.3916 168.887C67.4138 168.248 71.4285 167.568 75.4359 166.843C76.2462 170.173 77.0825 174.027 77.8262 176.754C78.0668 177.639 78.2518 178.638 78.94 179.296C80.0871 180.493 81.9372 180.013 82.977 178.925C84.6606 177.356 85.6559 175.26 86.8807 173.35C88.9713 173.859 90.9658 174.718 92.9935 175.431C93.8409 175.725 93.7113 175.792 95.4949 176.595C96.8824 177.107 98.4958 176.294 98.8695 174.87C99.1729 173.28 98.7511 171.656 98.4958 170.08C97.8704 167.49 97.2044 165.063 96.4791 162.744C103.972 161.184 111.421 159.441 118.777 157.337C147.013 149.266 166.895 141.217 165.97 139.537C165.851 139.318 165.699 139.136 165.529 138.972C165.056 138.34 158.288 135.553 158.995 128.582C159.239 126.166 159.191 126.315 160.175 123.524C161.159 121.027 161.133 120.911 162.958 118.34C163.479 117.5 163.446 116.679 163.098 116.025C162.987 115.326 162.595 114.679 162.395 114.003C161.551 111.77 160.704 109.533 159.853 107.303C150.362 82.2225 138.984 57.889 127.583 33.6187C122.31 22.4033 113.474 0.734344 111.003 0.102596C109.752 -0.220711 108.438 0.314418 107.18 0.414754C103.772 0.938734 100.368 1.49616 96.9824 2.13534C82.4996 5.00422 68.1427 8.44539 53.7895 11.894C43.8581 14.3392 33.8193 16.5132 24.1247 19.8057C14.8852 22.9459 5.60502 28.8657 5.16839 30.2853C2.56343 38.7656 -0.189548 57.6437 0.0102643 58.4724C0.439492 61.739 1.63467 64.8568 2.51532 68.0193ZM83.7059 169.965C82.8882 170.939 82.2924 172.065 81.6449 173.153C80.3757 163.725 77.101 157.449 74.6551 153.699C73.8707 152.729 73.0011 151.834 72.0391 151.061C76.3017 149.994 80.594 149.017 84.8789 148.028C85.3821 148.772 85.8632 149.526 86.3035 150.306C88.4903 154.16 92.8529 166.23 93.9223 170.905C90.8622 170.017 86.3923 167.148 83.7096 169.965H83.7059ZM155.487 140.771C151.624 142.279 150.813 142.547 146.939 143.907C136.801 147.378 126.466 150.225 116.12 153.001C109.108 154.985 102.015 156.62 94.8843 158.088C93.5929 154.621 92.1276 151.347 90.4329 148.08C90.2109 147.679 89.9741 147.285 89.741 146.891C94.8325 145.698 99.9092 144.45 104.93 142.997C106.795 142.532 107.154 139.875 105.463 138.942C104.227 138.236 102.892 139.035 101.641 139.292C89.8446 142.51 77.8262 144.829 65.9966 147.943C64.2612 148.367 62.5443 148.864 60.8459 149.407C59.9578 149.678 58.9291 149.868 58.4555 150.756C57.4194 152.432 59.1141 154.632 61.0235 154.067C62.8218 153.521 65.9522 152.636 67.7653 152.142C67.9762 152.525 71.9244 157.074 73.6598 160.812C73.8226 161.161 73.9928 161.611 74.1667 162.135C46.648 167.642 53.0236 167.386 52.4093 151.406C52.3464 149.771 52.3501 148.136 52.3982 146.501C54.4925 145.42 55.2955 145.345 58.0596 144.372C61.8597 143.142 65.6895 141.99 69.497 140.782C78.977 137.727 88.5199 134.843 98.2071 132.498C110.559 129.641 122.94 126.902 135.358 124.349C141.455 123.119 147.565 121.937 153.677 120.785C154.565 120.618 155.45 120.454 156.338 120.295C154.861 123.561 154.07 127.144 154.136 130.707C154.136 134.07 155.313 137.508 157.533 139.909C156.826 140.217 156.131 140.574 155.49 140.767L155.487 140.771ZM44.587 19.0179C60.9162 15.0565 77.2638 11.121 93.7299 7.74675C97.271 7.01095 100.834 6.36062 104.409 5.78833C105.874 5.55421 107.343 5.3201 108.812 5.09713C108.627 5.72516 114.455 17.6095 118.718 26.4837C123.261 35.9487 127.779 45.4213 132.098 54.9904C139.616 71.2263 146.961 87.5552 153.429 104.241C154.662 107.403 155.864 110.573 157.067 113.739C157.241 114.2 157.415 114.665 157.589 115.125C157.529 115.133 157.474 115.14 157.418 115.148C155.661 115.445 153.903 115.772 152.149 116.103C138.747 118.604 125.4 121.357 112.102 124.356C100.586 126.883 89.112 129.607 77.8669 133.153C72.4239 134.821 67.0178 136.612 61.5711 138.277C58.3593 139.347 55.0513 140.239 51.9135 141.514C51.4177 140.358 50.9255 139.195 50.426 138.043C48.8645 134.42 47.2327 130.823 45.6305 127.218C36.9423 107.86 30.626 91.0186 24.6612 70.9179C21.727 60.9734 18.7261 51.055 15.6697 41.1477C14.7742 38.1636 13.9158 35.1721 13.0092 32.1917C12.802 31.6863 12.6688 31.1214 12.506 30.5752C20.4356 24.6627 33.6306 21.8719 44.5833 19.0142L44.587 19.0179ZM8.80573 35.3913C11.5254 44.2284 14.1748 53.0877 16.8648 61.9322C19.9545 72.3226 22.9517 82.7464 26.6298 92.951C29.6677 101.472 32.8314 109.953 36.3799 118.28C39.8322 126.467 43.5805 134.524 47.0773 142.692C47.0477 142.822 47.0292 142.952 47.0255 143.086C46.8442 145.264 46.7591 147.456 46.7183 149.641C46.6887 153.476 47.1365 159.482 47.1698 163.447C45.8081 161.622 44.1652 159.225 42.8886 156.903C35.6361 143.785 30.9257 129.507 25.442 115.623C19.8176 100.766 13.6937 85.1322 8.97594 71.9064C3.766 58.7214 2.36361 59.7917 8.80573 35.395V35.3913Z" fill="#FDFDFD"/>
<path d="M141.711 128.715C140.764 128.15 139.727 128.552 138.747 128.79C136.675 129.291 134.61 129.812 132.549 130.347C128.275 131.45 123.998 132.55 119.724 133.654C118.274 134.026 116.816 134.375 115.358 134.735C114.688 134.955 113.9 134.962 113.36 135.449C111.38 136.865 112.993 140.038 115.332 139.377C123.765 137.292 132.149 135.007 140.59 132.944C142.839 132.732 143.687 129.938 141.707 128.719L141.711 128.715Z" fill="#FDFDFD"/>
<path d="M130.662 141.283C129.718 140.719 128.69 141.109 127.72 141.369C126.902 141.584 126.081 141.792 125.263 142.012C122.262 142.8 119.261 143.587 116.257 144.36C112.856 145.237 109.456 146.1 106.055 146.98C104.842 147.408 103.213 147.434 102.181 148.143C100.213 149.552 101.815 152.711 104.146 152.053C112.638 149.935 121.111 147.749 129.574 145.527C131.813 145.286 132.641 142.506 130.666 141.283H130.662Z" fill="#FDFDFD"/>
</svg>
