<svg xmlns="http://www.w3.org/2000/svg" width="64" height="153" fill="none"><path fill="#FDFDFD" d="M40.72 95.733c15.476-6.403 20.552-21.3 22.285-36.601q.215-1.913-.315-3.125a1.705 1.705 0 0 0-1.637-1.02 27.3 27.3 0 0 1-7.505-.707c-.246-.061-.354-.36-.189-.556.654-.787 1.688-2.07 3.12-3.847 6.83-8.456 7.94-21.058 3.844-30.827C54.816 5.91 42.565-.688 28.096.057 8.182 1.082-4.49 19.595 1.487 38.546 3.055 43.5 5.968 49.29 10.18 52.79c.3.253.127.74-.261.74-2.448 0-4.639.008-6.583.016-2.11.015-3.117 1.163-3.002 3.435.392 8.134 2.214 15.788 5.473 22.978 2.755 6.073 6.064 10.932 10.987 13.765.834.48 2.156 1.11 3.946 1.88a.71.71 0 0 1 .37.938c-2.095 4.648-3.898 9.343-.07 13.695.08.096.173.173.27.238l2.251 1.574c.527.369.788 1.006.692 1.635-1.48 9.048-4.166 17.343-8.078 24.87a2.3 2.3 0 0 1-1.683 1.206c-5.12.787-14.12 1.439-13.685 8.283.234 3.651 6.875 4.207 9.546 4.357 4.884.284 14.96.384 30.225.284q10.087-.059 17.539-1.478 4.087-.776 3.805-5.151c-.096-1.566-.558-2.595-1.365-3.098-3.243-2-8.143-2.51-11.536-3.562a2.43 2.43 0 0 1-1.065-.66c-3.49-3.681-5.764-7.984-6.813-12.902-1.503-7.024-2.38-11.081-2.644-12.16-.12-.48.015-.99.353-1.351 1.937-2.062 3.647-3.743 3.544-6.395q-.18-4.554-2.072-9.274a.72.72 0 0 1 .392-.93zm2.144 43.433H20.79a.293.293 0 0 1-.261-.434c2.402-4.499 4.174-8.952 5.307-13.366q.791-3.058 2.025-11.27a.35.35 0 0 1 .354-.307h5.51c.646 0 1.196.472 1.277 1.109.038.284.584 3.494 1.637 9.62.907 5.316 3.009 10.153 6.314 14.49.053.069 0 .158-.081.158zm15.472 7.903a8.9 8.9 0 0 1-3.49.945c-4.534.291-8.646.706-13.527.763-11.882.15-21.12.135-27.703-.053a43.6 43.6 0 0 1-7.152-.795c-.75-.142-1.222-.864-1-1.528.112-.337.489-.652 1.119-.936 1.748-.795 4.081-1.336 6.986-1.612 9.135-.879 19.138-1.064 30.018-.549 2.978.142 6.506.598 10.599 1.37q2.374.439 4.188 1.574a.469.469 0 0 1-.038.817zm-21.601-38.508c-2.306 2.046-8.631 1.305-10.515.637-1.521-.549-2.636-1.8-3.347-3.762-.803-2.211.653-5.78 1.637-7.953a.75.75 0 0 1 .677-.426h9.373c.81 0 1.552.426 1.967 1.117 1.818 3.09 3.055 7.857.212 10.391zm-9.63-15.654c-7.049-1.117-12.34-4.805-15.86-11.066A58 58 0 0 1 5.567 67.65a.57.57 0 0 1 .561-.707l51.054.899c.22.007.377.21.315.41-2.19 8.503-5.472 15.197-12.558 20.552-5.058 3.816-11.003 5.19-17.843 4.1zM5.517 57.432l51.919.913a1.057 1.057 0 0 1 1.022 1.228l-.527 3.217c-.088.518-.541.89-1.064.883L6.01 62.775a1.065 1.065 0 0 1-1.03-.883l-.526-3.232a1.058 1.058 0 0 1 1.064-1.228M6.875 17.38C13.562 3.918 30.578 1.3 43.295 6.705c8.923 3.793 14.011 12.138 15.222 21.538 1.299 10.069-3.797 20.31-12.286 25.903a.46.46 0 0 1-.262.076l-27.634-.487a3.26 3.26 0 0 1-2.102-.825c-2.514-2.234-4.324-3.98-5.419-5.232-1.041-1.194-2.313-3.27-3.805-6.222Q.893 29.422 6.883 17.384z"/></svg>