<svg xmlns="http://www.w3.org/2000/svg" width="124" height="93" fill="none"><path fill="#797979" d="M27.062 34.067c-1.311-.407-2.817-1.788-4.393-2.178-11.575-2.904-18.523 4.468-17.957 15.22.385 7.363 8.545 13.434 15.176 15.542q21.939 6.99 56.911 19.184c4.087 1.424 8.294 2.498 11.207 3.522 2.793.97 5.147 1.432 7.067 1.36 6.436-.219 12.314-3.034 14.101-9.921 2.365-9.114-3.524-16.28-12.87-17.41-.786-.096-1.938-.27-3.454-.51a.456.456 0 0 1-.376-.561l1.696-4.727c1.76-4.932.806-8.874-2.888-11.83-4.495-3.62-9.078-4.1-15.007-5.29a1.18 1.18 0 0 1-.938-1.328c.995-6.83-1.226-11.648-6.807-16.005-8.306-6.49-17.47-7.826-27.472-4.004-6.203 2.368-11.406 6.698-12.795 13.41-.218 1.044-.41 2.753-.597 5.12a.463.463 0 0 1-.609.404zm1.379 7.194c.324.238.7.395 1.092.445 1.958.213 3.276-.965 3.961-3.52.691-2.6-.315-5.72.04-8.212 1.285-8.723 13.895-12.13 20.88-11.247 7.157.913 17.188 6.958 15.401 15.38-.605 2.828-.902 4.27-.903 4.334-.101 1.982 1.15 4.076 3.282 4.101 5.853.083 19.466.614 16.849 9.935-.23.823-1.028 3.045-2.381 6.664-1.186 3.184 1.516 4.405 4.334 4.777 2.585.348 4.578.717 5.984 1.131 6.263 1.812 9.747 8.792 4.446 13.773-3.53 3.307-9.159 2.378-13.489.909a34872 34872 0 0 0-61.261-20.67c-7.891-2.657-18.858-6.397-16.142-16.955 2.339-9.102 13.04-4.68 17.908-.85z" opacity=".4"/></svg>