<svg xmlns="http://www.w3.org/2000/svg" width="160" height="172" fill="none"><path fill="#A2B0B5" d="M129.875 55.574c-2.674-1.012-5.284-1.017-7.826 0a.59.59 0 0 1-.772-.34c-3.716-10.11-17.917-8.727-16.782 2.83.113 1.148.362 2.097.738 2.837a.485.485 0 0 1-.266.675L86.534 68.15a.38.38 0 0 1-.484-.502c2.767-6.748 6.558-14.734 11.379-23.97a2.56 2.56 0 0 0-.715-3.236l-.143-.113a1.75 1.75 0 0 0-2.632.601l-10.85 21.582c-.154.308-.605.287-.72-.035l-5.983-16.778a.862.862 0 0 1 .707-1.135c3.11-.417 11.825-1.21 8.024-6.941q-.883-1.335-.798-3.042a2.49 2.49 0 0 0-1.894-2.558c-1.433-.363-2.644-1.004-3.639-1.909-2.376-2.177-4.498-1.74-7.895-1.35a.66.66 0 0 1-.657-.346c-1.949-3.794-2.937-6.515-7.088-8.188q-3.08-1.23-6.012-.291c-4.668 1.491-6.919 5.074-7.38 9.75-.152 1.588.686 4.088 1.285 5.719a.535.535 0 0 1-.402.707c-6.062 1.216-9.13 4.892-9.197 11.04-.044 3.196 1.854 4.12 4.29 5.496a.55.55 0 0 1 .2.785c-.82 1.308-1.184 3.194.724 3.804 1.746.548 2.714-.094 3.974-1.426 1.5-1.59 3.356-2.642 5.582-3.152a.76.76 0 0 1 .878.476l6.285 17.628a.261.261 0 0 1-.365.321 1884 1884 0 0 0-16.583-8.301c-1.755-.874-3.445-1.442-5.068-1.693-.925-.144-1.82.44-2.08 1.358-.633 2.297 1.666 2.76 3.312 3.254a1.147 1.147 0 0 1 .427 1.964c-2.562 2.293-3.521 4.883-2.882 7.782a.47.47 0 0 1-.462.564c-7.27-.007-10.777 5.142-8.277 11.75a1.085 1.085 0 0 1-.723 1.43q-7.802 2.198-8.738 9.186c-.435 3.18.455 5.839 2.644 7.981 2.857 2.782 6.352 3.381 10.47 1.793a.67.67 0 0 1 .811.265c1.197 1.937 1.275 4.482 4.165 6.086 3.026 1.684 6.06 1.693 9.08.035 5.797-3.167 5.882-7.668 4.46-13.303a.58.58 0 0 1 .37-.686l13.187-4.702a.274.274 0 0 1 .362.323c-.425 1.824-1.242 3.658-2.453 5.492q-3.907 5.93-8.168 13.436a1.895 1.895 0 0 0 .955 2.703l.061.022a2.614 2.614 0 0 0 3.198-1.078L72.78 97.379a.511.511 0 0 1 .916.09l9.84 27.599a1.97 1.97 0 0 1-.64 2.202c-.978.766-2.484 1.533-3.377 2.686-2.356 3.048-2.511 6.585-.454 10.606 1.758 3.436 5.195 5.483 8.998 4.442 1.764-.482 2.739-.741 2.913-.768a.576.576 0 0 1 .631.4c1.24 3.892 5.286 7.634 9.681 6.874 3.443-.603 6.876-2.026 8.496-5.265 1.365-2.722.937-5.079.746-8.054a1.426 1.426 0 0 1 .983-1.441c4.534-1.453 8.513-5.644 7.481-10.523-1.799-8.454-8.379-9.018-15.418-6.734a.536.536 0 0 1-.667-.325L92.473 89.896a.425.425 0 0 1 .594-.522l19.099 9.339a2.72 2.72 0 0 0 3.517-1.037l.155-.255a1.68 1.68 0 0 0-.702-2.384l-18.86-9.233a.264.264 0 0 1 .037-.488l13.009-4.638a1.16 1.16 0 0 1 1.345.43c4.121 6.039 9.431 8.332 16.365 4.698 1.959-1.018 3.142-2.628 3.58-4.82.422-2.133-.618-4.699-.781-6.264a1.03 1.03 0 0 1 .384-.908q.336-.261 2-1.268c2.999-1.797 4.395-5.248 3.496-8.688-.873-3.277-2.542-7.028-5.842-8.277zm-85.81 21.899c-.003-3.024.511-6.108 1.525-9.25a.59.59 0 0 1 .822-.347l16.625 8.132a.319.319 0 0 1-.022.58c-3.528 1.52-8.074 3.216-13.626 5.093-2.297.775-4.127-1.629-5.125-3.424-.13-.237-.2-.51-.2-.784m86.408-9.512c-.907 1.605-4.239 2.722-6.156 3.858a1.52 1.52 0 0 0-.416 2.264c6.4 7.879-4.026 11.503-8.469 5.791q-.307-.395-1.465-3.176a1.36 1.36 0 0 0-.504-.637q-1.444-.996-3.27-.333c-7.697 2.753-15.132 5.422-22.29 8.001-2.133.77-1.992 1.908-1.281 3.8a1561 1561 0 0 1 12.328 34.212c.375 1.078.873 1.933 1.499 2.557a2.12 2.12 0 0 0 2.373.445c2.465-1.096 4.532-1.696 6.218-1.783 6.67-.378 7.252 7.54 1.08 9.439-5.159 1.587-5.051 2.267-3.938 7.148 1.796 7.866-8.13 9.507-10.958 2.709-.659-1.583-1.282-4.878-4.06-3.431-2.269 1.182-3.753 1.822-4.454 1.943-.364.059-.74.011-1.079-.134q-2.874-1.25-3.307-4.121c-.464-3.099 1.768-5.012 4.524-6.194 1.961-.837 2.422-1.946 1.666-3.992-2.738-7.503-6.875-19.205-12.41-35.118-.636-1.835-1.369-2.519-3.29-1.834q-13.192 4.69-21.989 7.814c-5.2 1.845 3.443 10.197-4.417 13.935a1.8 1.8 0 0 1-.757.168c-2.396-.019-4.164-1.194-5.278-3.515-1.073-2.217-1.538-6.198-5.184-4.858q-.037.011-3.6 1.394a1.9 1.9 0 0 1-.93.097c-3.346-.523-4.647-2.45-3.882-5.787.946-4.147 4.35-5.286 8.056-6.208 1.586-.392 2.722-1.645 2.808-3.126a1.34 1.34 0 0 0-.292-.893c-1.369-1.677-2.755-3.427-2.089-5.443 1.027-3.093 3.74-3.404 6.061-1.57 2.293 1.816 2.047 7.412 6.044 5.925 2.122-.8 9.243-3.495 21.37-8.103q2.208-.84 1.272-3.46-5.536-15.451-9.72-26.108-.785-2.01-1.791-2.244c-2.494-.583-4.613.59-7.154 1.961q-.3.162-.648.222c-2.617.44-4.042-.776-4.247-3.64q-.291-4.092 3.286-5.18c.62-.195 1.913-.04 3.847.456.252.065.521.066.775-.015 1.77-.53 2.242-1.82 1.315-3.503-1.784-3.28-2.189-9.482.765-12.198 3.254-3.006 8.007-.31 9.11 3.839q.362 1.355.493 1.948c.958 4.058 5.435 2.772 7.834 1.278a.64.64 0 0 1 .982.515l.045 1.647c.016.46.365.85.821.91 1.948.258 4.488-.11 5.4 2.545a1.018 1.018 0 0 1-.854 1.342c-3.748.462-6.298.427-8.448 2.04a2.22 2.22 0 0 0-.843 2.249c.264 1.205.578 2.312.953 3.314C76.86 60.29 79.93 68.69 81.143 72.302c.368 1.106 1.19 1.54 2.439 1.295q3.182-.615 4.074-.943a1597 1597 0 0 1 20.725-7.337 2.166 2.166 0 0 0 1.428-2.456c-.486-2.47-2.247-8.441 1.38-9.632 1.982-.654 3.623-.148 4.932 1.523.149.191.258.41.33.636.775 2.54 1.261 4.593 3.405 5.501.311.133.663.163.989.073 1.313-.366 3.607-1.477 5.079-1.447 4.046.083 6.505 4.98 4.55 8.436z"/></svg>