<svg xmlns="http://www.w3.org/2000/svg" width="133" height="73" fill="none"><path fill="#FDFDFD" d="M120.346 28.494c-.875 1.225-1.13 2.646-1.549 4.432a1 1 0 0 1-.89.779c-5.394.505-9.223 3.66-8.052 9.47.167.844.515 1.656 1.027 2.45a1.02 1.02 0 0 1-.211 1.354q-1.987 1.632-4.823 1.642c-6.387.037-6.717-8.189-7.407-13.053-.57-4.059-2.347-7.871-5.33-11.45-5.205-6.241-14.532-7.064-21.12-2.632a.502.502 0 0 1-.782-.417v-7.713c0-.469.378-.845.841-.845h8.935a2.016 2.016 0 0 0 2.013-1.867l.022-.355a1.676 1.676 0 0 0-1.68-1.793h-9.768a.33.33 0 0 1-.333-.354l.348-6.278A1.755 1.755 0 0 0 69.893.012l-.085-.008a1.717 1.717 0 0 0-1.832 1.587l-.404 5.787a.763.763 0 0 1-.774.704l-9.116-.158a1.77 1.77 0 0 0-1.802 1.73l-.015.196c-.074 1 .69 1.867 1.695 1.938l9.412.65c.282.021.5.25.5.534v10.662c0 .203-.26.28-.378.122-1.26-1.68-2.272-2.812-4.111-3.757-6.176-3.17-14.35-3.274-19.866.937-4.111 3.137-7.125 7.95-7.574 13.285-.426 5.104-1.23 11.618-7.177 13.197-1.853.498-3.555-.092-5.204-1.188a.945.945 0 0 1-.378-1.067c.318-1.044.622-2.51.919-4.387.905-5.772-3.177-9.74-8.927-8.931a.66.66 0 0 1-.737-.491c-.701-2.639-1.58-5.443-4.238-6.617-3.113-1.369-6.101-.34-8.263 2.214-2.031 2.407-1.605 8.03-1.2 10.769q2.757 18.566 6.698 32.859c.274 1 .964 1.406 2.057 1.203Q31.3 67.718 56.2 66.7c21.939-.885 43.97 1.347 65.293 5.421.904.174 2.317.137 4.229-.1a.68.68 0 0 0 .549-.416c.501-1.24.775-2.034.834-2.373a487 487 0 0 1 3.952-21.068c.986-4.706 1.36-9.883 1.694-14.057.556-6.897-7.718-12.167-12.404-5.613m4.152 34.46-1.108 4.765a.776.776 0 0 1-.905.583 642 642 0 0 0-23.632-3.956c-1.05-.159-5.516-.554-13.387-1.188-12.14-.975-25.571-.628-36.57-.21q-1.273.043-15.025 1.276c-7.962.705-17.53 2.436-23.806 3.713a.34.34 0 0 1-.412-.31l-.304-4.318c-.037-.498.19-.982.586-1.277.549-.41 1.338-.786 2.361-1.118 11.1-3.584 22.995-5.62 35.143-6.026 9.935-.333 19.94-1 30.41-.54q7.304.325 24.225 2.776c6.914 1 14.45 3.472 21.887 4.997.385.077.63.453.537.837zm3.633-18.595c-.478 4.377-3.018 5.06-6.662 6.14-1.601.477-2.75 1.923-1.312 3.137 1.316 1.119 3.715.447 5.431-.107a.468.468 0 0 1 .608.52l-.638 3.88a.43.43 0 0 1-.493.346 103 103 0 0 1-10.42-2.35c-3.83-1.074-7.3-1.875-10.391-2.384a248 248 0 0 0-23.095-2.739c-4.134-.295-7.785-.417-10.962-.383-5.531.073-9.646-.137-14.647.25-7.48.576-15.161.62-22.598 1.76-8.882 1.362-16.97 3.274-24.248 5.74a.93.93 0 0 1-1.216-.728l-.752-4.583c-.037-.21.181-.377.378-.295l4.278 1.76c.949.387 2.042-.085 2.39-1.044l.197-.52a1.553 1.553 0 0 0-.934-1.99L6.428 48.37a1.01 1.01 0 0 1-.645-.756c-1.042-5.27-1.702-10.241-1.976-14.928-.189-3.288 2.773-6.314 5.69-3.236q3.224 3.392-.085 7.488a1.994 1.994 0 0 0 .797 3.092l.434.18a2.207 2.207 0 0 0 2.925-1.283l1.012-2.753a1.275 1.275 0 0 1 1.42-.809c6.843 1.21 3.655 7.049 1.709 10.647a.77.77 0 0 0 .1.886c3.729 4.266 9.42 6.373 14.661 3.1 5.03-3.144 5.857-8.5 6.706-14.415q.619-4.314 1.476-6.048c3.221-6.473 9.694-8.901 16.615-7.713 1.809.31 3.555 1.166 5.241 2.557 2.68 2.23 3.926 5.045 3.73 8.455-.304 5.443-2.729 8.794-7.277 10.07-6.436 1.81-11.38-3.409-9.998-9.65.548-2.487 3.633-2.874 5.423-1.405.204.166.349.387.404.649.152.686.245 1.247.267 1.687.045.693.708 1.24 1.528 1.232 1.312 0 2.135-.856 2.172-2.07.174-5.348-6.865-8.115-10.78-4.975-1.846 1.484-2.858 3.38-3.025 5.687-.47 6.222 2.606 11.086 8.667 12.924 5.301 1.609 10.506-1.768 14.054-5.665a.48.48 0 0 1 .76.078c2.535 4.325 6.48 6.177 11.532 5.45 6.054-.878 10.71-6.436 9.76-12.554-.781-5.09-8.006-9.787-12.132-4.72-2.036 2.494-2.02 6.543.411 8.83.578.547 1.138.72 1.672.528 1.123-.41 1.594-1.723.956-2.683-.993-1.49-1.497-3.524.63-4.295 1.087-.395 2.355-.44 3.33.229 2.873 1.981 1.223 6.35-.564 8.528-.86 1.044-2.157 1.723-3.896 2.048-5.068.93-8.378-1.125-9.92-6.17a3.4 3.4 0 0 1-.145-.952c.023-5.189.812-9.687 5.646-11.798 4.853-2.119 9.057-1.746 12.626 1.118 3.403 2.73 5.865 7.639 6.343 12.41.638 6.352 1.78 13.205 9.031 14.972 5.264 1.285 8.066-.808 11.773-3.97.745-.642 1.001-1.34.76-2.104a1.1 1.1 0 0 0-.282-.469q-.42-.42-1.716-1.989c-2.005-2.45.26-5.498 2.847-6.118a1.9 1.9 0 0 1 2.202 1.096l.964 2.229c.115.273.289.513.508.705 1.238 1.103 2.476 1.118 3.699.037a1.29 1.29 0 0 0 0-1.93q-4.68-4.163-.63-9.47.34-.455 1.535-.727c2.309-.535 3.648 1.694 3.692 3.797.067 3.274-.508 7.049-.934 10.957z"/></svg>