<svg xmlns="http://www.w3.org/2000/svg" width="220" height="199" fill="none"><path fill="#FDFDFD" stroke="#FDFDFD" stroke-miterlimit="10" stroke-width="3.45" d="M88.61 97.114c-10.913 12.962-13.67 27.881-15.094 42.788-.717 7.51 1.214 15.565 3.326 22.976 2.432 8.532 15.747 9.821 21.816 2.192 2.827-3.555 5.332-8.002 6.176-12.393 2.65-13.786 4.478-27.733 6.511-41.632.24-1.641-.395-3.394-.316-5.077.071-1.472.577-2.922.983-4.799 3.616 5.945 6.369 11.369 9.951 16.168 6.005 8.049 11.907 16.337 21.913 20.159 6.772 2.586 16.266.712 18.751-5.153 1.64-3.876 1.869-8.976 1.018-13.177-2.88-14.204-10.805-24.75-24.326-30.742-6.19-2.745-6.628-5.408-3.017-11.282 5.121-8.33 10.633-16.538 12.168-26.52.897-5.829 1.11-11.596-2.239-16.93-5.383-8.576-15.663-10.88-23.395-4.31-4.666 3.96-8.178 9.289-12.192 14.022-.905 1.066-1.725 2.205-2.835 3.1 2.096-9.95 14.215-23.54 25.663-23.014 7.632.35 15.188 6.22 16.794 13.958 2.157 10.381-.211 20.008-5.327 29.122-3.041 5.413-5.892 10.935-8.79 16.343 6.023 4.227 12.358 7.63 17.382 12.42 9.386 8.949 13.669 20.514 12.87 33.492-.517 8.383-11.486 14.439-20.547 11.956-7.498-2.054-13.587-6.323-18.345-12.406-4.011-5.133-7.764-10.469-11.614-15.726-.42-.574-.739-1.223-1.105-1.837l-1.129.426c-.082 1.432-.148 2.867-.251 4.296-1.078 15.085-3.286 29.964-8.626 44.192-3.455 9.201-10.122 13.274-19.89 12.605-4.576-.313-8.809-4.108-10.373-8.804-4.97-14.921-4.04-29.691.807-44.409 1.891-5.744 3.82-11.474 5.858-17.586-6.074 2.964-11.805 6.26-17.905 8.586-4.942 1.885-10.274 3.299-15.522 3.674-7.58.54-12.931-5.19-13.044-13.653-.156-11.556 4.573-26.901 19.418-31.925 6.593-2.231 5.533-4.918 18.83-3.028-4.987-7.25-11.203-14.996-15.95-23.561-4.465-8.06-5.288-17.338-4.402-26.576C53.55 5.255 64.45-1.058 73.466 2.947c8.65 3.843 14.785 10.577 19.197 18.638 4.755 8.692 8.753 17.808 12.886 26.83.917 2.003 2.998 4.483.306 6.291-4.481-9.598-8.801-19.188-13.414-28.635-4.058-8.309-10.06-14.715-17.938-19.881C66.417.885 54.784 7.847 54.565 16.783c-.44 17.978 6.475 32.283 19.252 44.215 3.621 3.38 7.387 6.602 11.085 9.897l-.958 1.123c-4.074-1.43-8.062-3.254-12.25-4.156-3.204-.691-6.738-.71-9.985-.177-13.94 2.281-26.037 18.227-24.726 32.208.939 10.016 7.753 14.339 18.062 10.493 8.052-3.005 15.681-7.158 23.461-10.882 2.943-1.408 5.705-3.383 10.103-2.382z"/><path fill="#FDFDFD" stroke="#FDFDFD" stroke-miterlimit="10" stroke-width="3.45" d="M212.188 77.042c-2.226 2.387-3.576 4.428-5.443 5.722-4.626 3.211-9.552 5.983-14.239 9.109-8.877 5.918-18.358 5.15-27.583 1.8-5.899-2.142-11.261-5.818-16.762-8.984-1.081-.622-1.701-2.054-2.535-3.11.992-.689 1.941-1.459 2.988-2.05 3.445-1.94 6.979-3.726 10.383-5.735 13.493-7.954 27.341-6.395 41.284-1.578 3.687 1.273 7.247 2.922 11.91 4.828zm-4.019 1.519c-21.351-11.192-41.273-10.503-59.032 4.82 7.334 3.282 14.13 6.755 21.251 9.32 3.452 1.244 7.716 1.692 11.266.91 10.056-2.217 17.308-9.663 26.515-15.047zM51.06 61.123c-4.096-10.236-8.798-18.834-16.156-25.864-7.281-6.96-17.034-8.563-25.642-12.687 11.248.963 21.94 4.066 29.137 13.113 6.788 8.534 12.113 18.24 18.21 27.627-12.234 4.658-29.36.595-36.397-9.53-5.92-8.528-10.05-18.309-14.932-27.557-.227-.43-.029-1.08.688-2.06.86 1.4 1.744 2.785 2.574 4.201 5.148 8.767 9.684 17.978 15.59 26.197 6.63 9.228 16.735 7.415 26.928 6.557zM110.417 192.887c.303-11.734 8.557-24.643 16.849-27.298 1.35-.432 2.946-.093 4.428-.109-.09 1.295.105 2.692-.317 3.867-2.086 5.816-3.847 11.833-6.706 17.256-1.759 3.341-5.114 5.943-8.094 8.468-1.171.99-3.526 1.53-4.876 1.024-.963-.36-1.145-2.813-1.282-3.208zm17.724-24.249c-7.273.94-16.453 16.025-15.153 24.9 7.716-2.078 16.591-16.66 15.153-24.9ZM93.567 81.986c.309-8.93 4.492-15.574 13.065-15.445 5.665.088 9.798 4.603 9.829 11.292.035 7.383-5.414 13.376-12.329 13.563-5.934.16-10.425-3.84-10.565-9.407zm21.209-3.115-.759-.664c-.327-1.665-.47-3.394-1.021-4.98-1.35-3.875-5.828-5.929-9.304-3.97-1.627.916-2.537 3.041-3.935 4.46-3.217 3.267-4.518 9.918-2.326 12.483 2.463 2.883 8.687 3.224 12.477-.023 2.136-1.832 3.278-4.834 4.868-7.309z"/></svg>