<svg xmlns="http://www.w3.org/2000/svg" width="142" height="133" fill="none"><path fill="#B4B4B4" d="M96.172 97.618a.326.326 0 0 1 .46-.05c1.592 1.344 3.33 1.512 5.227.498 1.189-.636 1.653-1.864 2.181-3.207a1.18 1.18 0 0 1 .918-.741c3.223-.509 7.201-2.355 5.551-6.378a.29.29 0 0 1 .221-.395c2.623-.41 4.185-1.938 4.675-4.579.193-1.058-.396-2.493-.291-3.223a.53.53 0 0 1 .335-.41c1.841-.657 3.168-3.131 3.37-4.917.243-2.137-3.047-5.54-4.31-6.414a.96.96 0 0 1-.415-.75l-.119-2.742a.56.56 0 0 1 .324-.533c4.843-2.29 1.421-8.095-1.134-10.545a1.25 1.25 0 0 1-.373-.735l-.395-2.991a.56.56 0 0 1 .334-.595l2.118-.906a.713.713 0 0 1 .918.323l1.653 3.207a.5.5 0 0 0 .307.26l1.744.561a.62.62 0 0 0 .465-.039l1.291-.663a.9.9 0 0 1 .685-.058l2.101.674c.119.04.249.05.373.033l1.438-.187a.38.38 0 0 1 .368.163l.594.868c.058.085.13.163.216.22 2.587 1.864 5.036 1.922 7.364.178 1.139-.854 1.695-2.35 3.088-2.997 3.121-1.451 3.381-5.637 2.582-8.52a.66.66 0 0 1 .044-.481c1.355-2.76 1.457-5.383.296-7.868-.086-.177-.514-.623-1.285-1.325a.6.6 0 0 1-.2-.453q-.025-1.65-.027-1.767.04-5.539-5.2-6.447a.676.676 0 0 1-.561-.652q-.066-3.911-3.613-4.103-1.604-.088-2.823.39a.22.22 0 0 1-.301-.2c-.044-3.742-2.533-7.84-6.878-5.495a.683.683 0 0 1-.901-.249q-2.162-3.564-6.804-2.424a1.005 1.005 0 0 1-1.064-.385q-2.108-2.853-3.154-6.004c-2.403-7.23-9.41-5.167-10.55 1.274q-.605 3.426-2.803 6.51a.59.59 0 0 1-.707.194 19 19 0 0 0-2.474-.89c-2.447-.702-4.963 2.69-5.717 4.59-.33.831-.12 2.175.063 3.104a.714.714 0 0 1-.48.81c-2.17.713-5.157 1.507-5.557 3.881-.282 1.648-.324 3.122-.125 4.43a.58.58 0 0 1-.356.627q-3.834 1.565-3.65 5.568a2.24 2.24 0 0 1-1.058 2.01q-2.61 1.62-4.844 4.083a.535.535 0 0 1-.68.097c-2.759-1.745-5.075-1.626-6.95.345a.49.49 0 0 1-.707.006c-1.247-1.291-2.69-1.82-4.318-1.593a.76.76 0 0 1-.821-.514c-1.01-3.093-2.862-3.727-5.67-4.05a1.13 1.13 0 0 1-.935-.75c-.627-1.807-1.987-2.612-4.088-2.413a1.07 1.07 0 0 1-.863-.307c-.82-.804-1.094-2.09-2.056-2.78-.86-.628-1.897-.869-3.11-.736a.5.5 0 0 1-.523-.296c-1.598-3.398-5.717-4.866-9.233-3.558a.81.81 0 0 1-.874-.199c-.862-.923-1.642-1.327-2.952-1.35-2.906-.043-4.443-.085-6.76-.74a1.5 1.5 0 0 0-.527-.05c-2.165.158-3.484 1.302-5.275 2.273a2.34 2.34 0 0 1-1.194.282c-3.964-.141-6.9 1.009-8.067 5.026-.556 1.921-.567 3.732-.022 5.432q.317.988.4 1.49a.39.39 0 0 1-.436.454c-4.089-.54-4.136 3.92-3.035 6.532.707 1.67 2.106 2.635 4.202 2.911a.66.66 0 0 1 .56.529c.272 1.393.277 3.054 1.75 4.19q2.025 1.556 4.454 1.377a.413.413 0 0 1 .443.404c.022 1.96.663 3.279 1.932 3.953q2.032 1.079 3.644.636a8.5 8.5 0 0 1 1.326-.26.326.326 0 0 1 .363.296c.21 2.618 1.722 4.197 4.536 4.72.34.057 1.473-.26 3.4-.963a.42.42 0 0 1 .492.163q1.775 2.616 5.46 3.796a.6.6 0 0 0 .448-.039l2.062-1.064a.96.96 0 0 1 1.15.2 172 172 0 0 0 1.41 1.511c1.83 1.933 4.774 1.502 6.668-.074.163-.13.4-.103.52.063 1.02 1.371 2.095 2.262 3.978 2.425 1.553.13 2.516.193 2.878.188 1.96-.017 3.2-1.684 4.345-2.386a1.2 1.2 0 0 1 .498-.169c1.88-.188 2.203 1.206 2.77 2.577.249.6.404 1.092.475 1.485.034.199.011.409-.063.6-1.161 2.996-.476 5.36 2.062 7.104a.3.3 0 0 1-.028.51c-1.205.64-1.97 1.625-2.294 2.938a642 642 0 0 0-1.393 5.841.83.83 0 0 1-.606.617c-2.413.61-4.06 2.131-4.94 4.573a86 86 0 0 0-1.904 5.932.71.71 0 0 1-.827.504 359 359 0 0 1-7.76-1.684q-1.759-.406-2.549.146-1.773 1.242-2.709 3.733c-.896 2.374-1.205 4.865 1.156 6.436 2.543 1.694 4.627 2.023 7.38 2.521.556.102.88.68.686 1.205q-3.174 8.626-5.28 15.811c-1.16 3.953 2.284 6.464 5.858 6.389 2.828-.064 4.661-1.49 5.49-4.271a184 184 0 0 1 5.358-15.341.43.43 0 0 1 .55-.243q3.556 1.32 6.803 1.896 2.864.508 4.51-1.404c2.321-2.696 3.574-7.647-.993-9.132q-2.072-.672-7.28-2.137a.607.607 0 0 1-.403-.804q1.914-4.932 2.862-7.824c.912-2.776-.659-3.965-2.71-5.156a.52.52 0 0 1-.237-.611c.4-1.236.663-2.516.799-3.851.199-1.971.746-2.85 2.355-3.58a.62.62 0 0 1 .572.028q3.085 1.8 3.386 2.106c.987 1.042 1.933 1.711 2.823 2.01 1.659.55 2.673 1.026 3.046 1.42.277.297 1.275 1.447 2.986 3.457.238.276.951.583 2.131.923.17.05.296.183.346.351.169.6.07 1.637.26 2.118 1.219 3.04 3.796 4.011 6.723 3.948a.62.62 0 0 1 .545.306q1.377 2.406 4.35 2.867c2.317.363 3.418-.793 4.747-2.452zm-37.831 3.942q-.931 2.487 1.587 3.273 5.393 1.676 6.69 2.074 1.308.396 2.045.945c.404.302.59.827.454 1.314-.448 1.631-1.388 3.613-3.45 3.019a464 464 0 0 1-8.44-2.489.85.85 0 0 0-.868.233c-.318.34-.595.793-.821 1.36a159 159 0 0 0-5.092 14.746c-.39 1.333-1.128 4.158-2.873 4.205q-1.91.048-3.342-1.404a1.3 1.3 0 0 1-.301-1.333q1.012-2.897 6.026-18.293c.404-1.247-.68-1.819-1.824-2.123q-1.658-.432-4.913-.987c-1.41-.244-4.174-1.457-3.632-3.365.318-1.128.826-2.062 1.523-2.792a1.21 1.21 0 0 1 1.2-.335l9.07 2.458a.95.95 0 0 0 .956-.287c2.08-2.35 1.966-6.544 4.437-10.373 1.081-1.67 3.456-.6 4.17.777.712 1.376-1.339 6.015-2.597 9.38zm40.676-5.794c-1.46-.034-2.62-1.15-2.593-2.502.028-1.35 1.236-2.422 2.695-2.392 1.46.034 2.621 1.15 2.593 2.502-.027 1.35-1.235 2.422-2.695 2.392m7.276-4.686-.647.26a1.05 1.05 0 0 1-1.365-.59l-.957-2.407c-.216-.54.05-1.156.589-1.371l.641-.255c1.393-.555 2.884-.091 3.331 1.026l.119.301c.448 1.123-.318 2.483-1.711 3.036m4.415-6.516-.589.085a1.034 1.034 0 0 1-1.167-.873l-.594-4.186a1.033 1.033 0 0 1 .874-1.167l.588-.08c1.524-.215 2.911.719 3.105 2.085l.182 1.269c.194 1.365-.879 2.65-2.402 2.867zm4.066-12.784c1.38.802 1.991 2.325 1.366 3.395-.622 1.073-2.247 1.291-3.627.49-1.379-.802-1.99-2.326-1.366-3.396.622-1.072 2.248-1.29 3.627-.489m-2.366-15.565 1.518 3.979a.95.95 0 0 1-.55 1.224l-.05.017c-1.739.663-3.638-.08-4.244-1.664l-.005-.017c-.606-1.581.312-3.406 2.051-4.072l.055-.017a.95.95 0 0 1 1.225.545zm1.357-12.144c-.218 1.703-1.487 2.944-2.83 2.773-1.344-.175-2.262-1.692-2.043-3.398.218-1.703 1.487-2.944 2.83-2.773 1.344.174 2.262 1.692 2.043 3.398m23.291 3.046-.194.183a.946.946 0 0 1-1.324-.058l-1.858-2.035a.94.94 0 0 1 .059-1.319l.199-.182c1.111-1.015 2.706-1.087 3.552-.158l.044.05c.849.929.633 2.505-.481 3.52zm.221-12.399c.741.044 1.308.68 1.261 1.424l-.147 2.413a1.35 1.35 0 0 1-1.424 1.26l-.171-.01a1.34 1.34 0 0 1-1.261-1.424l.147-2.413a1.35 1.35 0 0 1 1.424-1.261zm-4.984-7.957c1.092-.718 2.684-.24 3.552 1.082.865 1.315.688 2.969-.406 3.69-1.092.719-2.685.24-3.553-1.08-.865-1.317-.688-2.97.407-3.691m-4.915-3.748c.016-1.004.923-1.797 2.023-1.783l.152.005a.575.575 0 0 1 .567.583l-.044 2.59a.576.576 0 0 1-.589.568h-.152c-1.1-.023-1.977-.85-1.96-1.847v-.119zm-6.762-6.857.909-.182a1.51 1.51 0 0 1 1.778 1.186l.337 1.684a1.514 1.514 0 0 1-1.186 1.777l-.909.183a1.51 1.51 0 0 1-1.778-1.186l-.337-1.684a1.51 1.51 0 0 1 1.186-1.777m-8.009-2.432c.716-.738 2.04-.614 2.95.276.912.89 1.07 2.21.348 2.944-.716.739-2.04.614-2.95-.276-.912-.89-1.069-2.209-.348-2.944M101.933 3.4l.783-.141a1.074 1.074 0 0 1 1.247.868l.685 3.84a1.07 1.07 0 0 1-.868 1.241l-.788.141c-1.49.266-2.927-.832-3.218-2.447l-.016-.096c-.288-1.62.685-3.144 2.175-3.406M89.101 14.6l1.172-.087c1.642-.118 3.066 1.043 3.18 2.59l.016.175c.113 1.556-1.128 2.911-2.77 3.03l-1.172.086a1.24 1.24 0 0 1-1.338-1.156l-.244-3.293a1.26 1.26 0 0 1 1.156-1.343zm-6.436 9.313 2.798-.647a1.253 1.253 0 0 1 1.507.934l.254 1.106c.426 1.82-.318 3.542-1.664 3.857l-.38.086c-1.343.312-2.77-.907-3.195-2.72l-.254-1.107c-.163-.674.26-1.349.934-1.506zm-5.393 12.543q.34-4.15 3.71-5.341a.594.594 0 0 1 .746.334c.523 1.275.697 2.488.514 3.644a3.2 3.2 0 0 1-1.885 2.43l-.987.426a1.5 1.5 0 0 1-2.095-1.496zM71.38 42.32l3.743-2.386c.52-.33 1.2-.177 1.529.34l.306.475c.913 1.438.432 3.376-1.075 4.335l-.157.097c-1.507.962-3.467.578-4.38-.86l-.306-.475c-.33-.52-.177-1.2.34-1.53zm-7.202.572c1.316-.54 2.737-.116 3.171.94.437 1.059-.282 2.355-1.595 2.894-1.316.54-2.737.117-3.17-.94-.437-1.058.281-2.355 1.594-2.894m-59.92.486c-1.299-.732-1.846-2.228-1.216-3.34.625-1.108 2.19-1.417 3.486-.688 1.3.733 1.847 2.229 1.217 3.34-.625 1.109-2.19 1.418-3.486.688m7.166 5.4c-.799.694-2.084.52-2.866-.387-.78-.907-.763-2.198.035-2.892.8-.694 2.085-.52 2.867.387.78.907.763 2.198-.036 2.892m6.986 5.534-.227.169c-1.047.766-2.474.605-3.179-.368l-.05-.069c-.707-.967-.43-2.369.611-3.138l.227-.168a.65.65 0 0 1 .901.14l1.853 2.539a.64.64 0 0 1-.136.895m5.946 5.098c-1.092.288-2.22-.431-2.526-1.6-.304-1.167.334-2.345 1.423-2.632 1.092-.288 2.22.431 2.527 1.6.304 1.167-.334 2.345-1.424 2.632m11.36 1.07q-1.386 2.22-3.4 1.438c-1.648-.642-2.619-1.69-2.917-3.155a.64.64 0 0 1 .475-.749 10 10 0 0 1 3.984-.135c1.086.174 2.612 1.387 1.858 2.601m6.474 3.583c-1.427.351-2.845-.415-3.168-1.72-.32-1.304.575-2.642 2.001-2.996 1.427-.351 2.845.414 3.168 1.72.321 1.304-.575 2.642-2.001 2.996m8.572 1.449c-1.78.14-3.292-.658-3.378-1.78-.091-1.123 1.28-2.149 3.058-2.29 1.78-.14 3.292.658 3.378 1.78.091 1.123-1.28 2.149-3.058 2.29m14.591 9.861c-1.647.177-3.104-.854-3.265-2.311-.157-1.457 1.045-2.781 2.693-2.958s3.105.854 3.265 2.31c.157 1.458-1.045 2.782-2.693 2.959M85.358 93.85c-.954.528-2.25.01-2.897-1.153s-.398-2.54.558-3.069c.954-.528 2.25-.01 2.897 1.153s.398 2.54-.558 3.069m3.433-3.818c-1.16-2.311-3.278-3.677-5.971-2.975-.395.102-1.183.509-2.355 1.208a.48.48 0 0 1-.528-.027c-1.841-1.388-2.942-2.345-3.31-2.856-1.194-1.67-2.813-2.707-4.86-3.121q-1.028-.205-1.44-1.032-.772-1.564-2.242-2.764a.578.578 0 0 1-.01-.89c2.175-1.875 3.076-4 2.706-6.392-.54-3.434-4.152-4.083-6.997-3.348a1.07 1.07 0 0 1-1.155-.442c-.51-.766-.75-1.927-1.452-2.657q-1.675-1.758-4.299-1.36a.4.4 0 0 1-.459-.41c.108-3.314-4.436-4.26-6.938-4.152-.979.044-1.57.47-2.463 1.117a.247.247 0 0 1-.362-.091c-.741-1.474-1.864-2.35-3.37-2.613q-2.992-.526-5.098.88a.305.305 0 0 1-.426-.086c-1.993-3.083-4.995-3.79-8.995-2.118a.6.6 0 0 1-.755-.249c-1.678-2.845-3.364-3.632-6.588-2.51a.517.517 0 0 1-.685-.4q-.672-3.573-5.443-4.731a.77.77 0 0 1-.59-.724c-.05-1.57-1.003-3.036-2.872-4.39-.384-.283-.787-.244-1.205-.368a.416.416 0 0 1-.287-.465l.171-1.053a1.4 1.4 0 0 0-.075-.713l-1.694-4.396a2.1 2.1 0 0 0-.702-.934l-1.576-1.178a1.21 1.21 0 0 1-.481-.924c-.075-2.18.403-4.896 2.792-5.479q1.157-.282 3.682-.017c1.933.2 3.763-2.452 5.388-2.78.945-.189 1.954.027 3.024.635 1.319.75 1.767.68 2.986.238 1.462-.528 2.505.13 3.608 1.037a2.39 2.39 0 0 0 2.128.459c1.792-.481 3.801-.93 5.253.356.627.55.918 1.637 1.376 2.375a1.65 1.65 0 0 0 1.546.777l1.324-.108a2.1 2.1 0 0 1 1.916.929c.503.755.533 1.988 1.23 2.565.849.697 1.905.869 3.179.52a.61.61 0 0 1 .708.296 82 82 0 0 0 1.263 2.198c.545.934 2.828.827 4.05 1.009.26.039.481.199.594.431.183.373.93 1.394 2.237 3.055 1.307 1.67 2.25 1.048 4.017 1.236.497.055.89.448.945.945.431 3.893 2.565 6.826 6.895 5.836 1.614-.367 2.73-1.025 3.364-1.97a.3.3 0 0 1 .426-.07c2.294 1.778 5.76 1.615 7.818-.431 1.523-1.518 2.175-3.96 2.288-6.151a.58.58 0 0 1 .346-.504 88 88 0 0 0 1.432-.622c2.82-1.269 3.818-3.558 3.002-6.878a.31.31 0 0 1 .249-.379c4.53-.82 5.14-4.686 4.384-8.714a.365.365 0 0 1 .38-.43q1.788.08 3.698-.855c2.311-1.128 2.601-4.902 2.402-7.105a1.26 1.26 0 0 1 .163-.724l2.328-4.006a.3.3 0 0 1 .492-.045c2.38 2.862 5.568 1.67 7.398-.884a.217.217 0 0 1 .367.016q1.256 2.2 2.934 3.473a.63.63 0 0 1 .248.616c-.572 3.575 1.388 7.807 5.858 6.13a20 20 0 0 1 1.139-.404.374.374 0 0 1 .459.27c.849 3.274 3.047 4.239 6.604 2.9a.35.35 0 0 1 .454.222c.707 2.245 1.371 4.304 3.989 4.617a.43.43 0 0 1 .368.329c.633 2.78-.216 5.902 3.698 6.63a.31.31 0 0 1 .255.27l.771 5.83a.88.88 0 0 1-.42.88c-1.67.998-2.408 2.554-2.22 4.66.119 1.303 1.545 2.35 2.543 3.197.318.27.373.74.13 1.075-.868 1.2-1.874 1.803-3.002 1.814a.9.9 0 0 1-.652-.277l-2.137-2.22a1.33 1.33 0 0 0-1.117-.39l-1.501.2a.9.9 0 0 1-.404-.04l-2.225-.712a.7.7 0 0 0-.346-.034l-2.25.302a.8.8 0 0 1-.821-.443c-.633-1.302-1.44-2.36-2.436-3.184a.61.61 0 0 1-.215-.562q.68-4.672-3.536-7.176c-2.3-1.36-5.382 1.982-6.278 3.63-.141.26-.227.544-.265.837-.459 3.851-.415 5.222 3.284 7.268a.62.62 0 0 1 .318.47l.425 3.196a.544.544 0 0 1-.345.578c-2.148.826-3.072 1.545-3.257 4.011-.141 1.82.011 3.387.454 4.686.503 1.48 2.43 1.778 3.964 1.944a.52.52 0 0 1 .459.48l.271 3.852a.44.44 0 0 1-.291.437q-.243.086-.973.287c-2.695.75-2.684 3.624-1.658 5.728a.565.565 0 0 1-.266.755c-3.154 1.501-2.894 4.396-2.709 7.32a.6.6 0 0 1-.437.617c-2.488.691-3.947 1.22-4.542 4a.456.456 0 0 1-.652.313c-1.902-.94-4.498.605-5.568 2.085a.45.45 0 0 1-.633.102q-2.372-1.694-4.719-.028a.416.416 0 0 1-.61-.152zm.888 6.146c-.951-1.167-.904-2.776.108-3.6 1.006-.824 2.6-.547 3.549.617.951 1.166.904 2.775-.108 3.6-1.006.823-2.601.546-3.55-.617"/></svg>