<svg xmlns="http://www.w3.org/2000/svg" width="120" height="189" fill="none"><path fill="#FDFDFD" d="M60.3 167.596c4.711.451 9.203 1.221 12.64 2.163 1.786.525 3.652 1.381 5.543 2.543.425.264.866.555 1.35.894.094.055.183.123.277.193.183.138.388.291.634.354.172 2.144.313 4.036.425 5.774l.049.7c.082 1.218.168 2.473.283 3.705.101 1.132.206 2.305.597 3.369.284.793.821 1.393 1.44 1.612q.26.09.519.09c.29 0 .582-.086.858-.257 2.082-1.292 2.846-6.906 2.276-16.687 1.608-1.285 3.387-2.226 5.11-3.135.71-.376 1.445-.763 2.153-1.169 2.705-1.53 5.571-3.187 8.283-5.145 2.645-1.799 4.831-4.055 6.495-6.694 2.653-3.899 4.231-8.724 5.757-13.393l.033-.104c.597-1.779 1.183-3.6 1.75-5.361.433-1.34.862-2.681 1.302-4.021.239-.763.504-1.53.761-2.275.369-1.068.754-2.174 1.063-3.295.232-.77.075-1.556-.384-1.958-.31-.272-.724-.324-1.13-.145-.329.134-.553.439-.765.737l-.123.167a34 34 0 0 0-1.108 1.687 899 899 0 0 1-3.287 5.272c-1 1.597-2 3.194-2.992 4.799-1.418 2.29-2.802 4.33-4.943 6.85-1.459 1.758-3.086 3.314-4.664 4.822-2.835 2.71-4.663 4.326-7.338 6.668a140 140 0 0 1-1.761 1.556c-1.698 1.486-3.451 3.02-5.04 4.781a278 278 0 0 0-1.9-13.735c.079-.1.154-.212.228-.32.138-.201.269-.391.425-.555 1.019-1.202 1.109-1.266 2.205-2.025l.019-.015c1.656-.953 2.078-1.132 3.48-1.716.33-.138.71-.294 1.169-.492.421-.179.846-.365 1.268-.547 1.313-.57 2.667-1.158 4.025-1.657l.071-.03c2.869-1.169 5.835-2.375 8.436-4.516 1.373-1.031 2.425-2.152 3.212-3.414 1.473-2.141 2.708-4.676 3.663-7.535l.071-.209c.631-1.809 1.28-3.682 1.567-5.652.176-.841-.037-1.742-.522-2.193a1.09 1.09 0 0 0-1.067-.256c-.534.163-.937.61-1.328 1.042-.09.101-.179.197-.276.298-.426.48-.84.99-1.243 1.482-.406.502-.832 1.02-1.261 1.5-1.951 2.159-3.522 3.444-5.999 4.918-2.596 1.542-5.622 2.688-8.823 3.906-2.216.841-4.507 1.712-6.697 2.74-1.53.756-2.943 1.828-4.003 2.681-.287.231-.582.491-.903.782a152 152 0 0 0-2.208-8.463c.253-.13.556-.287.85-.458 2.757-1.515 5.104-3.876 6.79-6.832 1.108-2.152 1.974-4.617 2.578-7.327a65 65 0 0 0 .974-6.527l.108-.026q.514-.121 1.022-.253c2.355-.607 4.87-1.314 7.294-2.353 1.481-.633 2.962-1.72 4.399-3.235l.029-.034c1.008-1.24 3.362-4.147 1.485-5.815-1.611-1.043-3.451-.253-5.077.443-.545.234-1.064.454-1.567.614-2.313.778-3.638.879-5.645 1.031l-.418.034c-.488.03-.97.048-1.455.067q-.022-1.491-.037-2.982c-.034-2.904-.067-5.909-.15-8.869a7 7 0 0 1-.014-.495c-.008-.502-.019-1.02-.213-1.474-.153-.402-.444-.682-.813-.793a1.25 1.25 0 0 0-1.09.204c-.447.35-.723.92-.936 1.434-1.231 3.172-1.66 6.709-2.078 10.127q-.094.791-.194 1.578-.096.833-.209 1.71l-.13.018c-4.052.86-6.94 2.022-10.294 4.14a41 41 0 0 0-3.447 2.539q-.33.275-.649.555a134 134 0 0 0-3.19-6.21c3.168-2.227 5.294-4.36 6.88-6.903 2.566-3.928 4.126-8.746 5.197-12.498a67 67 0 0 0 2.052-9.908c.455-3.108.768-5.726.84-8.391v-.041c-.012-.559-.023-1.196-.296-1.68-.183-.383-.507-.625-.888-.666-.395-.037-.79.145-1.063.51-.414.648-.664 1.43-.906 2.19-.09.282-.18.565-.28.848l-.09.276c-.608 1.884-1.235 3.834-1.944 5.692-.753 1.977-1.593 3.794-2.5 5.399-2.678 4.605-4.998 7.863-8.005 11.244-1.343 1.463-2.88 3.216-4.209 5.23-1.2-1.839-2.5-3.704-3.861-5.554a4 4 0 0 1 .123-.172c2.996-4.799 5.052-11.11 6.107-18.753.907-6.013 1.112-12.592.616-19.557-.108-1.944-.224-3.887-.34-5.838a18 18 0 0 1-.044-.775c-.034-.722-.071-1.47-.291-2.155-.172-.626-.62-1.121-1.138-1.255-.38-.1-.754.007-1.041.298-.616.55-.884 1.463-1.123 2.275-.825 3.418-1.183 7.003-1.533 10.473-.16 1.6-.325 3.254-.538 4.87-.66 5.51-1.734 10.677-3.193 15.354-.657 1.984-1.213 3.272-2.134 5.406l-.246.573c-.217.503-.444 1.001-.668 1.5l-.194.429a567 567 0 0 0-4.414-5.47c.157-.398.303-.796.452-1.202.85-2.383 1.47-5.053 2.003-8.657.541-3.544.795-7.062.758-10.461-.068-3.452-.22-7.521-.818-11.527-.503-3.08-1.156-6.162-1.786-9.144a365 365 0 0 1-1.075-5.209c-.25-1.15-.82-1.854-1.53-1.843-.537.011-1.194.525-1.436 1.929-.31 1.698-.32 3.395-.306 5.276.019 1.95.116 3.931.205 5.845q.062 1.317.12 2.636c.287 5.681.145 11.173-.43 16.322-.26 2.45-.57 4.978-.913 7.517l-.015.111a91 91 0 0 0-.265 2.052c0 .04-.008.078-.011.12-.94-1.174-1.91-2.399-2.888-3.653.228-.96.4-1.82.526-2.625.373-2.398.56-4.836.548-7.249-.16-5.157-1.06-10.25-1.932-15.172q-.287-1.619-.563-3.231a859 859 0 0 1-2.037-11.81c-.094-.577-.19-1.158-.288-1.724-.056-.45-.265-1.53-.94-1.861-.205-.1-.54-.168-.97.082-.261.141-.522.51-.634.89l-.086.245c-.12.436-.172.897-.224 1.344l-.033.283a80 80 0 0 0-.295 4.527c-.302 7.696.418 15.954 2.264 25.98l.303 1.687c.216 1.217.444 2.468.649 3.715a163 163 0 0 1-2.727-3.968 30 30 0 0 0-.332-3.124c-.78-5.298-2.306-10.406-3.84-15.135-1.88-5.796-4.525-11.787-8.319-18.853a538 538 0 0 0-2.824-5.302 10 10 0 0 1-.396-.719c-.522-1.005-1.171-2.252-2.163-1.984a1.24 1.24 0 0 0-.735.63c-.344.647-.258 1.53-.082 2.07.235.971.526 1.928.813 2.851a752 752 0 0 0 4.182 13.02l.478 1.407c.966 2.86 1.962 5.797 2.988 8.694-1.929-3.265-3.298-5.697-3.858-6.776a226 226 0 0 1-1.839-3.616l-.31-.621a4 4 0 0 0-.216-.436c-2.675-5.365-6.309-12.316-10.7-18.504a156 156 0 0 1-1.653-2.32C4.472 3.442 3.334 1.826 2.107.329A1.17 1.17 0 0 0 1.074.023C.697.1.376.369.197.763c-.291.578-.205 1.274-.086 1.88.392 1.702.977 3.337 1.54 4.911l.232.645c1 2.725 1.936 5.097 2.854 7.252 1.88 4.338 4.171 9.375 6.92 13.872 2.93 4.695 6.395 8.858 9.746 12.886q.648.78 1.298 1.56l-.034-.022-.716-.473a389 389 0 0 0-2.056-1.348c-1.671-1.09-3.398-2.215-5.066-3.395a178 178 0 0 1-3.302-2.387c-.183-.126-.365-.268-.548-.406-.59-.45-1.198-.916-1.955-1.03-.575.003-1.026.256-1.299.729-.56.964-.29 2.759.31 3.82 2.727 5.324 7.357 8.388 11.868 11.072l2.04 1.166c2.959 1.686 6.014 3.429 8.346 4.948.194.123.388.253.578.38l.172.115a205 205 0 0 0 2.134 3.641 12 12 0 0 0-.616-.276c-3.57-1.247-7.323-1.667-10.953-2.073l-.243-.026c-2.413-.231-5.223-.518-7.995-1.032-1.365-.264-1.496-.297-1.984-.42l-.358-.09c-.426-.104-.907-.223-1.366.067-.567.34-.82 1.281-.537 2.03.302.666.81 1.053 1.302 1.425.127.097.25.19.377.294a19.4 19.4 0 0 0 3.495 2.108c4.899 2.368 10.503 3.83 17.64 4.605 1.376.145 2.816.205 4.301.179.205-.022.418-.019.642-.015.19.004.384.007.574-.007.638.942 1.25 1.82 1.862 2.673-3.01-.436-6.093-.413-9.08-.391l-.792.007c-2.03.034-4.13.071-6.196.03q-.207-.001-.46-.007c-1-.026-2.369-.06-3.11.73q-.585.62-.478 1.76c.276 1.802 3.04 2.997 4.525 3.638l.358.156c4.679 1.761 9.991 2.286 16.24 1.605a62 62 0 0 0 3.645-.484l.698-.123h.022l.769.96q1.333 1.671 2.66 3.348a15.8 15.8 0 0 0-2.888-.432c-2.033-.067-4.092.104-6.088.264-1.814.15-3.687.302-5.533.276-1.85 0-3.813-.097-6.014-.302-.164-.004-.336-.022-.511-.04-.59-.068-1.258-.139-1.81.338-.817.678-.738 2.208-.127 3.023 1.564 1.936 3.642 2.964 5.473 3.872 5.31 2.547 11.185 2.03 16.744 1.091.575-.097 1.146-.209 1.72-.32.933-.179 1.895-.365 2.847-.492.126-.018.388-.056.51-.07q.107-.018.213-.03l.13-.011c.229-.019.478-.041.714-.164a133 133 0 0 1 3.197 4.53 114 114 0 0 1 4.152 7.127c-1.709-1.21-3.47-2.059-5.253-2.524-2.69-.66-5.465-.827-8.151-.99-1.608-.097-3.269-.202-4.892-.406-2.059-.235-3.865-.514-5.521-.857-.265-.052-.534-.111-.799-.167q-.4-.09-.802-.168c-.574-.123-1.104.041-1.432.458-.358.573-.463 1.128-.314 1.657.332 1.165 1.806 1.899 2.88 2.435.262.13.485.242.668.346a67 67 0 0 0 7.406 3.187c4.234 1.523 8.711 2.167 12.92 2.64 1.45.171 3.86.499 4.551.711.545.145 1.09.331 1.675.569.067.026.138.06.21.09q.143.067.286.119c.097.119.198.242.291.368q.67 1.412 1.37 2.908c1.85 4.219 3.615 8.887 5.249 13.887-.097-.111-.19-.223-.288-.331-3.618-4.136-8.05-7.349-13.173-9.557-3.667-1.568-7.547-2.249-11.3-2.904l-.16-.03c-1.504-.264-3.056-.54-4.582-.83-.108-.019-.224-.045-.343-.067-.993-.205-2.489-.51-3.019 1.146-.358 1.706.952 2.938 1.907 3.835.15.138.29.272.429.41 2.794 2.375 6.081 3.377 9.26 4.345 1.421.432 2.887.878 4.286 1.444 5.25 2.044 9.928 4.621 14.722 8.113 2.07 1.564 3.57 2.915 4.857 4.378l.456.503c.018.026.037.048.063.078.28 1.046.545 2.089.795 3.101.414 1.657.805 3.336 1.175 4.993-3.63-4.542-8.118-7.967-13.01-9.922-3.89-1.5-7.998-2.1-11.971-2.681l-.056-.007c-.948-.149-2.004-.302-3.086-.458-2.716-.391-5.521-.797-7.208-1.206a36 36 0 0 1-3.566-1.084c-.717-.29-1.754-.629-2.481-.193-.422.253-.672.722-.746 1.415-.041 1.288.69 2.256 1.324 2.952a15.6 15.6 0 0 0 2.093 2.007c3.701 3.101 8.036 4.505 12.226 5.864.966.312 1.962.636 2.932.975 1.336.462 2.705.886 4.026 1.296 2.44.755 4.962 1.541 7.38 2.584 2.82 1.15 5.342 2.248 7.67 4.024 2.343 1.817 4.503 3.898 6.693 6.054a200 200 0 0 1 1.44 10.734c-2.63-2.666-5.854-4.885-9.588-6.598-5.425-2.334-11.252-2.49-16.89-2.643l-.503-.015c-2.418-.071-5.604-.19-8.805-.473a54 54 0 0 1-2.343-.249 7 7 0 0 1-.41-.06c-.474-.071-.963-.145-1.466-.048-.433.097-.776.376-.996.808-.325.648-.321 1.575.01 2.319 1.25 2.472 3.325 4.472 6.347 6.11 4.548 2.427 9.55 2.841 14.39 3.243l.593.048zm9.95-40.459c-1.575-1.173-3.35-2.338-5.489-3.596-3.521-2.093-6.737-3.668-9.826-4.811-1.455-.581-2.944-1.031-4.388-1.47-3.022-.916-5.89-1.787-8.245-3.716.597.108 1.19.223 1.772.335.985.19 2 .387 3.004.547l.302.056c3.514.629 6.055 1.084 9.621 2.565 5.268 2.275 10.025 5.909 13.252 10.09zm-10.174-24.379c-.478-.067-.96-.13-1.437-.193l-.466-.056c-2.436-.283-4.958-.577-7.417-1.073-2.145-.372-4.917-1.232-7.913-2.45.82.09 1.679.168 2.593.243.444.03.918.063 1.403.093 2.831.186 6.36.42 8.174.923 1.817.51 3.48 1.337 5.063 2.513M14.124 28.393c-2.15-3.392-3.32-5.7-5.138-9.587A141 141 0 0 1 4.32 7.68c2.642 3.723 4.634 6.802 6.369 9.844 3.272 5.752 6.33 12.014 9.573 18.645l.586 1.195c-2.545-3.123-4.709-5.927-6.72-8.972zm17.255 20.585c-1.46-3.44-3.09-7.305-4.489-11.244a696 696 0 0 1-6.006-17.73c1.683 3.24 3.152 6.26 4.585 9.688 1.925 4.546 3.813 10.563 4.828 14.505a85 85 0 0 1 1.081 4.78m-3.06 2.937a230 230 0 0 0-5.801-3.35c-4.447-2.536-8.353-4.941-11.095-8.69a24 24 0 0 1-.653-.92 188 188 0 0 0 3.264 2.36c1.481 1.073 3.108 2.112 4.824 3.21 3.459 2.212 7.036 4.501 9.279 7.04l.179.347zm5.832 12.406c-2.817-.112-5.794-.525-9.305-1.292-.567-.12-4.242-1.028-5.678-1.579a39 39 0 0 1-2.067-.808c1.168.145 2.354.272 3.503.391 2.343.246 4.764.503 7.122.95h.004c2.626.439 4.686 1.184 6.42 2.334zM54.92 80.159q.049-.096.093-.198c.022-.052.045-.1.07-.156q.425-.943.844-1.891c1.026-2.368 2.085-4.814 2.895-7.39 1.235-4.055 2.182-8.49 2.899-13.553.328-2.27.552-4.512.768-6.679.206-2.066.403-4.043.68-5.957q.021.346.048.681l.1 1.828c.094 1.69.165 2.912.243 5.094.224 13.101-2.097 24.434-6.368 31.17-.724-.957-1.485-1.951-2.269-2.953zm9.282 13.05c.067-.101.13-.21.205-.325.164-.268.35-.57.604-.89.978-1.396 2.097-2.647 3.179-3.856.761-.85 1.544-1.728 2.28-2.655 2.611-3.347 4.782-6.598 6.64-9.93 1.108-1.988 1.985-4.132 2.709-6.14-.478 3.411-1.075 6.52-2.201 10.355-1.105 3.656-1.877 6.076-3.753 9.55-1.706 3.135-3.836 5.402-7.328 7.785a128 128 0 0 0-2.335-3.895m18.65 47.086c.097-.082.179-.179.261-.272.07-.078.138-.16.228-.239.276-.286.757-.688 1.656-1.388 2.384-1.903 4.641-2.744 7.253-3.72.944-.35 1.917-.714 2.954-1.15 4.675-1.821 9.973-3.88 14.136-8.314.635-.644 1.235-1.359 1.813-2.066-1.309 4.27-2.76 7.241-4.764 9.807-.738.889-1.544 1.478-2.66 2.289-.224.164-.462.335-.701.514-1.742 1.132-2.809 1.579-4.421 2.256q-.565.239-1.224.521c-1.727.645-3.462 1.385-5.14 2.1q-1.198.51-2.4 1.013c-1.425.622-2.895 1.266-4.26 2.256-.571.428-1.138.957-1.72 1.612a128 128 0 0 0-.41-2.226c-.18-.923-.377-1.906-.605-2.993zM45.884 74.049l-.026-.015c-1.575-1.966-3.112-3.898-4.608-5.908a114 114 0 0 1-2.988-4.345q.605.782 1.205 1.538c2.216 2.837 4.522 5.666 6.752 8.403 5.917 7.263 12.036 14.77 17.155 23.232 2.757 4.575 4.764 8.466 7.409 14.364 2.283 5.1 3.992 9.441 5.376 13.671 2.369 7.055 3.984 13.582 5.585 22.532 4.167 23.34 3.223 34.584 2.369 37.652-.366-1.728-.653-5.827-.978-10.499-.358-5.146-.764-10.976-1.399-15.645a194 194 0 0 0-.794-5.313 1.65 1.65 0 0 0-.108-.662 211 211 0 0 0-3.313-15.984c-2.228-9.032-4.981-17.614-8.182-25.51-1.88-4.558-4.052-8.828-6.115-12.76-1.164-2.215-2.723-5.108-4.499-7.833-2.544-3.838-5.372-7.442-8.103-10.931q-.706-.9-1.407-1.798a490 490 0 0 0-2.996-3.76 1.2 1.2 0 0 0-.331-.429zm2.507 88.461c-2.47-1.024-3.675-1.63-5.652-3.548l-.03-.03a11 11 0 0 1-.754-.822c3.216.357 6.462.588 9.648.685.679.026 1.37.044 2.067.067 4.44.137 9.028.279 12.453 1.28 5.16 1.385 10.122 4.561 13.614 8.712.164.239.384.399.623.458q.012.136.026.276l.052.592a34 34 0 0 0-2.085-1.277c-2.84-1.668-5.962-2.416-8.637-2.93a90 90 0 0 0-10.013-1.422l-.575-.049c-3.996-.335-7.156-.599-10.737-1.988zm37.035-60.917c.653-.142 1.32-.261 2.044-.365l.37-.052a26 26 0 0 1 4.178-.198c.94-.044 1.735-.1 2.425-.175 1.321-.13 3.052-.357 4.73-.934.583-.19 1.161-.432 1.721-.666.552-.231 1.123-.47 1.686-.652.325-.1.56-.16.731-.19-.134.22-.257.376-.563.77l-.116.15c-.962 1.079-1.41 1.426-2.753 2.327a9 9 0 0 1-.556.312l-.074.041c-1.996.864-4.168 1.579-7.04 2.316h-.012c-2.925.961-5.808 1.504-8.599 1.62-1.19.178-2.753.454-4.302 1.009a15.9 15.9 0 0 0-4.021 2.371l-.22.198c-.534.472-1.082.96-1.594 1.504-.01-.026-.026-.056-.037-.082-.32-.749-.671-1.538-1.134-2.554l.437-.361c.664-.555 1.488-1.248 2.19-1.717 3.383-2.423 6.267-3.741 10.203-4.646l-.011.045.317-.068zm-10.084 11.273c.87-1.016 3.25-2.58 4.141-2.915 1.38-.584 2.794-.849 4.141-1.05-.492 1.869-1.018 3.466-1.56 4.751-1.708 3.667-2.45 4.736-4.63 7.23a130 130 0 0 0-2.808-7.245q.335-.385.716-.771m13.4-4.765c-.548 4.806-1.316 8.544-3.353 12.197-.31.558-1.776 2.449-2.918 3.481h-.003c-.437.368-.896.715-1.4 1.05l-.007.007c-.522.384-1.358.845-1.921 1.139q-.337-1.076-.69-2.148l.078-.089c.448-.48.87-.961 1.257-1.426 2.899-3.329 5.007-7.841 6.45-13.791a58 58 0 0 0 2.508-.417zm-.704-9.896q.138-1.09.264-2.16c.194-1.612.381-3.164.62-4.627q.02 1.736.04 3.47c.012 1.083.023 2.17.038 3.253-.32.015-.641.038-.959.06zM47.876 45.352c0-2.134-.123-4.576-.242-6.937-.071-1.455-.146-2.945-.194-4.382.25 1.225.503 2.457.764 3.679.69 3.242 1.116 6.712 1.291 10.61.12 1.453.217 6.851-.093 9.595-.452 5-1.261 9.166-2.414 12.394l-1.518-1.873q.072-.06.134-.134c.347-.368.392-.912.429-1.392v-.048c.086-.782.194-1.583.298-2.372.967-7.107 1.597-13.087 1.541-19.148zm-10.495-.432c-.701-5.064-1.171-9.647-1.171-15.008l.093.525q.421 2.473.866 4.948c.84 4.702 1.705 9.564 2.197 14.438.209 2.17.213 4.553.011 6.847-.239-1.43-.496-2.86-.742-4.252-.437-2.45-.892-4.985-1.254-7.498m5.209 29.338c-3.847.592-12.499 1.422-18.95-1.706 1.213.012 2.557-.007 3.963-.026 5.04-.067 10.748-.141 14.367.965q.008-.001.015.004l.28.35q.161.204.328.409zm8.562 11.314c-.944.15-1.896.328-2.817.5-1.504.282-3.056.572-4.596.733-5.787.778-10.726-.142-14.685-2.733 1.754.13 3.567.264 5.358.19 1.615.007 3.25-.134 4.835-.268 2.35-.201 4.779-.406 7.152-.138 1.294.149 3.499.96 4.749 1.713zm26.436 64.12a99 99 0 0 0-1.485-1.374c-2.876-2.755-6.335-4.937-10.275-6.482-2.563-1.11-5.33-2.089-8.704-3.083-1.443-.45-2.906-.938-4.32-1.411-.955-.32-1.914-.64-2.869-.949l-.668-.224c-2.25-.748-4.573-1.519-6.752-2.677-1.067-.521-2.574-1.556-3.824-2.61 3.648 1.058 7.383 1.564 10.998 2.052 4.69.633 9.118 1.229 13.297 2.934 5.987 2.464 11.673 7.803 14.486 13.589q.05.123.116.235m9.122 16.456c.246-.149.44-.395.63-.633l.09-.116c.869-1.027 1.816-1.943 2.626-2.703 1.41-1.314 3.007-2.71 4.693-4.192 4.153-3.637 8.857-7.759 12.51-12.13 2.331-2.773 4.331-6.024 6.263-9.166l.101-.16c.414-.659.873-1.396 1.351-2.163q-.297.922-.601 1.85c-1.373 4.248-2.791 8.638-4.037 11.821-1.6 3.984-4.249 7.733-6.032 9.367-3.526 3.042-7.436 5.246-11.219 7.383-.664.376-1.346.734-2.01 1.084-1.377.722-2.799 1.467-4.127 2.409-.074-.961-.156-1.832-.238-2.651"/></svg>