<svg xmlns="http://www.w3.org/2000/svg" width="834" height="72" fill="none"><path fill="#A01818" d="M70.138 58.86c.47-.129 2.492-.275 3.326-.42-.873.76-5.057.892-3.326.42m85.09-55.512c-.726.212-1.474.427-2.208.642 2.147-.07 4.973-.4 6.96-.395.323.001-.477.512.284.477.762-.035.57-.64 1.675-.785 1.251-.165 6.984-.122 8.946-.251 7.384-.506 14.833-1.247 22.26-1.3-7.657.79.115.91 2.22.633.471-.06.355-1.225 8.05-1.194 4.86.036.433 1.795 8.527.76-6.269-.982-.127-1.076 4.775-1.211.848-.029 7.692.025 10.692-.052 1.026-.03 2.607-.645 3.975-.671.936-.018 1.646.306 3.046.282 6.51-.107 12.944-.113 19.451.067-3.839 1.504 2.987.688 3.279.77 1.544.437-5.467.474-2.689.768a1315 1315 0 0 1 11.626.036c-3.183-.253 4.231-1.216 5.584-.673-.543-1.402 17.625 1.683 20.4 1.364.571-.072-3.149-.9 5.581-.24.951.073.573.47 1.075.452.17-.006.841-.402 1.741-.598.68-.152 1.492-.186 2.311.166.693.298-3.844.94 6.04 1.06-3.868-1.532 13.71-.031 16.883.507l-1.901-.645c3.156.66 3.766.245 4.485.311 2.88.267 6.84.963 9.526 1.089 3.141.148 3.214-.677 6.867-.12-.849-.237-1.723-.476-2.582-.714 2.557.207 5.048.413 7.592.626-5.942.706 1.26.135 1.74.145.752.01-.352.386.899.413.13 0-.03-.435 1.898-.352 4.037.177 3.369.665 5.066.775.156.009-.362-.41 2.558-.296 9.314.368-.073.286-.425.315-.477.037 2.612 1.842-5.249.736 2.641.36 2.867 1.083 3.159 1.12.259.032 4.845.253 5.103.248 2.276-.08.322-.7.768-.754.378-.044 5.832.974 7.238-.374 2.553 1.523-1.616 1.096-6.046.987-.656.228 4.168.84 4.428.858 6.284.452 2.889-.894 4.309-1.494.744-.314 3.239.62.957-.534 5.692.313 2.204.63 2.564.74.545.164 2.561.03 2.809.087.362.083-.939.328.499.555.242.035 2.609-.377-.371-.88 3.998.381 3.699-.141 4.982.965 2.901-1.693 1.917 1.274 2.997 1.463 2.865.5 2.136-1.057 2.295-1.118 1.078-.388 9.032.736 11.018.675-.864 1.014-6.321-.476-7.584-.362-4.194.377 5.799.985 2.686 2.105 1.289-.274 2.569-.549 3.857-.823 2.24 1.047-1.065 1.172 5.176 1.337 1.077-.67-4.406-.223-3.273-.73.667-.296 4.277-.09 4.358-.268.09-.214-3.183-.206-2.645-.505 1.177-.644 12.986.978 3.922.67 2.516.185 3.71 1.738 5.927 1.457 1.435-.182-6.348-2.811 5.534-1.507.199.705-4.781-.173-4.913-.13-.189.061.596 1.679.747 1.768.534.293 12.767.426 15.276 1.408-.951-.975 9.202.57 10.328.385.301-.052-.76-.687-.439-.72 1.998-.188 7.258 1.213 9.726 1.434 2.767.248 2.454-.252 2.609-.24 1.217.124.217.367.963.425 1.123.088 8.845.764 9.239.727.115-.012-1.102-.651.588-.621.293.005.056.631 5.065.746 6.035.138-4.109-1.123-1.56-1.598 3.783 1.257 3.734.3 4.772.457.36.055 2.99 1.07 5.922 1.247l-6.331-.1c2.052.303 6.076.44 7.766.732.823.142.088.75 1.891.871.383.023 2.025-1.47-2.751-1.113-.333-.604 1.885-.056 2.939-.138.159-.013.855-.926 2.139-.226.308.17-3.386 2.708 5.742 1.367.293-.044-.684-.471-.396-.522.197-.035 2.475.282 2.732.251.262-.034-.814-.5-.5-.553 1.608-.268 3.566 1.41.318 1.046l3.223.811c-1.079-1.233 1.734-.193 3.241-.115 9.665.497 3.26-.732 4.948-.993 2.713-.42.53 1.39 4.533 1.093.37-.029-4.352-1.211 4.955-.057q-2.072-.102-4.143-.206c.714 1.168 4.984.29 5.307.297 3.679.113 1.172.335 6.657.154.49-.016 1.53.333 2.58.27 4.35-.256-5.663-.745-5.904-1.216-.114-.226 10.633.593 10.993.72 1.534.573-4.886-.138-3.699.523.435.241 15.779.879 18.836 1.297 3.523.494 5.026 2.1 5.157.412.894 1.723 1.85.648 2.303.689 1.697.156 2.866.264 3.814.344 2.115.178 3.13.215 6.374.304 1.038.028 1.879.584 2.254.521.218-.038-.15-.6.909-.704 1.473-.136 10.17.926 10.809 1.258.634.336-3.704-.082-2.953.452 3.153.231 6.147.279 9.325.505 1.315.096.62.401 1.188.44.244.017 4.791-.04 4.604-.177-.422-.31-14.456-.893-10.729-1.288.718-.075 3.18.854 2.836-.128 12.51.915 25.032 1.764 37.552 2.558-7.257.387-15.296-.647-22.853-.97-1.028-.045-4.517-.321-4.119.186 6.386.464 14.4.61 20.528 1.218.196.02-.546.422.186.526 1.376.195 5.914-.3 6.654-.083.128.048-2.453.505-1.693.907 1.955 1.03 2.539-1.025 4.266-.922 1.338.082 10.215 1.479 12.462.936 2.394-.576-6.564-.675-5.884-1.201 6.097-.29 12.172.556 17.904.715.101.002-.758-.466.522-.476 2.226-.018 2.779.62 3.85.76 1.162.15 5.304.22 5.838.464.069.032-.787.61-.914.623-1.804.183-2.416-.633-2.579-.65-.615-.053-1.234.227-1.797.187-.917-.066-1.409-.366-2.622-.438-.838-.051-.05.519-.857.463-.294-.023-3.459-1.381-3.812-.138-.09.41 26.096 1.904 28.717 1.66l-6.727-.69c4.58.533 10.077-.285 10.423 1.212 16.932.696 33.872 1.311 50.843 1.886 3.024.207 1.312 1.117 6.334.971-1.272-.337-2.586-.676-3.856-1.014 2.582.283 13.873.993 15.716.843.238-.02.571-.875 3.435-.876 2.508 0 2.881.656 4.244.816 1.136.131 2.394-.006 2.722.039.257.035.329.433.964.518 1.975.266.408-.89 2.319.44l-1.426.109c2.373.247 5.524.912 2.079 1.108-.593.033-.074-.336-.517-.347-17.489-.383-3.573.72 2.587.29 1.014.392 5.047.487 7.807.539 1.607.03 2.778.046 2.881.09.397.173-1.102.583.833 1.03.449.089 12.288.155 7.979.769-.87.124-6.521-.216-7.927-.233 3.201 1.293 10.802-.18 11.654-.1 3.448.311-6.638.806 1.107 1.223 5.97.338.375-.683 2.702-.935 1.252-.152 8.057 1.053 7.962-.09 2.371.007.949.538 1.24.597.288.048 4.973-.007 6.578.376.185.045-.451.592-.262.656.343.094 5.082.422 5.364.425.135-.02-1.003-.672-.497-.743.525-.122 5.5.699 5.929.67.357-.224-5.924-.962-4.763-1.373 2.665.433 7.776.913 10.687 1.395-.757-.137-4.2-.969-5.226-1.178.35-.368 2.205-.228 3.931.227 1.713.445 3.08 1.124 1.551.968 1.936.262.755-.34 1.936-.283.284-.023 3.191 1.198 3.834 1.41.076-.037-2.807-1.695-2.135-1.574.565.056 3.284 1.184 5.591 2.72 2.333 1.53 3.735 2.852 3.904 3.032.485.573-.234.1-1.466-.698-1.207-.798-3.11-1.879-3.495-1.893-.057-.007 1.291 1.073 2.31 2.104 1.048 1.04 1.749 1.913 1.757 1.957-.126.337-.993-.368-2.162-1.217-1.146-.844-2.552-1.703-2.363-1.223a30.4 30.4 0 0 1 3.421 3.038c-1.826-1.258-6.468-4.355-10.253-5.493-3.752-1.242-6.312-1.514-7.419-1.383 3.168.446 7.34 1.458 10.757 3.43 3.404 1.971 4.747 3.779 4.254 4.336-.328.518-3.579-1.282-3.602-1.037.089.398 1.344 1.182 2.38 1.88 1.054.699 1.892 1.229 1.938 1.286q.096.154.059.191c-.123.134-1.187-.627-2.699-1.582-1.488-.958-3.342-1.852-3.526-1.85-.639-.053 1.562 2.57 1.339 2.789-.056-.113-4.54-2.134-3.27-.973 1.374 1.06 4.552 3.398 4.514 3.488.17.322-.928-.45-2.406-1.272-1.471-.836-3.17-1.485-3.292-1.447-.093-.026 2.929 2.173 2.87 2.396.021.149-2.52-1.008-3.649-.946-.818 0 1.061 1.148.685 1.04-.287-.294-5.531-2.036-5.729-1.898-.38 0 .677.67.48.727-.258.075-1.814-.416-1.632-.22.14-.014 5.882 3.249 5.564 3.764-.344.385-5.794-3.096-1.187 1.298.034.017 1.358.494 1.384.543.451.817-3.496-.74.952 1.864-2.077-1.24-3.341-1.457-3.921-1.545-.578-.06-.521.099-.246.344.582.48 1.842 1.46 1.031 1.653-.556.078-3.703-.757-3.792-.66.205.582 1.322.482 1.558.839.165.16-2.798-.063-2.243.461.354.22 3.067 1.04 3.076 1.157.761.732-.494.545-.393.861.085.188 1.259.854 1.274.925-.007.027-1.861-.238-2.334-.12-.322.06.556.713.335.71-1.069-.032-3.857-1.897-1.506.434.134.138.964.403.957.432.267.61-1.085.11-1.575.395-.647.484 1.652.821-.314.695 1.404.898 1.33.812 2.576 1.559-.907-.583-1.244-.51-1.882-.547-.597-.002-1.172.102-1.408.28-.253.175-.114.43.275.707.418.285.935.57 1.274.774-.514-.318-.896.604-1.126.53-.077-.024-.451-.397-.972-.493-.498-.09-.928.125-.59 1.3.039.146.414.217.638.3.231.082.342.175.132.396-2.904-.869.055.343-.166.39-.099.63-1.607.194-5.097-.29-3.332-.482-7.491-.955-8.675-.956-2.817-.004-5.394.877-6.047.847-2.008-.09-.316-.52-.758-.726-.458-.211-6.368.523-6.66.463-1.151-.255.048-.811-.072-.846-1.405-.425-9.358-.213-11.649-.416.092.391 4.564.558 1.754 1.097-3.349.629-3.407-1.086-3.51-1.165l-2.207-.06c-14.227-.382-28.64-.714-42.984-1.085.17.918 10.023.49 10.262.615 1.291.747-15.364.293-17.407-.088q2.344.36 4.637.717c-2.649.978-8.492-.545-12.367-.193-1.232.115 1.114.587 1.077.613-1.413.368-3.614-.009-1.939-.508-3.401.427-2.914-.138-5.522-.257-.134-.006.968.45-1.089.565-.954.054-6.157-.1-6.838.25-.281.147 2.253 1.865 2.639.464 5.624.856 1.824-.59 4.005-.493.346.017-.5.783 5.052.572-1.103 1.39-7.375.144-8.485.282-2.242.288 6.94 1.294 8.684.234-.824 1.086.656.169 2.686.272 2.263.113 1.269.416 2.492.452 3.334.101 1.948-.72 4.685.061-2.62-2.258 4.692-.16 6.843.47-3.501.017-7.032.032-10.491.046l.589.36-2.768-.126.455-.317c-4.777.58-5.897-.257-6.292-.277-4.98-.237-10.731-.402-15.789-.563-.759-.024-.233.71-5.765-.027-1.74-.235-.071-.737-2.058-.718-2.538 1.43-2.458.226-3.202.2-2.158-.072-3.431.26-3.636.257-2.628-.03-6.484-.225-9.372-.272-.054.004 1.436.522-.44.318-.675-.073-6.498-2.264-11.688-1.814 1.334.184 2.664.368 4.015.552-1.581-.243-12.674-.17-9.985.465 1.641.39 5.765-.733 6.154.511-3.696-.495-24.058-.772-25.629-1.136-.218-.05 1.15-.391.849-.455-.232-.048-4.913-.157-5.516-.338-.363-.107 1.702-.26 1.541-.412-.136-.107-5.951-.537-6.314-.054 1.449-.135 5.457.219 3.332.546-.273.04-1.666-.345-2-.294-3.081.476 6.043.737 7.472.801-5.759.39-14.62-.764-21.28-.671-2.665-.545 4.01-.445.99-.935-6.275-1.019-1.706.494-1.904.537-1.597.344-6.811-2.167-6.9-.458-2.274-.373-1.526-.55-4.769-.492l1.257.42c-3.624.81-11.094-2.094-10.506-2.255 1.542-.428 5.469.578 5.803.575.508-.002 1.946-1.663 7.352.166 2.294-1.049-8.616-1.229-3.627-1.768-3.332-.033-17.089-1.592-19.079-1.199-.241.053.797 1.276-2.573.492-1.601-.374 2.298-.164 1.573-.47-1.223-.514-11.013-1.118-20.613-1.668-7.952-.452-15.77-.86-18.429-1.022-.38-.025-.216-.375-.59-.397-1.148-.067-5.376.181-7.419-.128 4.211.962-4.061.438-6.161.213-3.186-.338-2.942-.957-4.311-1.19-5.278-.9-13.618-.006-17.637-1.72.121 1.411-7.083-1.219-10.426-1.487-2.617-.21-6.494.419-2.998 1.252-4.521-.411-9.3-.52-13.548-.767-.702-.04.295-.377-.903-.433-.109-.002-.29.39-1.32.351-8.509-.313-4.314-.847-5.88-1.224-.876-.21-1.525-.332-2.003-.393 4.941.31 10.658.597 12.182.704-1.23-.991-10.966-.685-13.77-1.149-.098-.016.282-.48.183-.492h-.006c-1.06-.121-7.812-.473-6.471.222.36.186 3.459.431 7.15.669-1.006.031-.305.64-.483.65-2.159.103-7.33-.846-9.181-1.066-.423-.05-.42.306-.49.301-1.679-.214-.908-1.165-2.718-.264-2.952-1.497 5.735.267 5.181-.597-.436-.665-19.912-1.873-19.943-.88-.058-.111-.316-.264-.853-.457-1.191-.428-6.611-.753-7.563-.645-.161.023-.174.987-.37.98-.491-.016-7.047-1.291-9.564-.918l3.975.719c-8.067-.627-6.832-.242-4.177.255.134.013.262.06.39.074 2.062.375 4.722.79 4.755.87.121.298-13.552-.614-10.857-1.297.38-.093 6.667.799 3.59-.081-.531-.154-4.621-.292-4.825-.378-1.393-.578 7.53-.5 6.494-1.247-2.193.461-4.942-.088-7.42-.117-1.128-.014-1.44.445-1.579.443-2.075-.035-.877-.449-1.567-.49-.375-.02-4.542.736-3.656-.683-13.516.056-3.807.796 4.454 1.355-2.651.336-7.733-.319-10.035-.37-.828-.017-.378.514-1.776.506-2.864-.018-16.477-1.61-20.003-1.997 2.187-.016 1.59-.6-.091-.686-1.683-.085-.322.736-.656.79-.375.051-8.217-.854-9.555-.853 5.962.162 4.669-.47-.383-.884l2.229-.308c-2.994.004-9.128-1.244-10.867-1.117-.271.021.662.538.51.55-1.516.088-6.567-.713-6.824-.575-.211.115 1.947.639 1.124.77-.172.029-2.236-.721-4.304-.706-.767.006-.335.463-.529.475-1.618.101-.611-.556-3.571-.63-2.168-.052-3.792.551-6.758.135 9.683 1.502 1.545.615-2.578.64-.655.005-.144.81-4.013.205 8.372-.91-2.33-.885-4.515-1.018-.119-.012-.132-.525-1.197-.593-.09-.005.02.348-.97.32-9.471-.263-3.401-.325-5.178-.763-.738-.186-5.377.067-6.601.02-.283-.012-.136-.365-1.229-.404-1.93-.067-3.716.233-4.991.206-.148-.005-.134-.573-2.555-.495q-.153.005-.303.019c-.577.053-1.02.201-.193.376l.175.035c3.207.613 9.21.01 12.768.72 3.29.654-7.151.175-7.715.16-.201-.008 1.864-.193-.217-.346-1.179-.086-3.02.252-4.876.397-.956.072-1.917.094-2.801-.014-.202-.025-2.271-.94-2.172-.984.086-.033 3.332-.08 2.873-.34-.057-.03-2.116-.109-2.375-.298-.319-.23-1.117-2.402-1.552-2.473-1.115-.176-.406.34-1.138.277-1.591-.136-6.955-.958-7.181-.221.906.074 1.795.149 2.686.224-4.988-.096-2.882.294-3.592.409-.768.125-.534-.52-2.212-.634-.348-.029-7.421-.095-7.286.186 3.893-.33 2.437.437 2.614.456.681.071 1.57-.355 2.492-.319 6.402.269-.082.78 1.425 1.011.518.078 1.57-.275 1.791-.248.719.087.715.592 1.199.567 1.129-.057-.163-.815-.072-.849 1.033-.414 4.924.279 2.465.97 1.448.331 1.654-.606 2.803-.187 2.289.833-1.176.512-2.11.605-3.382.332-4.372-.067-9.143-.083-1.727-.006-3.762.4-4.551.405-.504.001-5.217-1.706-5.4.792-1.814-.282-4.707-1.983-6.583-1.938-1.697.041-1.178.934-1.336.966-.247.05-2.31-.05-3.004.066-.814.137-.415.48-1.701.602-3.226.305-3.135-.594-3.465-.656-3.825-.71-2.154.589-3.001.686-.826.077-11.878-.435-14.24-.083.949-.186 1.906-.37 2.861-.554-1.717-.558-3.515.37-3.552-.638-.331 1.63-3.85.568-4.909.622-.415.022-.379.3-.898.317-2.006.068-6.619-.082-7.705.08-4.766.69 7.458 1.489 8.387 1.556-1.895-.011-12.762.544-7.747 1.24.764.107 2.112-.644 2.545-.68 2.932-.23.633.457.864.516.391.094 2.324-.563 2.823-.493.171.022-.915.625 1.872.607-1.361.58-9.194.23-10.24.393-.365.058 1.954 1.226-4.774.187l.242.336c-3.733.135-7.45.289-11.19.464.396-.276 2.481-.873-.161-.672-1.516.117-.373.662-.511.684-1.36.141-25.46 1.079-30.105 1.524-1.594.12-5.966.891-6.312.926-2.007.182-9.169.422-10.587.61-.882.114-.001.532-.793.574-.736.038-.014-.495-.234-.496-1.839-.044-15.575 1.806-18.9 1.71 2.018-.077 11.941-1.937 11.7-2.24-.047-.043-2.506-.184-2.997.038-.869-.332-3.595 1.17-5.168 1.075-.178-.01.448-.773-2.328-.631-.635.033-1.918.387-3.448.522a11.4 11.4 0 0 1-2.537-.035c-3.62.632-22.905 1.831-24.122 2.755-.037.043 2.685-.01.901.505-2.363.685-.351-.936-3.193-.724-.417.026-8.26 1.11-8.493 1.23-2.272 1.057 4.606.53 4.515.635-.206.25-5.867 1.08-6.114 1.06-.227-.028 4.294-1.622-1.238-.542l1.96.125c-2.6.564-2.912-.109-3.564-.07-1.995.115-3.978 1.453-7.303.552-.881-.238.454-.81.344-.85-1.077-.336-2.155 1.089-3.805.356-.118-.053 3.3-1.095-2.813-.26q.656.047 1.3.096c-.846.316-6.986 1.302-7.834 1.381-2.44.215-.409-.742-2.845-.305 1.678.65-5.659 1.873-5.362 1.056-.881 1.108-7.223 1.364-10.13 1.847-1.83.295-5.479 1.38-6.043 1.438-.696.068-.628-.616-1.907-.524-.357.024-4.01 1.208-7.318 1.23-.256.002-.648-.128-.957-.317-.486-.26-.789-.644-.213-.964q.042-.025.091-.049c1.844-.904 5.83-.78 5.654-1.416-.175-.598-4.037.422-5.88.849-.297.067-.546.118-.733.147-6.663 1.05-3.023-.531-3.256-.714-.564-.442-4.157.393-4.306.378-.662-.075 1.758-1.078 1.744-1.42-.071-.436-3.7-.415-2.95-.74 1.095-.47 4.402-.543 4.624-.624 2.524-1.002-1.314-1.183-2.403-1.444-.331-.082.8-.598.543-.585-3.985.208-.465 1.566-3.058 2.018-2.268.397.459-.92.377-.938-.132-.013-2.818.575-3.305.45-.255-.072 6.526-2.964 6.09-3.454a693 693 0 0 0-6.663 1.932c-.34-.701 3.005-.91 3.326-1.062.642-.309-1.33-.248-1.292-.502-.005-.156 2.083-1.197.042-.955-.704.084-2.03.935-4.628 1 8.51-2.724 2.394-1.718 2.08-1.922-.293-.207 3.676-1.79-1.313-.5-.553-1.384-.026-.474 1.375-1.07 1.67-.715-2.5-.253 4.022-1.38-.494-.6-5.71.665-5.97.676-.242.006.813-.594.382-.61-5.165-.134-1.696-.34-3.292-.831-.163-.044-4.792.786-1.345-.202 6.321-1.78 9.217-1.404 9.836-3.698-4.961.188-10.372 2.893-11.804 3.288-2.185.59-.015-.403-.318-.449-.088-.02-1.991.508-2.023.483-1.75-1.223 8.441-2.16 11.463-3.107-.856-.048-1.774-.08-2.644-.12a645 645 0 0 1 3.373-.814c-5.491.78-.233-.137.811-1.699.231-.35-3.168.938.677-.769-3.024.5-2.129.023-4.745 1.006-.036-.53 5.872-2.49 8.225-3.28-8.607 1.347-3.313 2.08-10.88 2.824-1.208.947 2.246-.004 1.998.166-.942.613-3.463.585-6.035 2.604-.415.33 1.73.483-1.209 1.194-.339.08-2.33.005-2.333-.036.152-.51 2.022-.82 2.069-1.025.014-.19-2.014.448-2.043.407-.196-.535 1.678-.662 1.371-.765-.63-.239-8.51.582 1.418-1.646-7.994 2.738-.88.838 2.203-.156.794-.257.918-.635 2.028-1.023 1.454-.505 3.179-.743 3.95-.985.797-.254-4.032.04 2.744-1.277-3.593 0-9.44 2.253-12.996 2.604-7.17.715 4.461-2.578 5.625-2.917.31-.105-.857-.293-.656-.37.334-.136 6.967-1.471 7.512-1.974.562-.516-2.405.569-2.686.232-.196-.235 7.612-2.487 3.292-1.694-2.991.544-8.202 2.87-9.4 1.992A705 705 0 0 1 27.91 31.7c-2.48.107-4.957.22-7.442.35 3.243-.846 6.276-1.332 9.257-2.042 1.515-.36 3.065-.773 4.6-1.294-11.865 1.073 3.56-1.9 3.657-2.025.039-.117-4.715-.337-5.507-.375 3.99-1.318 16.094-3.662 8.735-3.77 1.35.072 4.343-1.24 4.29-1.29-.47-.556-7.29 1.082-6.256.332 1.166-.874 3.148-.342 5.13-.759 10.102-2.083 6.81-4.808 17.063-5.856l-.655-.25c11.087-1.47 22.084-2.73 33.089-3.877 4.17-1.505 15.541-3.41 21.167-3.896 1.141-.103 6.738-.173 7.162-.124.79.092-3.452.601-1.497.724.299.017 5.494-.388 7.922-.785.859-.142 1.369-.285 1.178-.41-.279.01-.712.06-1.206.126-1.395.187-3.27.503-3.674.449-1.139-.159.571-.465 3.636-.827 7.269-.886 22.092-1.872 23.092-2.197-.663-.126-1.314-.253-1.984-.377 1.849-.064 3.706-.124 5.561-.18M77.038 56.3c-.975.692-3.687.655-5.22 1.034-2.131.525-5.463 3.175-4.21.832q4.705-.956 9.43-1.866m46.865-4.817c-2.189-.068-.643-1.43 1.184-1.123.198.037 1.781 1.214-1.184 1.123m-22.624 1.964c.093-.027 1.949-.215 2.015-.204 1.72.278-3.887.844-2.015.204m108.768-9.047c-2.386.119-.613 1.151.832.667.092-.03-.678-.673-.832-.666m-1.695.02c-1.878-.918-5.497 1.166-2.572.875.28-.03 2.656-.831 2.572-.876m-92.18 7.417c.209-.397 2.439-.46 3.402-.473.004.34-2.461.328-3.402.473m56.166-5.121c.086-.305-7.616.232-8.11.66 1.203-.256 8.049-.398 8.11-.66m19.704-1.48c-.199-.043-2.843.156-2.76.41 1.324.276 3.643-.22 2.76-.41m39.315-1.001c.142-.065-1.863-1.694 2.867-.645.695.154-1.783.597-1.535.655.516.111.925.162 1.253.17-2.193.148-4.492.234-4.714.137-1.049-.46 2.062-.29 2.129-.317m20.683-1.204c.46-.264 3.375-.09 4.027.03.113.022-.391.719.917.683 1.053-.028-.511-.77 1.541-.626 2.079.146-.709.618-.526.658.242.05 3.46-.223 3.346.195-.067.308-3.515.045-4.359.1-1.085.071.22.604-1.585.47-1.131-.082-.493-.983-.731-1.032-.194-.04-4.209.443-2.624-.475zm-17.501 1.34a3 3 0 0 1-.597.044q.3-.02.597-.043M83.149 55.069c1.144.13-2.093.924-3.396.732-.063-.291 3.216-.753 3.395-.732M236.59 43.624c3.261.22.882.535-2.052.749.925-.176.943-.821 2.052-.75m-92.76 4.71a.39.39 0 0 1 .268.325c-.38-.156-.421-.255-.268-.324m7.635-.357c2.561-.746-2.722-.28-2.665.098.035.14 2.56-.069 2.665-.098m61.612-3.602c-.239-.045 3.441-1.735-1.928-.402 2.879.115-.15.366-.1.505.116.397 4.971-.108 6.03.047.822-.737-3.199-.001-3.996-.15zm76.321-.07c-.678.395-2.758.184-4.157.112.67-.4 2.741-.19 4.157-.113m373.968 23.832c-9.836.034-11.082-1.733-2.081-.723.175.02 2.681.57 2.081.723m-84.499-4.246c-.89-.799 2.198-.748 4.195-.33.452.094 2.096.941.164.985.111-.902-2.849-1.41-4.359-.655M238.436 43.14c.939-.502 3.922-.146 5.446-.066-.926.407-4.09.218-5.446.066m392.621 22.84c-1.032-.1-1.762.52-1.585.582.793.283 2.749-.161 1.585-.581M228.945 43.119c-.139-.298 3.766-.618 4.032.12-.82-.05-3.935.066-4.032-.12m57.805.866c-.6-.173 2.539-.332 3.492-.145-.092.313-3.104.257-3.492.145M614.338 65.46c-.926-.099-3.253-.225-3.525.025-.335.314 3.085.362 3.525-.025m172.375 5.079c.104.121-3.403.836-5.001.566-2.928-.518 4.862-.663 5.001-.566M640.885 66.05c2.922.737-.33.007-.221.663 1.984.104 6.887.33 3.54-.444-.652-.15-2.397-.14-3.319-.219m-2.683-.327c-.322.198-2.462.776-.634.804.845.012 2.231-.672.634-.804m126.565 4.397c-1.142-.281.52-.32 2.675-.265 2.94.074 6.801.315 6.982.378.176.06.29.113.354.158.424-.17 2.719-.13 2.941.34-.649-.06-2.529-.079-2.735-.136a1.3 1.3 0 0 1-.201-.07c-.51.25-4.504.04-7.356-.161-1.38-.101-2.492-.202-2.66-.244m-19.841-1.115c3.049-.773 3.506.686 3.256.726-3.26.509-1.117-.504-1.213-.556-.22-.089-2.572.346-2.034-.17zm15.789.767c.135-.015 2.598.096 2.708.122 2.037.542-5.018.227-2.708-.122m-493.028-27.51c1.765.183.017.676-1.147.46-.095-.02-.406-.62 1.147-.46m369.067 23.545c-.427-.115-11.108-.949-10.513-.12.931-.05 13.082.872 10.513.12m-80.086-4.274c1.89.123-.218.753-1.21.408-.368-.128.733-.438 1.21-.408M223.69 42.494c-1.915.447-1.541-.958.134-.503.066.017-.059.486-.134.504M571.743 62.87c-6.549.08-4.87-2.225 3.565-.933l-.813.276c9.75.907.661.21-1.744.206-.914-.001-.173.443-1.002.454zm-25.014-2.01c-4.938-1.69 1.712-.814 6.322-.409 1.156.102 2.184.175 2.874.173-.976.143-2.033.214-2.902.267-1.918.118-2.909.156-.046.73q.474.095 1.093.21a148 148 0 0 1-1.102-.055c-7.209-.392-3.915-.808-4.239-.882-.404-.089-1.737.057-2-.034m16.561 1.02c.366-.028 3.082.482 4.068.482-1.407.503-6.503-.288-4.068-.482m160.775 6.977c.238-.45.82-.771 2.95-.544-.663.212-2.039.373-2.95.544M74.702 54.2c-1.457.171-4.33.412-3.386.761.116.023 3.405-.492 3.386-.76m530.945 9.847c-.318-.07-8.483-.512-5.688.13.829.196 8.291.494 5.688-.13m42.299 1.896c-.677-.03-3.452-.054-3.517.052-.201.366 3.209.294 3.517-.052M67.383 54.787c-.189-.023-4.557.725-4.032.87.955.275 4.706-.807 4.032-.87m206.789-13.439c.371-.007.85.502.978.511.301.012 7.14.025 4.516.584-.441.085-10.258-.422-11.529-.503-.482-.693 3.702.05 4.732.009.179-.009.306-.576 1.299-.598zM735.29 68.671c.321-.425 8.474-.501 8.344.02zm-4.131-.18c-1.715-.352 2.303-.348 3.529-.18-.013.29-3.273.231-3.529.18m-98.622-4.79c-.82.07 1.664.808 1.098.907-.367.061-2.177-.252-2.77-.08-.168.056 1.67.728 2.208.725.766-.002.042-.5.884-.468 2.801.107 5.235.54 7.845.637.237.008-1.586-.396.434-.31.311.013 2.167.58 4.564.6 5.366-1.315 9.219.327 15.951.02-.24-.151-5.255-.719-5.56-.745-5.598-.455-15.722-.878-21.593-1.127-1.518-.065-.794.288-1.449.272-.515-.012.111-.583-1.612-.432M75.419 53.766c-.77-.495-3.113.217-4.665.412.628.451 3.135-.333 4.665-.413M694.583 67c-.791-.001-3.263-.257-3.477-.084-.267.226 3.302.484 3.477.084M312.697 43.043c.075-.012 1.949.117 2.02.14 1.652.566-3.972.174-2.02-.14m45.18 2.901c1.436.026 2.898-.058 3.347.458-.912-.138-3.539-.134-3.347-.458m62.569 4.702c-.248-.655 4.05.096 4.867.218-.328.256-4.687.254-4.867-.218M723.803 66.86c2.673.109 2.131-.865 3.795-.387.267.08 1.107 2.101-1.781 1.276-.525-.149 1.557-.568-2.014-.89m-147.119-4.827c.696-.38 2.82-.138 4.253-.026-.336.294-3.241.053-4.253.026M59.425 55.526c-1.28-.402-6.76.953-5.32 1.111.208.013 4.539-1.014 5.32-1.111m185.665-14.29c2.329-.457-2.473-.62-4.026-.163.705-.031 3.866.192 4.026.163m160.334 7.886c.114-.01 2.612.23 2.723.26 2.013.646-5.056-.03-2.723-.26m-62.378-4.947c.911-.327 6.831.375 8.113.848-1.294.472-9.269-.446-8.113-.848m369.791 22.658c1.907.033 3.673.2 5.442.415-.396.312-5.241-.168-5.442-.415M414.617 49.8c.134.013.262.06.39.074zm255.636 15.484c-1.577-.182-1.271.42-1.173.441 1.175.233 2.99-.235 1.173-.441M73.525 53.147c-.607-.454-3.163.33-4.656.422.478.355 3.468-.199 4.656-.422m466.559 6.181c-1.963-.71 6.224-.842 7.923-.361.102.367-7.635.462-7.923.361M237.841 40.43c-.146-.419-3.528.1-2.808.294.456.123 2.908-.035 2.808-.294M552.09 59.472c.267-.028.653.017 1.016.096.689.15 1.297.422.874.56-.277.09-.602.05-.906-.045-.603-.19-1.118-.595-.984-.611m68.771 3.348c-.333-.079-4.864.145-3.024.656 1.282.355 1.517-.24 1.821-.228.347.019 7.538 1.078 1.203-.428m-126.328-7.111c1.705-.033 3.74.307 5.514.428-.742.204-4.82-.031-5.514-.428M250.81 40.359c-.387-.184-11.451-.327-5.18.216.372.028 6.407.304 5.18-.216M723.803 66.86a16 16 0 0 1-1.183-.098c.452.028.843.067 1.183.098m-30.263-.928c.632-.285-2.494-.463-3.394-.329-.306.363 3.312.369 3.394.329m-193.327-10.21c1.035-.097 2.876.227 4.143.3-.235.267-3.723.02-4.143-.3m-71.592-5.907c2.004.328 4.5.449 4.566.107.038.057.131.122.29.192s2.345.082 3.274.275c5.581 1.146-21.795-1.315-5.841-1.03q-1.146.227-2.289.456m-93.515-6.962c-1.102-.491-4.359-.16-3.532.056.575.148 4.649.438 3.532-.056m44.028 2.784c-.34-.101-3.497-.039-3.593.177 1.78.365 5.132.287 3.593-.177m-52.774-3.806c-.717-.105-1.673.52-1.59.554.714.29 2.779-.105 1.59-.554m391.977 23.05c-1.095-.225-4.51.172-5.277.6-.137-.09-.509-.215-1.196-.37h.006c-.911-.196-28.681-1.224-10.08.196.578.044-.196-.381 2.152-.242.158.01.228.341.716.371 1.142.069 7.028.444 8.253.213.008.06.084.121.246.179 1.441.515 6.011-.774 5.18-.947m-332.994-18.84c-.623-.17-2.627-.204-2.854.07.975.215 4.298.323 2.854-.07m-134.865-6.877c-1.26-.25-4.506.179-3.528.421.615.147 4.987-.135 3.528-.42m114.881 5.563c7.323.87 1.755.098 2.91-.245zm387.23 22.151c-1.173-.128.238-.932 1.498-.443.396.155-.842.513-1.498.443m51.882 1.882c-.715-.842 3.203.084 1.606.396-.07.005-1.52-.362-1.606-.396m-35.856-2.016c-.362.213-.669.341-1.097.401-.517.078-1.214.046-2.476-.06 2.849-.043 1.001-.442 2.489-.402.257.007.608.026 1.084.061M433.169 49.866c.012.022.021.038.018.057a.1.1 0 0 1-.018-.056m-113.712-8.294c-.902-.48-3.481-.588-2.737-.115.071.044 2.339.41 2.737.115m393.603 23.91c.122.08.057.128-.149.168-.008-.058.047-.11.149-.168M333.298 42.029c-.101.314 3.792.68 3.955.654 2.281-.413-2.329-.574-3.955-.654m-108.603-3.247c-.204.036 1.121.846 1.899.512.608-.259-1.136-.65-1.899-.512m551.537 27.984c1.266.04 2.948.096 3.29.5-.87-.09-3.299-.212-3.29-.5m26.628 1.29c-1.327.334-4.438.1-6.48-.094.012-.619 5.28.104 6.48.094M721.72 65.2c-.095-.027-3.224-.294-2.809.125.618.614 3.682.12 2.809-.125M230.714 39.154c1.392-.291-1.828-1.126-3.273-.444-.746.349 3.032.492 3.273.444m80.735 1.43c-1.852.14 2.685.793 3.332.402-.841-.079-2.666-.452-3.332-.403m62.585 3.57c-5.708-1.647-2.713.816-1.667.695.146-.018 1.806-.656 1.667-.695M45.174 55.48c-.745.311 2.263.383 2.588-.086.188-.293-2.114-.115-2.587.086m416.361-3.712-.732-.046c.183-.006.422.006.732.046M294.874 38.175c3.997 1.9 3.638.551 3.991.573l.031.002c.771.063 2.488.595 3.914.584a1043 1043 0 0 0-4.962.366c.173.024.523.065 1.002.117 3.069.33 11.599 1.194 11.818.965.358-.383-3.21-.435-3.307-.474-.147-.058-.646-1.196-.973-1.254s-4.307-.273-7.484-.493c-1.869-.129-3.481-.262-4.03-.386m67.01 5.297c.926.198 1.161.657 1.603.582.151-.025.205-.443.719-.515zm-74.347-4.018c-1.134-.556 4.018-.172 4.191-.106.873.382-3.277.557-4.191.106m43.82 2.084c-.191-.043-4.143-.44-4.125-.152 1.024.276 6.338.661 4.125.151m33.472 2.017c1.388.147 4.001.76 3.744.107h-.006zm-129.387-5.768c-2.585-.995-1.361.271.932.588.694-.455-.508-.426-.932-.588m-8.247-.686c-.7-.18-8.098.135-6.954.653.397.18 4.625-.364 4.831-.328.296.05-1.048.658 1.213.512-.134-.198 1.155-.78.91-.837m6.11.052c-2.554-.75-3.115.67-1.2.66.746-.004 1.565-.551 1.2-.66m10.461.103c-.902-.137-3.39-.336-5.069.137 2.257.037 4.536.08 6.787.13.263-.266-.917-.148-1.724-.267zm568.712 28.98c-.08-.287.077-.362.379-.244.283.099.948.637.984.736.07.277-.346.124-.708-.047-.371-.18-.617-.314-.655-.445M27.194 46.13c-.587-.03-1.089-.456-2.234.09 1.304.098 2.618.198 3.95.296.774-1.086-1.093-.347-1.716-.386m-5.441-2.082c.171-.061-1.1-1.17 1.368-.807 1.675.237-6.462 2.764-8.096 2.57 1.575-.69 5.267-1.243 6.728-1.763M5.61 42.078c-.12-.09 3.136-1.184 3.509-1.194 2.053-.135-2.758 1.55-3.509 1.195m10.345-2.466c-1.534.1 1.695-.863 2.728-.947.176.218-2.501.93-2.728.947m783.621 4.685c-1.615-1.037-3.213.874-.646.628.108-.013.719-.578.646-.628M8.455 39.834c1.598-.157-1.713.91-2.826 1.095-.153-.229 2.596-1.08 2.826-1.095m790.084 2.177c-2.207-.803-1.56 1.487-1.273 1.594 1.122.415 5.142-.192 5.969-.335-5.956-.11-3.674-.869-4.696-1.259m-10.273.839c-2.037.155 3.138.827 4.163.254-1.013-.02-3.622-.303-4.163-.254m-12.315-1.155c-1.027-.113-4.345-.404-4.85-.065 1.125-.032 4.433.415 4.85.065m-2.411-1.133c-1.717-.531-2.181.855-.165.498.078-.014.227-.469.165-.498m-9.566-.776c-1.074-.586-2.376.734-.591.819.526.022.704-.752.591-.82m31.906-.348c-1.678-.329-3.761.538-.297.823-1.29.08-2.425.172-3.699.262 4.507.759 4.276-.586 5.581-.459 1.868.19 1.618 1.29 1.242 1.616 1.566-.587 7.964-.184 12.176.326-3.602-.834-9.009-1.74-12.194-2.112-.911-.11-1.849.142-2.605.067-1.251-.124-.112-.502-.197-.522zm-44.428-.003c-3.286-.715-1.235.699.637.505.08-.017-.555-.487-.637-.505M2.641 37.232c5.076-.932 1.894.685 10.847-2.778-3.63 1.74-.08.619-.745 1.122-.514.392-2.854.769-1.404.936C9.342 36.44 2.522 38.326.167 39.41l.034-.016c-.19.075-.253.006-.157-.178.116-.193.335-.468.584-.735.494-.533 1.121-1.051 2.013-1.247m773.405.907c-1.024-1.683-1.507.923-3.671-.51-2.927 1.899 7.93.24 9.212 1.97-11.711-.584 7.64 1.925-.41-.863 6.732 1.15 2.229-.232 3.285-.515 1.106-.303 4.972.223 4.774-.399h-.007c-2.313-.054-4.705-.1-7.036-.139 2.237 1.406-2.575.84-4.102-.289-.671.248-1.363.496-2.045.745m13.21 1.717c-.199-.043-5.326-.055-5.002.226.638.186 7.946.285 5.002-.226m23.67 1.655c-2.218-.404-5.312-1.01-6.412-.614 1.956.188 5.101.875 6.412.614m-94.884-4.068c-2.33.347 4.795.664 2.747.122-.096-.026-2.629-.137-2.747-.121m52.743.788c-2.351-.572-1.264 1.065.479.697.101-.021-.371-.67-.479-.697M6.493 35.883c.116-.467 6.591-1.855 7.713-2.113-.544.487-7.724 2.552-7.713 2.113m810.923 5.1c-4.928-2.758-10.469-1.512-11.018-1.631-.588-.094.401-.618.268-.648-.373-.1-6.409-.525-6.689-.482-.213.02.828.96-.444 1.15 2.314-.446 13.719 1.057 14.788 1.377.281.016-.569-.402-.667-.593-.083-.166.33-.304 3.753.825zm-12.459-1.957c1.488.496-2.786.168-3.779-.023-2.216-.461 3.523-.063 3.779.023m-10.035-1.012c-.448-.109-4.637-.379-5.019.014 1.944.605 6.06.23 5.019-.014m-45.963-1.421c-1.042.025-4.018-.363-4.176-.013 1.071-.024 4.013.363 4.176.013m-721.516-8.94c-1.182.062.149-.358 1.608-.697.731-.169 1.492-.314 1.926-.357.062.115-.932.404-1.86.651-.826.22-1.603.4-1.674.404m743.042 7.18c-.142-.028-.903-.055-2.054-.08-3.842-.08-11.87-.1-13.327-.01 1.437.248 9.6.52 13.311.578 1.041.017 1.722.015 1.848-.01.171-.033.302-.459.222-.478m28.325.952c1.223-.447 2.068.239 2.207.256 1.515.176 4.851.347 4.078.786-2.84-.474-8.8-.154-6.285-1.042m-50.699-1.576c-4.366.081 3.963.846 2.907.273-.091-.035-2.451-.281-2.907-.273m23.808.514c1.002-.402 13.953.38 16.083.484-1.954.7-3.414.054-5.924.007-.674-.012-.507.317-.579.315-1.181-.025-.283-.368-1.017-.399-.437-.023-9.979.142-8.563-.407m27.608.745c.732-.296 9.494.317 10.028.532 2.618.83-9.536-.49-10.028-.532m-28.76-1.47c1.352-.867 7.827-.064 3.416.252-.423.029-2.215-.417-3.416-.252m-22.169-.637c-.199-.032-4.791-.33-4.856-.045.61.128 7.304.4 4.856.045m2.378-.911c-.107.004.942.585-1.194.46-.18-.012-.469-.643-3.175-.484-.55.032-1.42.422-1.359.45 2.814 1.05 11.275-.604 5.728-.426m48.734 2.524c-.446-.292.741-1 1.71-.535.409.2-.398.61-1.71.535m-65.558-2.24c2.648-.404-5.642-.71-6.064-.601.225.301 5.833.642 6.064.602M30.913 23.159l-.006.002c2.355-.381.99.306 1.1.295 5.067-.438 3.537-1.024 4.303-1.285 1.597-.537 1.548.572 4.202-.374-4.428 1.495-.325.45-.14.81.814 1.444-6.181.401-8.445 1.226-.305.108 2.15.12 1.363.426-1.06.41-3.236.55-4.73.474-1.603-.094-2.425-.47-.231-1.051.6-.158 1.483-.343 2.584-.523m771.282 11.267c1.009-.457 10.027.967 7.585 1.09-.553-.076-9.293-.567-7.585-1.09M436.631 15.257c1.912-.25-2.41-1.065-3.24-.819-.413.123 2.399.928 3.24.819m-30.42-4.114c-2.251-.093-4.738 1.39-1.932 1.346.298-.005 2.171-1.095 1.932-1.346m146.282 11.882c-2.282-.743-2.215.371-.51.465.601.033.582-.441.51-.465m-88.725-6.331c-.231-.057-2.93-.2-2.852.063.984.23 4.338.32 2.852-.063m89.471 6.22c-1.252.101.512.886 2.138.54q.266-.055.521-.153a5 5 0 0 1-.509-.028c-.88-.09-2.032-.368-2.15-.358m212.742 8.498c-1.224.421-4.439.197-6.38.224-.165-.595 4.966-.157 6.38-.224M415.648 12.554c-2.144.248 2.354.943 1.982.362-.055-.034-1.898-.374-1.982-.362m211.793 14.24c-1.553.284 3.312.97 1.994.293-.064-.028-1.908-.309-1.994-.293m21.254 1.081c-1.147-.163-6.124-.325-4.201.096.302.065 4.105.223 4.201-.096M36.367 21.727c-.76-.474 3.05-1.05 3.584-1.036.224.002-2.592 1.644-3.584 1.036m501.056.211c-1.206-.005-4.312-.362-4.883-.083 1.475.036 5.235.742 4.883.083m-112.131-8.627c-1.785-.802-4.942-.986-4.231-.067 3.488.218-.364-.804 4.231.067m135.725 9.379c-.959-.11-1.747.67-1.641.715 1.021.434 2.576-.336 1.641-.715m-72.369-4.39c-.029-.357-3.136-.435-2.74-.177.129.087 2.763.465 2.74.176m236.606 11.843c-1.413-.36 2.935-.559 4.199-.15.587.559-4.002.193-4.199.15m-137.547-5.717c.174-.515-4.663-.48-2.786.057.47.134 2.727.115 2.786-.057m46.285 1.578c-3.274.49 10.338 1.497 6.788.571-.24-.064-6.522-.612-6.788-.571m22.232 1.274c-.55-.09-.224-1.838 2.078-1.073.303.1-1.146.51-.9.627.152.066 5.191.499 5.417.465.25-.037-.022-.612.232-.666.277-.06 3.377.547 5.002.609 3.058.117 3.39-.343 3.644-.335.738.022 1.965.398 3.448.448 7.472.252 18.929.213 24.82 1.383-5.259-.557-10.293-.289-15.564-.328 1.575-.93-7.745.502-2.286-.45-2.523.174-24.045-.384-25.885-.68zM397.415 9.97c1.422-.494-5.654-.9-6.297-.25.918.166 6.118.304 6.297.25m32.631 1.082c.665-.051 1.375-1.174 4.754-.308h.009c.989.254-.176.448 0 .565.063.046 3.144.877.539.765-3.969-.17-.304-.901-2.412-1.08-.255-.022-4.304.295-4.084.453.023.018 1.238-.021 1.433.053.734.277.339.613.444.64.34.07 6.704-.051 7.584.566.279.199-10.115-.218-10.519-.342-.251-.077-.063-1.084-.32-1.205-.133-.06-4.332-.01-4.865-.146a4 4 0 0 1-.361-.109c.608.364-3.177.043-3.032-.302.076-.134 2.676.152 2.767.184.041.013.075.03.107.043-.504-.426 8.293.287 6.439-.432 2.581-.11-.429.806 1.517.655m12.312.347-.815.257c4.488.094 9.594 1.017 14.74 1.42 1.302.103-.145-.669 1.549-.355 1.357.251 2.825.977 2.07 1.053-.185.02-2.94-.596-4.337-.666-4.136-.207-3.137.436-3.379.432-.268-.005-2.83-.605-4.246-.7-3.569-.237-5.222-.023-10.055-.858 2.845-.146 1.364-1.07 4.473-.583m165.833 12.479c.188-.345 3.075.108 4.136.105-.188.346-3.072-.106-4.136-.105M169.747 3.246c-.885.633 6.007.354 4.164-.016-.397-.085-3.309-.036-4.164.016m30.915-1.169c.91-.193-2.79-.48-2.775-.03.021.143 2.653.054 2.775.03m299.289 14.385c.171-.006 2.63.308 2.705.343 1.59.738-6.509-.227-2.705-.343M238.21.685c-3.201.384 6.445.543 3.495.059-.151-.025-3.346-.078-3.495-.059m13.397-.059c-.769.012-4.16-.2-4.216-.022-.058.284 3.822.506 4.216.022m310.192 19.916c-.322-.675 4.028.085 5.559.093.326.675-4.041-.083-5.559-.093m-27.621-2.278c18.508.729 14.346 1.856-1.123.242.006-.42-.046-.29 1.123-.242m23.646 1.627c-.407.22-1.288.225-2.233.166-.673-.042-1.38-.117-1.969-.168.145-.146 1.033-.132 1.985-.09.843.038 1.736.098 2.217.092M161.498 2.904c1.161-.617 6.466-.322 5.547-.04-.218.058-5.961.358-5.547.04M501.544 16.02c-.384-.666 5.153.007 5.568.179 1.673.694-5.108-.284-5.568-.179m86.501 5.462c1.009-.444 3.787-.04 5.573.059-.834.383-4.049.032-5.573-.059m-12.89-1.103c.114-.013 2.606.174 2.715.203 2.017.601-5.034.076-2.715-.203M26.663 19.185c.03-.013.3-.072.642-.144.62-.13 1.48-.297 1.529-.295 1.077.04-.352.433-1.454.632-.873.157-1.557.183-.717-.193"/></svg>