<svg xmlns="http://www.w3.org/2000/svg" width="494" height="74" fill="none"><path fill="#CAEFFD" d="M47.848 61.18c.252-.128 1.35-.242 1.81-.381-.367.777-2.706.844-1.81.382M90.383 3.567q-.642.337-1.278.676c1.284-.068 2.987-.416 4.192-.41.198.002-.246.542.216.505.462-.036.296-.677.953-.829.735-.172 4.223-.122 5.42-.26 4.443-.53 8.919-1.317 13.421-1.375-4.57.837.1.967 1.39.67.28-.063.15-1.3 4.812-1.27 2.975.034.323 1.909 5.196.803-3.834-1.04-.121-1.144 2.853-1.292.506-.03 4.635.021 6.463-.065.617-.032 1.553-.689 2.384-.718.574-.02 1.008.323 1.847.296 3.938-.121 7.802-.137 11.721.043-2.321 1.606 1.799.728 1.971.814.927.462-3.302.514-1.635.821 2.331-.012 4.665-.006 6.981.016-1.907-.262 2.582-1.3 3.369-.727-.282-1.488 10.527 1.747 12.177 1.398.348-.078-1.854-.948 3.354-.272.564.075.32.497.62.477.141-.01.901-.826 1.76-.754.228.019.462.102.692.283.4.314-2.351 1.01 3.555 1.105-2.218-1.611 8.173-.082 10.023.475l-1.085-.677c1.829.689 2.219.245 2.641.312 1.71.272 3.985.991 5.583 1.114 1.849.143 1.949-.733 4.078-.158l-1.479-.746c1.496.208 2.966.416 4.45.628-3.569.778.734.137 1.017.145.446.007-.241.41.504.434.077 0 .017-.46 1.15-.382 2.371.166 1.935.686 2.929.795.089.008-.173-.431 1.539-.327 5.464.34-.067.303-.277.336-.287.042 1.394 1.938-3.164.806 1.53.369 1.601 1.132 1.774 1.17.157.033 2.837.242 2.99.235 1.348-.095.249-.741.517-.802.224-.049 3.359 1 4.302-.434 1.37 1.597-1.041 1.17-3.652 1.077-.408.244 2.391.866 2.54.884 3.66.444 1.777-.962 2.669-1.605.469-.336 1.854.638.612-.57 3.325.3 1.242.654 1.444.769.307.17 1.505.018 1.646.076.206.085-.581.352.245.584.137.036 1.573-.413-.141-.928 2.327.381 2.192-.171 2.849.992 1.858-1.808 1.013 1.337 1.63 1.53 1.645.512 1.353-1.13 1.454-1.196.667-.417 5.243.725 6.412.648-.599 1.078-3.672-.465-4.423-.337-2.498.424 3.316 1.006 1.384 2.21.787-.297 1.561-.596 2.343-.893 1.219 1.093-.736 1.245 2.915 1.381.694-.715-2.567-.208-1.855-.75.418-.319 2.522-.123 2.585-.311.074-.227-1.852-.2-1.507-.518.756-.688 7.527.953 2.24.685 1.46.179 2.011 1.814 3.341 1.503.858-.202-3.456-2.932 3.385-1.629.05.745-2.785-.152-2.867-.106-.116.066.191 1.772.271 1.864.286.308 7.439.37 8.815 1.391-.463-1.025 5.331.543 6.005.34.181-.057-.379-.721-.188-.758 1.185-.212 4.127 1.234 5.547 1.452 1.591.244 1.456-.284 1.545-.27.699.121.093.385.522.442.65.085 5.089.748 5.323.707.068-.014-.581-.681.402-.661.17.003-.027.667 2.882.755 3.503.106-2.289-1.16-.758-1.68 2.085 1.305 2.147.294 2.737.452.205.056 1.641 1.112 3.331 1.279q-1.84-.03-3.677-.063c1.167.306 3.497.425 4.453.722.467.144-.018.792 1.02.908.221.021 1.316-1.568-1.498-1.159-.137-.637 1.103-.071 1.724-.165.094-.015.584-.985 1.266-.254.163.179-2.221 2.887 3.212 1.408.174-.048-.354-.494-.182-.55.117-.038 1.412.282 1.564.248.156-.038-.426-.525-.239-.582.959-.294 1.942 1.467.089 1.104l1.798.837c-.514-1.298 1.025-.216 1.893-.143 5.566.462 1.959-.796 2.962-1.084 1.611-.463.183 1.466 2.531 1.126.217-.033-2.414-1.252 2.877-.092l-2.383-.19c.311 1.23 2.863.272 3.049.278 2.121.096.651.347 3.841.12.285-.02.856.342 1.469.269 2.538-.3-3.211-.752-3.31-1.248-.045-.24 6.098.558 6.294.69.839.596-2.811-.115-2.182.577.234.253 9.041.83 10.768 1.254 1.99.5 2.73 2.193 2.938.404.38 1.82 1.015.676 1.273.716.982.158 1.653.267 2.197.346 1.184.172 1.771.206 3.615.28.596.024 1.038.608 1.259.54.128-.043-.042-.637.574-.752.857-.154 5.784.924 6.129 1.273.342.352-2.125-.067-1.731.495 1.799.228 3.518.262 5.333.486.751.094.331.422.655.459.14.018 2.761-.066 2.663-.21-.224-.329-8.261-.872-6.09-1.31.419-.084 1.772.888 1.641-.151a1314 1314 0 0 0 21.455 2.532c-4.198.443-8.771-.618-13.099-.924-.59-.042-2.58-.317-2.383.219 3.645.46 8.254.578 11.746 1.194.111.02-.339.45.077.558.785.2 3.424-.344 3.838-.118.071.05-1.441.548-1.026.97 1.069 1.085 1.521-1.099 2.511-.997.763.082 5.807 1.528 7.128.942 1.408-.62-3.743-.69-3.326-1.25 3.527-.334 6.979.54 10.278.687.058.002-.414-.492.324-.507 1.281-.027 1.569.647 2.18.792.67.156 3.045.215 3.343.472.038.034-.481.652-.555.665-1.047.202-1.362-.663-1.455-.68-.351-.055-.72.245-1.043.204-.535-.066-.797-.383-1.494-.455-.479-.052-.053.552-.515.495-.169-.023-1.924-1.454-2.189-.132-.08.433 14.96 1.928 16.486 1.662-1.286-.236-2.557-.472-3.851-.71 2.61.55 5.825-.337 5.959 1.253 9.745.685 19.51 1.293 29.312 1.862 1.722.212.752 1.186 3.635 1.018a326 326 0 0 0-2.196-1.07c1.471.294 8.028 1.025 9.082.86.138-.02.386-.93 2.026-.937 1.439-.008 1.682.692 2.448.858.646.137 1.384-.01 1.586.036.151.037.193.46.552.55 1.127.277.263-.948 1.32.462l-.824.119c1.325.256 3.244.962 1.166 1.173-.355.037-.036-.357-.292-.367-10.132-.37-2.089.773 1.517.303.46.343 2.185.467 3.655.528 1.362.056 2.473.06 2.577.122.236.184-.692.62.471 1.096.206.09 7.264.15 4.69.807-.551.13-3.885-.224-4.677-.238 1.799 1.367 6.383-.205 6.911-.119 2.026.328-4.008.86.596 1.299 3.565.358.284-.725 1.673-.994.8-.16 4.933 1.136 4.944-.075 1.544.023.58.576.765.641.129.046 3.256.035 4.363.482.125.051-.38.615-.253.687.177.09 3.666.603 3.925.642.109-.015-.686-.76-.281-.808.315-.154 4.595 1.198 5.071 1.299.238-.04-1.24-.627-2.378-1.018-1.171-.414-2.125-.74-1.656-.95 2.031.553 7.179 1.962 9.965 3.37-.662-.354-4.044-2.123-4.992-2.48.374-.342 2.304.198 3.954 1.147 1.638.93 2.756 2.029 1.289 1.425 1.811.805.848-.136 1.973.254.326.089 2.463 1.954 2.878 2.208.124.033-1.777-2.184-1.241-1.932.526.208 2.434 1.916 3.587 3.342 1.199 1.445 1.787 2.417 1.855 2.58.162.455-.25.085-.912-.565-.638-.63-1.692-1.658-1.998-1.713-.042-.006.559 1.022.933 1.872.388.858.602 1.538.59 1.576-.252.264-.678-.278-1.253-.982-.561-.695-1.304-1.529-1.369-1.107.653 1 1.104 1.856 1.437 2.566-1.045-.912-3.059-3.664-6.254-5.976-3.141-2.271-5.851-3.114-6.872-3.12 2.907.85 7.123 3.45 9.015 5.79 1.941 2.289 2.156 3.529 1.518 4.016-.506.457-2.312-1.162-2.435-.994-.109.356.531 1.096 1.062 1.665.539.573 1.01.974 1.023 1.022q.014.12-.034.15c-.159.101-.728-.466-1.512-1.269-.761-.79-1.835-1.79-1.996-1.824-.479-.09.098 2.407-.187 2.535.026.008-2.681-2.35-2.167-1.141.643 1.244 2.066 3.164 2.021 3.209-.005.247-.563-.325-1.349-1.077-.767-.751-1.839-1.613-1.955-1.593-.06.004.344.578.661 1.157.325.58.56 1.14.522 1.214-.057.15-1.501-1.002-2.423-1.138-.636-.097.32 1.17.071 1.021-.075-.049-.853-.82-1.78-1.457-.921-.648-1.868-1.094-1.972-1.11-.298-.046.329.757.153.79-.24.031-1.249-.61-1.176-.395.03.079.946.903 1.683 1.928.751 1.016 1.157 2.111 1.003 2.235-.447.353-2.773-3.32-1.469 1.069.01.02.736.488.735.522-.062.677-2.22-.639-.175 1.529-2.103-1.875-2.494-1.423-2.345-1.04.128.45.472 1.263-.165 1.432-.472.077-1.721-.559-1.791-.479-.139.55.447.405.406.716-.027.135-1.288.092-1.234.564.074.227.83.673.827.757.021.518-.571.492-.681.742-.042.078.009.187.084.31.073.12.175.26.169.278-.014.032-.31-.027-.571.01-.267.031-.488.157-.584.236-.142.126-.229.438-.305.481-.329.339.033-.873-.647.75-.059.09-.066.03-.075.05-.359.347-.284.467-.468.827-.281.655-.459.066-.404.694a.66.66 0 0 1-.591.019c-.108-.049-.091-.117.195.158-.416-.398-.369-.006-.296.315.075.336.079.63-.002.866-.084.234-.195.446-.47.477-.136.015-.329-.028-.545-.144-.212-.108-.442-.306-.483-.366.084.078.114.448.036.714-.065.278-.184.517-.055.625.079.07.597.113.752.225.15.114.122.446-.565 1.384-.093.114-.272.003-.493-.11-.209-.104-.424-.187-.424.165 1.996.927.02.488-.194.41-.196.275.208.752.583 1.015.385.271.486.253.087.114-.773-.293-2.936-.812-3.5-.791-1.409.02-2.905.96-3.21.935-1.103-.09-.142-.551-.373-.769-.233-.221-3.519.579-3.706.515-.61-.267.066-.863.003-.899-.743-.446-5.31-.203-6.57-.411.024.414 2.566.58.937 1.16-1.876.68-1.938-1.148-1.968-1.23l-2.12-.099c-7.897-.356-15.972-.67-24.024-1.019.055.975 5.822.498 5.959.631.723.79-8.981.345-10.136-.055.904.252 1.77.501 2.68.752-1.592 1.045-4.935-.56-7.21-.176-.738.125.644.622.612.65-.847.393-2.116-.002-1.124-.537-1.994.462-1.679-.138-3.21-.26-.076-.005.55.476-.659.604-.55.06-3.597-.091-4.002.282-.176.157 1.263 1.978 1.532.487 3.244.895 1.084-.631 2.349-.534.193.017-.296.834 2.933.596-.681 1.481-4.318.17-4.961.32-1.324.312 4.017 1.36 5.058.228-.512 1.157.362.177 1.566.283 1.317.115.725.439 1.435.474 1.932.1 1.159-.77 2.736.055-1.446-2.394 2.731-.181 3.973.483-2.062.025-4.083.05-6.126.073l.33.382-1.604-.127.276-.338c-2.83.627-3.431-.26-3.666-.28-2.915-.24-6.25-.401-9.215-.56-.442-.024-.16.755-3.364-.014-1.024-.245-.018-.783-1.181-.758-1.538 1.527-1.445.247-1.878.22-1.252-.069-2.028.286-2.142.284-1.53-.024-3.793-.221-5.475-.262-.032.004.818.55-.271.338-.391-.075-3.706-2.387-6.772-1.893.77.191 1.552.383 2.331.574-.923-.253-7.423-.141-5.878.524.954.41 3.413-.796 3.586.525-2.133-.515-14.083-.747-14.983-1.128-.125-.052.696-.418.522-.485-.132-.05-2.879-.15-3.221-.34-.208-.113 1.012-.283.925-.443-.074-.114-3.463-.55-3.702-.036.858-.148 3.191.213 1.926.568-.162.044-.959-.36-1.158-.305-1.834.516 3.505.761 4.346.825-3.405.433-8.546-.761-12.469-.64-1.536-.568 2.382-.486.636-.995-3.629-1.059-1.032.53-1.151.577-.959.37-3.877-2.275-4.031-.461-1.316-.387-.863-.578-2.776-.505.235.148.476.295.714.442-2.185.873-6.399-2.18-6.04-2.352.934-.46 3.181.591 3.377.588.299-.005 1.249-1.773 4.313.147 1.412-1.121-4.989-1.27-2.023-1.861-1.955-.024-9.941-1.621-11.138-1.195-.146.057.382 1.349-1.548.531-.916-.389 1.363-.183.958-.505-.684-.538-6.381-1.136-11.986-1.674-4.659-.444-9.243-.84-10.797-.997-.222-.024-.097-.396-.315-.417-.669-.066-3.178.219-4.352-.098 2.396.996-2.426.485-3.642.259-1.844-.342-1.647-.998-2.432-1.238-3.023-.923-8.001.07-10.207-1.72-.056 1.492-4.047-1.248-5.982-1.512-1.516-.206-3.848.483-1.874 1.343-2.614-.408-5.407-.494-7.873-.728-.408-.038.208-.4-.489-.452-.064-.002-.206.414-.807.38-4.956-.278-2.447-.87-3.329-1.258-.493-.217-.862-.342-1.136-.403 2.863.296 6.188.564 7.07.668-.628-1.04-6.36-.656-7.959-1.128-.055-.017.212-.51.154-.521h-.003c-.609-.122-4.528-.45-3.809.276.193.194 1.983.433 4.122.66-.592.04-.239.68-.344.69-1.275.124-4.21-.846-5.274-1.067-.242-.05-.275.326-.315.322-.962-.215-.421-1.227-1.565-.262-1.584-1.563 3.329.245 3.089-.665-.195-.7-11.47-1.85-11.58-.8-.023-.117-.159-.276-.454-.477-.655-.444-3.792-.753-4.356-.632-.096.026-.196 1.045-.31 1.04-.284-.015-3.991-1.32-5.492-.908l2.249.733c-4.644-.608-3.959-.209-2.459.298.077.014.147.062.22.076 1.166.383 2.678.804 2.691.887.04.315-7.844-.556-6.208-1.297.229-.101 3.812.8 2.101-.11-.299-.16-2.666-.278-2.777-.367-.759-.602 4.437-.58 3.903-1.362-1.321.502-2.875-.06-4.314-.075-.656-.007-.881.481-.962.48-1.204-.023-.469-.469-.868-.508-.217-.019-2.712.81-2.064-.697-7.872.15-2.291.868 2.468 1.403-1.581.372-4.468-.285-5.809-.323-.479-.013-.267.545-1.078.547-1.66 0-9.427-1.592-11.429-1.977 1.267-.032.974-.646.007-.725-.974-.08-.253.78-.453.84-.22.056-4.684-.85-5.457-.839 3.441.132 2.748-.528-.145-.933l1.314-.341c-1.729.024-5.178-1.257-6.189-1.11-.159.023.337.565.249.578-.88.103-3.738-.713-3.894-.564-.13.123 1.071.663.586.809-.101.03-1.231-.75-2.422-.72-.442.01-.229.492-.342.506-.935.118-.317-.586-2.01-.644-1.245-.042-2.215.608-3.898.186 5.461 1.53.833.64-1.523.694-.378.01-.134.861-2.318.242 4.874-1.017-1.28-.924-2.509-1.05-.067-.012-.04-.557-.643-.622-.052-.005-.012.369-.583.344-5.383-.22-1.918-.324-2.903-.777-.412-.193-3.077.102-3.766.06-.159-.012-.055-.387-.674-.422-1.112-.062-2.127.268-2.85.246-.074-.004-.053-.466-.97-.517a4 4 0 0 0-.459.005c-.393.026-.843.21-.304.422q.324.125.718.196c1.868.347 4.828-.123 6.598.533 1.833.674-4.083.227-4.396.214-.114-.007 1.066-.216-.104-.366-.531-.068-1.317.156-2.15.332-.748.154-1.533.27-2.221.116-.113-.025-1.237-.986-1.178-1.034.049-.035 1.886-.102 1.64-.374-.03-.032-1.191-.105-1.328-.305-.169-.244-.517-2.546-.769-2.62-.636-.182-.25.363-.664.3-.888-.136-3.921-.986-4.072-.202.507.074 1.021.15 1.525.227-2.847-.081-1.652.325-2.062.45-.439.136-.282-.55-1.227-.665-.199-.029-4.21-.07-4.137.227 2.209-.367 1.362.455 1.461.474.382.074.898-.383 1.419-.348 3.635.26-.067.83.781 1.069.289.08.897-.3 1.021-.272.403.09.381.627.655.598.64-.066-.06-.865-.008-.902.591-.446 2.802.275 1.359 1.02.821.346.965-.653 1.6-.212 1.257.874-.686.55-1.219.653-1.951.366-2.458-.05-5.177-.05-.975.002-2.126.44-2.585.449-.288.003-2.889-1.795-3.059.861-1.036-.293-2.596-2.093-3.673-2.04-.967.048-.682.997-.773 1.03-.139.054-1.294-.046-1.684.08-.46.147-.234.51-.969.643-1.82.333-1.752-.623-1.938-.689-2.141-.746-1.22.631-1.698.736-.447.085-6.67-.444-7.975-.07a214 214 0 0 1 1.592-.591c-.965-.592-1.958.397-1.989-.676-.166 1.734-2.163.606-2.747.664-.231.023-.207.318-.496.337-1.148.074-3.702-.088-4.321.084-2.635.73 4.191 1.587 4.727 1.657-1.08-.01-7.103.573-4.301 1.316.433.114 1.173-.684 1.41-.72 1.62-.245.36.485.489.547.218.101 1.276-.598 1.564-.524.093.024-.492.665 1.055.646-.75.618-5.128.244-5.692.414-.206.062 1.133 1.307-2.649.193l.144.358c-2.061.138-4.133.295-6.19.47.205-.292 1.33-.92-.12-.714-.832.12-.175.702-.25.725-.754.155-14.068 1.048-16.635 1.481-.872.118-3.254.905-3.435.939-1.104.18-5.08.377-5.857.563-.486.114.054.563-.388.6-.41.035-.06-.522-.183-.526-1.019-.057-8.42 1.736-10.399 1.635l-.05-.004.05-.003c1.225-.106 6.456-1.928 6.3-2.25-.033-.044-1.44-.213-1.688.015-.526-.358-1.899 1.2-2.796 1.086-.102-.013.16-.81-1.399-.687-.165.013-.403.099-.695.2-.674.228-1.62.53-2.678.258-2.009.637-12.916 1.696-13.483 2.648-.015.045 1.548.018.591.54-1.265.693-.34-.985-1.932-.796-.253.026-4.566 1.064-4.695 1.19-1.144 1.08 2.713.612 2.683.72-.088.26-3.206 1.061-3.337 1.034-.138-.031 2.199-1.642-.794-.582q.572.076 1.14.156c-1.393.555-1.693-.15-2.05-.12-1.12.094-2.049 1.47-4.085.48-.54-.261.126-.84.056-.882-.658-.369-1.073 1.112-2.114.319-.084-.057 1.707-1.097-1.656-.312l.757.12c-.419.315-3.782 1.258-4.229 1.322-1.36.185-.381-.776-1.675-.363 1.073.703-2.887 1.854-2.855 1.005-.301 1.139-3.824 1.28-5.338 1.71-.978.268-2.727 1.28-3.033 1.326-.373.052-.47-.654-1.161-.593-.186.015-1.797 1.046-3.414.99a5 5 0 0 1-.218.005c-.41.004-1.557-.836-1.011-1.358.156-.149.357-.27.585-.375.902-.435 2.41-.347 2.199-.894-.19-.502-1.483.016-2.38.408-.46.193-.846.356-1.074.411-3.716.923-1.947-.601-2.127-.793-.442-.463-2.368.3-2.461.282-.42-.088.777-1.054.665-1.394-.14-.449-2.3-.51-1.94-.82.508-.442 2.504-.458 2.59-.525 1.276-.971-1.065-1.236-1.807-1.516-.223-.089.334-.591.181-.584-2.33.124.104 1.585-1.307 1.976-1.266.355.045-.924-.02-.94-.074-.018-1.55.524-1.857.378-.176-.074 3.115-2.843 2.762-3.363a220 220 0 0 0-3.505 1.813c-.407-.708 1.558-.85 1.715-.998.303-.299-.867-.278-.917-.532-.04-.159.963-1.175-.22-.966-.399.07-.975.902-2.527.912 4.413-2.57 1.002-1.688.747-1.896-.253-.206 1.785-1.746-.934-.529-.71-1.405-.118-.489.553-1.054.844-.698-1.587-.3 2.101-1.326-.486-.604-3.287.56-3.472.578-.15.003.347-.587.075-.61-3.187-.234-1.122-.376-2.243-.896-.086-.057-2.757.712-.884-.226 3.427-1.688 5.296-1.264 5.09-3.579-2.993.112-5.655 2.768-6.415 3.131-1.2.56-.13-.401-.324-.455-.076-.014-1.1.477-1.13.453-1.446-1.244 4.676-2.042 6.28-2.955-.562-.053-1.111-.108-1.67-.159.627-.261 1.254-.52 1.872-.772-3.163.697-.186-.14.08-1.715.05-.351-1.738.913.21-.765-1.739.462-1.312-.007-2.679.951-.168-.532 3.02-2.447 4.26-3.212-4.971 1.243-1.533 2.07-6.031 2.715-.506.941 1.41.022 1.284.196-.419.604-2.016.55-3.086 2.55-.17.326 1.219.508-.434 1.183-.175.069-1.49-.016-1.486-.065-.07-.497 1.077-.808 1.025-1.002-.024-.198-1.166.432-1.187.386-.286-.533.887-.647.664-.754-.467-.245-5.338.526.446-1.637-4.368 2.678-.308.827 1.358-.136.424-.247.406-.63 1.006-1.01.763-.486 1.817-.72 2.208-.945.438-.249-2.503-.008 1.393-1.263-2.25-.038-5.326 2.169-7.517 2.494-4.513.703 2.223-2.581 2.814-2.894.173-.105-.63-.3-.518-.379.196-.14 4.002-1.413 4.229-1.922.223-.518-1.351.545-1.631.208-.177-.242 4.142-2.441 1.634-1.682-1.719.514-4.423 2.822-5.425 1.927a278 278 0 0 1 7.35-3.218c-1.513.078-3.032.166-4.57.275 2.113-.953 4.108-1.41 6.016-2.292.637-.29 1.29-.621 1.91-1.003-.998.137-1.735.23-2.19.248-.942.022-.804-.22-.209-.558 1.284-.713 4.302-1.675 4.311-1.78.023-.128-3.142-.325-3.67-.36 2.38-1.395 9.605-3.816 4.878-3.921.877.074 2.522-1.285 2.484-1.337-.42-.573-4.457 1.129-3.961.357.59-.912 1.982-.368 3.151-.797 6-2.155 3.436-4.991 9.66-6.06l-.455-.261c6.646-1.5 13.179-2.767 19.689-3.915 2.32-1.559 8.948-3.505 12.277-3.988.667-.103 4.033-.15 4.3-.097.487.1-2.011.618-.817.756.26.02 5.81-.709 5.32-1.215-.633.038-2.515.662-2.859.582-.87-.21.835-.638 3.407-1.106 4.564-.849 11.92-1.691 12.442-2.008l-1.249-.4q1.684-.098 3.368-.183m-39.06 55.058c-.448.71-1.989.627-2.793.997-1.123.513-2.516 3.208-2.234.794a285 285 0 0 1 5.026-1.791m26.095-4.48c-1.26-.093-.552-1.509.53-1.167.122.04 1.173 1.294-.53 1.168m-12.694 1.818c.045-.027 1.082-.203 1.123-.19 1.025.311-2.098.838-1.123.19m60.339-8.744c-1.313.12-.305 1.222.492.71.05-.033-.405-.717-.492-.71m-.937.016c-1.066-.979-3.024 1.229-1.395.925.161-.031 1.443-.878 1.395-.925m-51.094 7.204c.06-.414 1.34-.458 1.89-.463.054.357-1.383.322-1.89.463m31.196-4.913c.016-.32-4.232.196-4.467.645.645-.261 4.448-.367 4.467-.645m10.871-1.471c-.115-.046-1.585.155-1.518.425.746.299 2.024-.221 1.518-.425m21.821-.999c.079-.069-1.06-1.8 1.599-.687.387.163-.981.636-.847.697.293.119.516.173.699.18-1.223.16-2.505.252-2.626.148-.588-.489 1.138-.31 1.175-.338m11.559-1.308c.255-.282 1.895-.103 2.261.022.063.023-.227.766.502.724.588-.033-.274-.818.87-.67 1.159.15-.406.66-.304.7.131.054 1.941-.246 1.875.2-.053.327-1.974.057-2.444.118-.607.078.117.642-.892.505-.641-.085-.268-1.046-.402-1.097-.117-.043-2.353.481-1.463-.5zm-9.778 1.452a.8.8 0 0 1-.33.047zM54.602 57.425c.677.152-1.049.937-1.818.717-.078-.306 1.703-.74 1.818-.717m85.232-11.024c1.843.23.482.569-1.133.798.512-.187.517-.874 1.133-.798m-51.43 4.616c.086.059.152.162.187.344-.231-.168-.266-.273-.188-.344m4.264-.312c1.363-.767-1.573-.316-1.493.081.03.149 1.437-.05 1.493-.081m34.087-3.511c-.136-.049 1.855-1.84-1.087-.43 1.611.126-.067.388-.038.536.094.422 2.744-.106 3.359.059.442-.784-1.795-.005-2.231-.165zm42.686-.232c-.402.425-1.548.212-2.353.14.403-.427 1.562-.215 2.353-.14m216.227 23.225c-5.772.064-6.413-1.809-1.193-.763.097.021 1.554.6 1.193.763m-49.415-4.221c-.471-.843 1.344-.802 2.492-.367.26.098 1.173.99.032 1.045.124-.957-1.584-1.484-2.524-.678M140.872 45.884c.525-.534 2.168-.16 3.043-.077-.536.434-2.285.238-3.043.077m225.944 22.11c-.6-.103-1.06.558-.959.623.45.298 1.62-.18.959-.622M135.567 45.868c-.085-.316 2.09-.658 2.256.125-.472-.051-2.201.073-2.256-.125m32.399.769c-.33-.181 1.442-.366 1.97-.172-.066.334-1.757.288-1.97.172m189.06 20.863c-.538-.103-1.898-.228-2.072.038-.215.335 1.792.373 2.072-.038m100.027 4.939c.047.128-1.928.9-2.77.62-1.627-.543 2.741-.72 2.77-.62m-84.472-4.4c1.677.774-.191.008-.163.705 1.163.105 4.021.328 2.098-.483-.375-.157-1.397-.14-1.935-.222m-1.56-.339c-.198.212-1.481.833-.411.856.495.01 1.341-.721.411-.856m73.67 4.355c-.474-.222-.068-.303.68-.308 1.632-.007 4.687.324 4.838.406a.7.7 0 0 1 .201.166c.271-.18 1.5-.148 1.639.353-.4-.063-1.396-.074-1.526-.136a.5.5 0 0 1-.115-.073c-.409.318-3.565-.05-5.058-.277-.356-.056-.603-.105-.659-.13m-11.426-1.142c1.773-.83 2 .722 1.851.765-1.897.548-.628-.533-.683-.589-.123-.094-1.489.374-1.163-.176zm9.104.781c.061-.017 1.514.097 1.571.124 1.158.572-2.915.252-1.571-.124M157.285 44.885c.983.188-.002.719-.666.493-.054-.022-.217-.66.666-.493m212.884 22.908c-.243-.12-6.47-.971-6.163-.094.548-.057 7.634.885 6.163.094m-46.838-4.232c1.106.121-.184.799-.744.437-.207-.134.466-.468.744-.437M132.62 45.204c-1.054.473-.878-1.02.064-.536.037.019-.023.517-.064.536M332.124 64.91c-3.866.112-2.713-2.339 2.163-1.003l-.497.296c5.68.921.375.219-1.041.225-.538.002-.132.47-.622.485zm-14.603-2.02c-2.789-1.774 1.099-.864 3.788-.459.662.1 1.251.171 1.652.166-.574.154-1.19.233-1.701.292-1.166.138-1.78.178-.083.789q.262.093.6.206l-.617-.05c-4.262-.383-2.276-.84-2.463-.918-.231-.092-1.028.068-1.176-.026m9.69 1.007c.218-.031 1.783.497 2.364.493-.865.54-3.813-.278-2.364-.494m93.915 6.9c.153-.479.496-.821 1.728-.584-.397.226-1.194.4-1.728.585M49.626 56.4c-.794.155-2.398.363-1.797.74.055.03 1.867-.463 1.798-.74M352 66.03c-.182-.073-4.957-.512-3.352.16.475.204 4.846.494 3.352-.16m24.723 1.872c-.395-.03-2.019-.046-2.062.066-.135.39 1.865.303 2.062-.066M45.556 56.897c-.122-.024-2.463.678-2.14.839.603.299 2.53-.76 2.14-.84m115.409-13.009c.209-.009.462.53.534.54.16.01 4.039-.003 2.526.601-.259.093-5.775-.407-6.48-.49-.252-.735 2.074.041 2.659-.008.101-.01.195-.613.759-.64zm266.704 26.688c.191-.452 4.927-.551 4.848.004-1.599 0-3.253-.003-4.848-.004m-2.404-.182c-.99-.37 1.365-.374 2.068-.199-.004.31-1.935.253-2.068.2M367.8 65.568c-.487.079.939.853.601.96-.223.066-1.267-.26-1.623-.075-.101.06.941.767 1.258.763.454-.005.052-.532.544-.5 1.638.104 3.036.556 4.57.651.138.008-.911-.415.268-.33.182.012 1.242.608 2.644.622 3.211-1.413 5.39.32 9.346-.025-.14-.16-3.043-.749-3.221-.775-3.261-.468-9.173-.886-12.599-1.131-.886-.064-.479.308-.863.294-.301-.012.098-.62-.925-.454m-317.838-9.61c-.52-.527-1.755.185-2.589.359.423.483 1.74-.3 2.59-.359m354.014 12.938c-.461.001-1.892-.264-2.023-.08-.164.241 1.907.506 2.023.08M182.708 45.495c.047-.014 1.11.113 1.148.137.909.59-2.285.207-1.148-.137m25.729 2.787c.826.017 1.677-.081 1.893.462-.516-.14-2.031-.118-1.893-.462m35.916 4.55c-.082-.691 2.353.074 2.819.197-.216.274-2.759.3-2.819-.197m176.685 15.846c1.549.11 1.248-.926 2.222-.42.164.086.574 2.231-1.084 1.36-.299-.157.92-.607-1.138-.94m-85.947-4.673c.435-.406 1.669-.157 2.505-.044-.217.313-1.912.069-2.505.044m-293.92-6.478c-.83-.432-3.626.852-2.787 1.045.112.02 2.347-.954 2.786-1.045M144.594 43.85c1.311-.49-1.405-.656-2.265-.168.385-.034 2.184.199 2.265.168m91.145 7.471c.067-.011 1.499.225 1.561.258 1.111.668-2.941.001-1.561-.258m-35.714-4.815c.547-.352 3.906.353 4.608.845-.791.507-5.305-.411-4.608-.846m214.616 22.168c1.097.03 2.153.205 3.162.428-.23.333-3.063-.167-3.162-.428M241.033 51.977c.077.014.147.062.22.076zm148.788 15.16c-.93-.19-.765.45-.711.472.686.245 1.763-.258.711-.472M48.778 55.284c-.436-.48-1.748.296-2.599.372.346.374 1.943-.153 2.599-.372M313.726 61.3c-1.099-.741 3.731-.921 4.694-.42.032.387-4.532.525-4.694.42M140.521 43.002c-.095-.445-1.981.109-1.576.315.253.13 1.629-.04 1.576-.315m180.266 18.393c.167-.031.404.02.62.11.382.158.697.433.444.578-.16.091-.338.06-.502-.028-.354-.19-.644-.642-.562-.66m40.214 3.277c-.19-.081-2.866.172-1.811.707.735.373.904-.26 1.082-.248.202.019 4.362 1.119.729-.459m-73.749-6.958c1.004-.044 2.168.304 3.2.422-.455.22-2.828-.006-3.2-.422M147.815 42.906c-.229-.193-6.436-.328-2.917.24.2.029 3.608.31 2.917-.24m273.223 25.772a5 5 0 0 1-.682-.101c.261.029.486.07.682.1m-17.63-.914c.375-.305-1.425-.485-1.975-.341-.183.387 1.926.384 1.975.34M290.586 57.698c.617-.11 1.669.222 2.406.292-.161.284-2.188.043-2.406-.293M249.204 51.9c1.139.333 2.585.444 2.656.082q.024.091.151.202c.087.073 1.361.07 1.888.269 3.148 1.174-12.606-1.246-3.315-1.052zm-53.645-6.743c-.611-.515-2.494-.143-2.038.081.315.153 2.645.436 2.038-.081m25.211 2.657c-.188-.104-2.024-.017-2.098.212.999.374 2.95.27 2.098-.212m-30.166-3.686c-.404-.108-.995.562-.95.597.388.303 1.599-.129.95-.597m227.312 22.458c-.618-.235-2.649.194-3.099.65-.076-.095-.288-.226-.682-.389h.004c-.53-.208-16.702-1.231-5.894.232.339.046-.116-.405 1.273-.261.092.01.121.361.404.392.653.07 4.093.455 4.803.206.003.065.045.128.137.19.81.543 3.54-.837 3.054-1.02M224.341 48.2c-.347-.175-1.507-.198-1.663.094.546.221 2.465.313 1.663-.094m-76.703-6.563c-.714-.264-2.547.198-1.996.454.335.156 2.821-.154 1.996-.454m65.229 5.308c4.162.87 1.007.092 1.706-.28zm224.892 21.689c-.664-.134.151-.992.901-.474.233.165-.526.547-.901.474m27.905 1.679c-.042-.414.235-.44.346-.323.118.117.072.368-.068.611.017.022-.241-.251-.278-.288m-18.642-1.856c-.401.43-.671.536-1.516.446a14 14 0 0 1-.554-.075c.242-.008.423-.024.56-.046.975-.145-.146-.544 1.51-.325M251.855 51.923c.005.023.009.04.005.06a.2.2 0 0 1-.005-.06m-65.191-8.03c-.484-.503-1.95-.602-1.556-.104.038.046 1.309.42 1.556.105m228.153 23.344c.068.085.029.136-.092.178-.003-.06.031-.117.092-.178M194.575 44.294c-.084.333 2.138.698 2.23.668 1.341-.452-1.291-.593-2.23-.668m-61.47-3.038c-.112.038.638.899 1.08.544.342-.275-.661-.691-1.08-.544M451.373 68.46c.672.038 1.705.097 1.845.524-.452-.092-1.887-.22-1.845-.524m13.867 1.183c-.519.399-1.895.198-2.917.008.105-.65 2.555.058 2.917-.008m-45.364-2.727c-.074-.03-1.866-.304-1.642.14.333.65 2.145.119 1.642-.14M136.497 41.651c.776-.312-1.04-1.198-1.84-.472-.411.37 1.706.522 1.84.471m45.651 1.241c-1.069.16 1.495.827 1.884.409-.47-.079-1.506-.466-1.884-.409m35.797 3.387c-3.172-1.706-1.649.881-1.029.746.09-.019 1.106-.706 1.029-.746m-184.822 10.9c-.35.302 1.364.445 1.427-.025.045-.298-1.211-.167-1.427.025M268.27 53.75l-.425-.044c.108-.007.247.004.425.044m-95.437-13.325c2.177 1.997 2.04.566 2.24.588.154.018.377.102.638.201.465.18 1.054.413 1.584.4q-.82.118-1.63.238l-1.219.178c.162.04.599.128 1.188.237 2.035.379 5.936 1.062 6.058.84.227-.408-1.802-.443-1.855-.484-.08-.06-.297-1.265-.484-1.325-.173-.054-1.965-.223-3.618-.41-1.309-.149-2.536-.31-2.902-.463m38.128 5.213c.519.203.616.687.878.606.089-.028.156-.47.46-.55q-.67-.03-1.338-.056m-42.359-3.82c-.618-.585 2.283-.201 2.379-.132.476.401-1.881.607-2.379.132m24.896 1.967c-.108-.044-2.34-.439-2.36-.135.577.288 3.591.661 2.36.135m19.163 1.92c.793.148 2.251.779 2.16.09l-.004-.001c-.721-.03-1.437-.06-2.156-.088m-73.511-5.512c-1.46-1.056-.76.29.528.624.386-.485-.288-.452-.528-.624m-4.659-.726c-.42-.19-4.572.143-3.921.694.237.192 2.606-.386 2.72-.348.169.054-.58.7.696.545-.081-.211.646-.83.505-.89m3.453.053c-1.463-.796-1.765.715-.675.702.429-.004.881-.587.675-.702m5.912.097c-.525-.144-1.919-.352-2.863.154 1.264.036 2.566.079 3.834.127.146-.282-.512-.154-.974-.28zm322.189 25.54c.193-.103.245-.272.366-.251.115.01.391.375.374.445-.073.2-.339.11-.532.016-.201-.107-.286-.157-.208-.21M20.325 47.27c-.366-.041-.768-.486-1.338.051q1.249.177 2.481.37c.185-1.084-.73-.38-1.143-.421m-3.86-2.202c.084-.058-.966-1.208.631-.795 1.077.274-3.256 2.691-4.314 2.462.795-.669 2.921-1.166 3.683-1.667M5.63 42.94c-.086-.1 1.784-1.198 2.022-1.206 1.312-.13-1.35 1.531-2.022 1.206m6.06-2.432c-.959.092.863-.86 1.466-.925.151.23-1.309.903-1.466.925m454.524 4.087c-.904-1.106-2.076.908-.446.662.076-.011.479-.61.446-.662M6.922 40.679c1.004-.151-.879.912-1.622 1.12-.164-.23 1.478-1.107 1.622-1.12m458.843 1.49c-1.343-.866-1.07 1.57-.928 1.68.661.445 3.24-.168 3.833-.3-3.86-.188-2.266-.955-2.905-1.38m-6.328.865c-1.24.164 1.835.879 2.481.272-.6-.02-2.132-.322-2.481-.272m-7.219-1.215c-.662-.122-2.502-.422-2.863-.063.723-.032 2.555.433 2.863.063m-1.388-1.2c-.964-.562-1.28.912-.113.528.045-.015.147-.499.113-.529m-5.557-.81c-.629-.621-1.456.783-.384.872.317.023.45-.8.384-.872m19.011-.383c-.998-.353-2.364.56-.248.872-.754.084-1.557.17-2.277.27 2.704.813 2.682-.609 3.478-.47 1.177.215.934 1.38.662 1.72 1.029-.601 5.106-.175 8.516.72-2.848-1.187-6.373-2.188-8.38-2.611-.597-.125-1.17.14-1.659.055-.788-.138-.036-.533-.088-.555zm-26.305.035c-1.88-.753-.727.746.35.535.047-.018-.303-.517-.35-.535M1.963 38.253c3.622-1.19 1.798.53 6.787-2.97-1.914 1.748.124.62-.18 1.126-.252.403-1.657.767-.67.941-1.374-.021-5.115 1.609-7.712 3.536l.031-.025c-.172.12-.255.065-.205-.146.058-.218.246-.577.419-.896.395-.675.856-1.299 1.53-1.566m450.449-.213c-.561-1.789-.959.98-2.14-.537-1.797 2.022 4.666.243 5.332 2.081-6.922-.61 4.511 2.042-.204-.917 3.956 1.217 1.337-.248 1.98-.55.71-.32 2.985.238 2.923-.42h-.004a278 278 0 0 0-4.24-.149c1.277 1.492-1.519.896-2.437-.304q-.597.397-1.21.796m7.792 1.816c-.145-.048-3.218-.06-3.033.239.402.198 4.743.302 3.033-.239m16.039 2.378c-1.888-.71-4.172-1.486-5.019-1.106 1.377.254 3.77 1.186 5.019 1.106m-57.587-4.814c-1.355.374 2.742.692 1.58.121-.055-.027-1.511-.138-1.58-.121m30.629.724c-1.324-.603-.781 1.134.265.74.062-.023-.203-.712-.265-.74M4.475 36.74c-.019-.482 3.944-1.905 4.551-2.141-.187.476-4.39 2.562-4.551 2.14m476.113 5.777c-4.322-4.094-8.937-2.852-9.242-3.02-.419-.12.376-.636.283-.672-.343-.145-4.462-.71-4.622-.657-.138.019.449 1.022-.38 1.214.816-.163 2.952.036 5.353.543 2.371.452 5.356 1.6 5.708 1.726.249.058-.413-.498-.483-.718-.042-.164.38-.34 3.375 1.58zm-10.25-3.41c.995.561-1.993.107-2.598-.098-1.449-.52 2.379-.014 2.598.099m-6.547-1.194c-.282-.12-2.874-.417-3.108.002 1.157.645 3.74.26 3.108-.002m-27.184-1.47c-.609.03-2.293-.375-2.413-.003.635-.028 2.299.376 2.413.004m-420.74-7.935c-.983.073.674-.696 1.59-.954.132-.038.25-.067.345-.083.032.056-.084.154-.275.27-.514.321-1.58.758-1.66.767m433.368 6.025c-.114-.042-.931-.079-2.089-.106-2.413-.056-6.161-.05-6.883.039.7.228 4.48.467 6.855.56 1.097.043 1.866.054 1.972.016.1-.037.19-.489.145-.51m17.212 1.042c.865-.46 1.354.276 1.456.297.983.2 3.407.477 2.793.919-2.082-.6-5.972-.296-4.249-1.216m-30.256-1.663c-2.532.096 2.303.892 1.696.285-.034-.037-1.451-.296-1.696-.285m13.908.502c.552-.431 8.236.386 9.569.503-1.186.745-2.061.057-3.573.007-.416-.013-.325.338-.368.336-.684-.025-.148-.392-.572-.423-.303-.027-5.884.164-5.056-.423m16.856.833c.248-.13 1.817-.063 3.518.154 1.682.2 3.686.653 3.847.743 1.159.623-1.127.128-3.123-.184-2.042-.34-4.045-.632-4.242-.713m-17.528-1.603c.889-.92 4.645-.077 2.012.264-.241.031-1.269-.439-2.012-.264m-12.929-.635c-.109-.033-2.756-.341-2.821-.038.4.137 4.214.41 2.821.038m1.428-.974c-.065.005.537.621-.713.492-.104-.012-.276-.683-1.831-.508-.317.036-.83.453-.796.482 1.568 1.109 6.555-.667 3.34-.465m29.194 2.69c-.27-.313.56-1.053 1.207-.542.275.22-.358.635-1.207.543m-38.977-2.35c1.551-.436-3.234-.742-3.503-.625.16.32 3.331.667 3.503.625M16.967 23.948l-.004.001c1.517-.425.738.301.817.286 3.265-.494 2.14-1.09 2.58-1.361.925-.56 1.135.58 2.663-.406-2.55 1.555-.13.47.075.837.822 1.489-3.917.434-5.284 1.317-.181.114 1.46.102 1.002.425-.431.305-1.28.478-2.095.533-1.627.052-3.168-.513-.52-1.396q.339-.114.766-.236m451.898 10.234c.444-.187 2.104.042 3.74.483 1.61.428 3.116 1.075 1.987.99-.213-.027-2.208-.408-3.683-.663-1.503-.272-2.644-.527-2.044-.81M257.179 15.311c1.143-.277-1.307-1.11-1.816-.844-.254.133 1.314.965 1.816.844m-17.435-4.156c-1.311-.085-2.907 1.499-1.258 1.436.175-.007 1.375-1.172 1.258-1.436m84.071 11.621c-1.258-.774-1.307.407-.33.495.344.032.369-.47.33-.495m-50.919-6.125c-.129-.059-1.691-.191-1.67.085.552.238 2.502.31 1.67-.085m51.358 6.003c-.738.116.247.953 1.221.548q.142-.059.281-.154a1.4 1.4 0 0 1-.262-.022c-.504-.084-1.17-.382-1.24-.372m122.46 8.25c-.698.451-2.624.216-3.731.25-.087-.633 2.935-.175 3.731-.25M245.15 12.588c-1.28.277 1.29.982 1.127.371-.029-.036-1.077-.383-1.127-.371m121.601 13.809c-.911.308 1.858 1.016 1.134.303-.036-.03-1.083-.32-1.134-.303m12.196 1.065c-.653-.169-3.512-.322-2.425.117.171.068 2.354.222 2.425-.117M20.301 22.418c-.606-.481 1.77-1.098 2.128-1.088.14.003-1.346 1.707-2.128 1.088m294.901-.7c-.696 0-2.462-.358-2.816-.059.851.03 2.966.754 2.816.058m-64.474-8.391c-.967-.836-2.803-1.01-2.472-.043 2.021.207-.135-.848 2.472.043m78.022 9.043c-.543-.11-1.056.72-.998.768.556.454 1.509-.372.998-.768m-41.511-4.187c.016-.377-1.784-.439-1.578-.168.068.09 1.565.473 1.578.168m135.83 11.458c-.798-.379 1.692-.602 2.442-.168.331.592-2.342.212-2.442.168m-79.071-5.575c.134-.547-2.653-.485-1.608.074.262.14 1.563.11 1.608-.074m26.567 1.465c-1.913.533 5.883 1.55 3.883.58-.137-.067-3.721-.624-3.883-.58m12.75 1.27c-.313-.093-.047-1.952 1.251-1.148.17.105-.683.547-.547.67.084.07 2.966.511 3.097.475.146-.041.015-.65.163-.709.159-.065 1.93.57 2.86.63 1.752.114 1.973-.375 2.119-.368.424.022 1.114.417 1.965.465 4.302.243 10.909.168 14.274 1.395-3.029-.578-5.928-.277-8.979-.303.943-.992-4.479.559-1.298-.471-1.471.191-13.848-.33-14.901-.636zM234.688 9.967c.881-.531-3.238-.917-3.676-.226.525.17 3.566.285 3.676.226m19.038.94c.393-.059.919-1.25 2.813-.356h.005c.554.262-.145.475-.054.597.033.049 1.756.907.243.805-2.306-.154-.092-.95-1.309-1.126-.146-.021-2.549.34-2.434.505.012.02.726-.03.833.047.404.288.141.646.199.673.196.074 3.928-.097 4.384.55.146.209-5.898-.165-6.123-.293-.139-.08.067-1.146-.072-1.272-.074-.063-2.534.018-2.838-.123a1.4 1.4 0 0 1-.2-.113c.321.381-1.866.066-1.749-.3.058-.143 1.554.143 1.605.176.022.014.04.032.058.045-.252-.446 4.83.251 3.814-.498 1.521-.133-.328.856.825.683m7.172.287-.501.277c2.614.07 5.509 1.011 8.475 1.404.751.1-.02-.706.938-.386.768.257 1.556 1.014 1.108 1.1-.11.021-1.658-.61-2.469-.675-2.394-.191-1.872.481-2.013.479-.156-.004-1.595-.621-2.413-.712-2.065-.228-3.048.01-5.797-.842 1.677-.172.901-1.14 2.672-.645m94.927 12.19c.13-.367 1.762.1 2.376.093-.131.368-1.763-.098-2.376-.093M99.207 3.47c-.48.67 3.667.38 2.525-.014-.259-.089-1.995-.041-2.525.014m18.683-1.238c.549-.206-1.728-.507-1.691-.03.011.153 1.627.055 1.691.03m176.086 13.932c.1-.007 1.498.309 1.538.345.857.77-3.757-.197-1.538-.345M140.539.72c-1.929.412 3.873.568 2.099.057-.091-.026-2.005-.078-2.099-.057m8.069-.083c-.452.014-2.519-.206-2.544-.017-.045.303 2.313.533 2.544.017M329.36 20.089c-.136-.713 2.309.067 3.189.066.138.714-2.318-.064-3.189-.066m-15.728-2.242c10.614.655 8.126 1.875-.668.263.039-.445-.003-.306.668-.263m13.491 1.577c-.246.23-.739.245-1.267.191-.393-.04-.805-.116-1.149-.168.097-.159.623-.147 1.178-.106.473.035.967.091 1.238.083M94.165 3.102c.638-.65 3.912-.336 3.368-.038-.117.06-3.6.376-3.368.038M294.94 15.686c-.162-.702 2.988-.027 3.213.152.908.723-2.936-.266-3.213-.152m49.444 5.256c.61-.477 2.18-.063 3.201.033-.505.411-2.33.055-3.201-.034m-7.335-1.102c.066-.014 1.485.17 1.546.2 1.118.627-2.899.11-1.546-.2m-323.737.04c.033-.03.887-.324 1.138-.396a1 1 0 0 1 .073-.019c.417.013.325.152.036.311-.554.322-1.913.68-1.247.103"/></svg>