<svg xmlns="http://www.w3.org/2000/svg" width="717" height="48" fill="none"><path fill="#FDFDFD" stroke="#EFEFEF" stroke-miterlimit="10" stroke-width="3.45" d="M9.715 6.568c48.86 17.917 108.951 18.62 169.848 18.923 66.978.332 129.087-8.535 191.799-16.068 89.991-10.81 179.097-10.15 268.053 1.44 13.932 1.816 27.404 4.201 41.238 6.147 19.137 2.692 36.016 18.086 34.025 24.308-.23.704-1.319 1.364-2.691 2.71-16.649-3.208-32.449-6.622-48.912-9.362-72.192-12.011-146.72-18.854-225.142-15.054-18.225.884-36.211 3.18-53.808 5.468-38.414 4.995-76.006 11.149-114.845 15.466-61.8 6.872-124.06 6.85-185.205-1.834-10.055-1.43-19.969-3.725-28.13-6.507C40.057 26.79 24.904 20.958 10.653 14.83c-4.071-1.75-3.992-5.11-5.815-7.731 1.629-.177 3.257-.354 4.895-.53zM692.85 27.177c-2.328-1.036-4.177-2.469-7.063-3.043-18.986-3.797-37.432-8.424-57.454-10.903C553.849 4.002 478.224 1.616 401.97 9.694c-41.362 4.381-82.309 9.42-123.777 13.603-65.429 6.598-131.477 7.72-197.606 1.714-14.011-1.274-27.448-3.616-41.14-5.468 4.15 2.18 9.25 3.49 14.586 4.613 28.776 6.046 60.579 5.663 91.514 7.518 46.797 2.812 92.036-.974 137.098-4.317 32.927-2.443 64.323-8.164 97.126-11.051 39.715-3.497 80.706-8.619 120.245-7.543C565.347 10.546 631.157 14.8 692.85 27.18zM71.285 32.338c3.248.755 7.683 2.133 12.684 2.891 47.452 7.193 96.895 9.186 145.914 5.129 43.017-3.562 85.211-9.214 126.803-15.076 54.427-7.67 108.695-12.957 167.06-9.131 57.985 3.8 114.678 8.89 167.378 19.865 3.444.718 7.444.989 11.188 1.469.797-.4 1.585-.801 2.381-1.202-1.858-1.025-3.204-2.422-5.691-3.003-5.178-1.209-10.914-2.043-16.499-2.938-21.57-3.461-42.814-7.352-64.871-10.181-18.039-2.318-36.901-3.942-55.701-4.826-30.502-1.433-61.774-3.884-91.762-2.487-42.132 1.96-84.025 6.154-124.848 11.023-51.744 6.172-103.604 11.867-157.624 11.78-39.043-.06-78.068-2.147-116.421-3.31z"/></svg>