<svg xmlns="http://www.w3.org/2000/svg" width="1139" height="74" fill="none"><path fill="#7CBCD5" d="M92.608 61.829c.672-.136 3.458-.273 4.637-.42-1.265.802-7.082.91-4.637.42M212.936 3.288l-3.027.67c2.901-.06 6.797-.395 9.478-.378.44.003-.672.543.366.51 1.04-.034.804-.679 2.317-.827 1.707-.168 9.49-.09 12.176-.217 10.063-.5 20.232-1.256 30.32-1.285-10.43.811.13.97 3.012.681.646-.062.506-1.3 10.98-1.244 6.618.051.569 1.912 11.603.83-8.539-1.06-.145-1.145 6.518-1.28 1.159-.027 10.485.042 14.562-.038 1.397-.03 3.571-.683 5.415-.71 1.276-.017 2.244.328 4.154.303 8.87-.108 17.621-.114 26.509.074-5.226 1.602 4.068.731 4.472.817 2.106.464-7.442.508-3.661.819 5.258-.008 10.556.002 15.861.029-4.344-.265 5.749-1.299 7.608-.724-.774-1.49 24.066 1.758 27.861 1.41.777-.078-4.314-.95 7.611-.271 1.3.076.795.498 1.479.478.207-.006.949-.342 1.974-.565.992-.22 2.255-.33 3.544.093.953.315-5.223 1.013 8.273 1.11-5.329-1.617 18.731-.08 23.087.477l-2.621-.679c4.337.692 5.157.247 6.143.314 3.937.272 9.391.997 13.062 1.12 4.302.144 4.376-.734 9.388-.157-1.172-.25-2.37-.5-3.557-.75 3.501.21 6.921.418 10.411.633-8.105.78 1.73.138 2.387.147 1.023.007-.468.412 1.244.436.178-.001-.059-.463 2.585-.384 5.531.17 4.641.692 6.963.802.213.008-.513-.435 3.491-.328 12.768.348-.089.305-.57.338-.65.042 3.649 1.95-7.154.808 3.632.372 3.967 1.14 4.37 1.178.355.033 6.644.246 6.998.24 3.114-.095.411-.747 1.02-.807.516-.048 8.026 1.009 9.895-.433 3.563 1.61-2.169 1.175-8.236 1.08-.893.246 5.743.874 6.1.892 8.628.451 3.916-.965 5.836-1.612 1.004-.338 4.464.644 1.288-.573 7.81.306 3.045.66 3.544.776.753.172 3.509.02 3.851.078.501.086-1.271.354.71.588.334.037 3.552-.414-.548-.934 5.49.386 5.059-.17 6.866 1.002 3.899-1.818 2.685 1.347 4.173 1.543 3.946.517 2.879-1.136 3.094-1.202 1.459-.42 12.409.737 15.129.661-1.137 1.085-8.683-.473-10.41-.345-5.73.423 7.994 1.018 3.779 2.227l5.247-.896c3.119 1.104-1.405 1.253 7.156 1.397 1.446-.72-6.048-.215-4.52-.76.903-.32 5.858-.119 5.962-.308.113-.229-4.372-.203-3.649-.524 1.58-.692 17.85.974 5.407.694 3.458.182 5.17 1.83 8.193 1.52 1.96-.202-8.836-2.961 7.52-1.634.305.75-6.565-.16-6.744-.113-.256.066.896 1.785 1.107 1.879.746.31 17.528.387 21.016 1.42-1.35-1.034 12.65.558 14.186.355.412-.056-1.074-.727-.636-.764 2.732-.211 10.016 1.254 13.414 1.476 3.808.25 3.355-.281 3.568-.268 1.677.125.316.389 1.342.447 1.544.088 12.177.768 12.715.726.157-.013-1.543-.687.778-.664.403.004.106.672 6.989.768 8.292.117-5.695-1.175-2.217-1.694 5.253 1.32 5.14.302 6.573.463.497.057 4.155 1.124 8.189 1.297l-8.697-.073c2.831.312 8.363.438 10.698.74 1.137.146.156.798 2.637.918.527.021 2.713-1.576-3.829-1.172-.485-.642 2.585-.069 4.029-.162.219-.015 1.131-.99 2.928-.251.431.18-4.526 2.9 7.949 1.427.401-.048-.96-.498-.567-.554.268-.038 3.412.288 3.764.254.359-.037-1.141-.53-.713-.586 2.198-.294 4.963 1.482.486 1.111l4.463.849c-1.537-1.309 2.374-.214 4.449-.139 13.302.483 4.446-.795 6.753-1.081 3.71-.461.791 1.476 6.279 1.142.507-.033-6.037-1.27 6.808-.084q-2.853-.099-5.705-.2c1.033 1.24 6.864.285 7.308.291 5.063.104 1.625.351 9.159.134.673-.02 2.118.347 3.559.276 5.971-.293-7.819-.768-8.171-1.268-.166-.241 14.647.582 15.148.716 2.134.603-6.725-.125-5.065.573.608.255 21.738.866 25.963 1.3 4.867.51 6.998 2.214 7.112.417 1.297 1.83 2.572.682 3.196.723 2.364.161 3.987.273 5.301.354 2.892.179 4.297.215 8.747.296 1.43.027 2.607.615 3.122.547.298-.042-.229-.64 1.225-.753 2.024-.151 14.032.948 14.922 1.3.884.354-5.1-.075-4.049.49 4.348.235 8.471.275 12.851.505 1.813.097.866.425 1.649.463.337.019 6.593-.057 6.332-.203-.592-.33-19.925-.9-14.81-1.333.986-.083 4.407.898 3.899-.147 17.25.93 34.509 1.794 51.761 2.602-9.979.433-21.067-.643-31.478-.963-1.417-.043-6.228-.326-5.664.213 8.805.473 19.833.603 28.286 1.231.27.02-.739.45.271.56 1.896.203 8.129-.336 9.153-.109.177.051-3.361.546-2.304.97 2.718 1.09 3.468-1.098 5.843-.993 1.845.084 14.093 1.545 17.173.961 3.28-.618-9.055-.7-8.127-1.261 8.379-.326 16.765.56 24.651.713.139.002-1.055-.494.707-.508 3.063-.024 3.84.653 5.317.8 1.594.156 7.302.22 8.042.48.095.033-1.069.65-1.244.664-2.478.2-3.34-.668-3.565-.685-.847-.055-1.694.244-2.466.203-1.26-.068-1.947-.386-3.617-.46-1.154-.052-.056.553-1.169.495-.405-.023-4.793-1.46-5.249-.137-.105.435 35.936 1.963 39.545 1.699l-9.272-.72c6.318.557 13.855-.325 14.364 1.268 23.301.703 46.605 1.327 69.943 1.909 4.174.216 1.8 1.186 8.724 1.023-1.75-.357-3.59-.716-5.313-1.073 3.543.296 19.053 1.032 21.603.87.34-.02.75-.933 4.7-.937 3.47-.005 3.95.692 5.84.86 1.57.138 3.3-.01 3.75.037.35.037.48.46 1.31.55 2.73.278.55-.949 3.2.463-.65.04-1.3.08-1.96.119 3.29.26 7.59.96 2.88 1.175-.81.037-.1-.357-.72-.368-24-.377-4.86.773 3.55.303 1.49.439 7.56.519 11.35.567 1.88.024 3.2.04 3.33.081.55.184-1.51.623 1.17 1.096.59.093 16.78.133 10.91.798-1.14.136-8.96-.214-10.83-.228 4.39 1.368 14.79-.218 15.91-.137 4.72.32-9.02.878 1.55 1.298 8.14.34.47-.729 3.66-1.004 1.73-.165 11.03 1.088 10.79-.13 3.25-.005 1.32.566 1.72.628.32.047 6.74-.038 8.82.348.25.046-.59.634-.33.7.45.1 6.77.39 7.04.376.15-.026-1.3-.694-.68-.781.72-.129 7.02.612 7.48.547.44-.236-7.39-.84-6.02-1.319 3.45.413 9.69.746 12.83.952-.78-.05-4.82-.709-6.06-.894.33-.416 2.59-.345 4.52-.006 1.97.34 3.56.919 1.83.896 2.17.092.77-.44 2.07-.5.33-.042 3.58.875 4.33 1.009.08-.039-3.27-1.425-2.53-1.386.64.007 3.62.793 6.57 2.15 2.98 1.354 5.08 2.767 5.33 2.955.75.614-.27.113-1.94-.666-1.65-.788-4.07-1.722-4.49-1.681-.08-.005 1.68.98 3.15 2.025 1.5 1.046 2.61 1.995 2.63 2.043-.05.392-1.31-.358-2.92-1.19-1.58-.829-3.36-1.574-3.04-1.08 1.84.978 3.5 2.07 4.8 3.023-2.66-1.383-8.57-4.007-12.77-4.796-4.23-.92-7.35-1.144-8.69-.95 7.51.045 20.05 5.413 18.52 6.945-.27.581-4.54-1.058-4.48-.77.52.771 6.03 3.03 5.96 3.117.11.114.15.183.13.214-.11.163-1.65-.66-3.7-1.575-2.04-.924-4.29-1.633-4.52-1.62-.76.014 2.34 2.582 2.17 2.862-.13-.13-5.74-1.807-4.03-.698 1.74.957 6.2 3.245 6.21 3.383.31.354-1.28-.461-3.25-1.214-1.96-.761-4.08-1.279-4.19-1.223-.17-.028 3.92 2.043 3.93 2.303.05.152-3.24-.843-4.57-.673-1 .072 1.51 1.14 1.03 1.057-.39-.261-7.13-1.77-7.42-1.648-.5.015.98.69.73.761-.36.087-2.39-.372-2.15-.173.16.005 8.02 3.175 7.77 3.742-.32.46-8.15-3.008-1.2 1.491.03.014 1.9.461 1.93.511.85.892-4.79-.652 1.8 2.033-6.21-2.33-6.81-1.507-5.89-1.142.89.491 2.93 1.537 1.88 1.78-.74.102-5.5-.742-5.54-.627.37.62 1.94.484 2.4.876.25.165-4.07-.02-3.19.532.54.228 4.8 1.094 4.88 1.239 1.42.83-.56.605-.3.96.2.206 2.3 1.017 2.32 1.096.06.043-2.98-.346-3.74-.222-.52.053 1.19.825.83.814-1.95-.129-6.69-2.132-2.42.415.29.158 1.81.494 1.83.534.76.721-1.94.038-2.62.358-1.01.5 3.2.992-.35.75 2.62 1.011 3.42 1.18 5.6 2.181-2.74-1.343-5.72-1.119-6.49-.793-.36.189-.15.453.72.792.83.337 2.26.743 3.54 1.269-1.77-.705-2.01.386-2.67.222-.27-.121-4.59-1.833-2.91.742.29.316 2.66.413 1.82.843-5.97-1.17-.04.325-.19.418.9 1.056-17.59-1.597-21.27-1.43-3.93.01-7.57.953-8.4.926-2.83-.091-.46-.553-1.09-.771-.71-.225-8.78.576-9.23.512-1.61-.27.05-.864-.12-.9-1.92-.448-12.92-.205-16.05-.415.05.414 6.32.584 2.41 1.163-4.55.676-4.72-1.15-4.85-1.233l-2.41-.048c-19.79-.384-39.8-.717-59.7-1.09.251.975 13.79.503 14.09.636 1.81.792-21.068.339-23.89-.064q3.228.38 6.386.755c-3.629 1.045-11.675-.565-16.976-.182-1.688.124 1.531.621 1.478.65-1.911.394-4.957-.003-2.661-.537-4.661.46-4.017-.142-7.579-.263-.184-.006 1.337.477-1.486.603-1.315.06-8.445-.094-9.377.279-.388.157 3.137 1.98 3.621.488 7.74.9 2.496-.63 5.493-.531.476.017-.672.833 6.939.598-1.497 1.482-10.112.168-11.639.317-3.068.31 9.537 1.363 11.921.232-1.113 1.157.904.178 3.695.284 3.087.116 1.743.44 3.419.476 4.579.102 2.68-.77 6.427.057-3.643-2.398 6.462-.178 9.401.488-4.792.024-9.638.046-14.392.068l.814.382-3.804-.129.62-.338c-6.529.627-8.098-.262-8.638-.283-6.825-.242-14.732-.407-21.663-.568-1.039-.024-.315.755-7.906-.017-2.392-.246-.112-.784-2.838-.76-3.456 1.528-3.369.246-4.391.22-2.949-.071-4.699.284-4.977.282-3.61-.026-8.892-.225-12.858-.268-.075.004 1.98.552-.598.34-.928-.077-8.959-2.395-16.062-1.902 1.837.192 3.655.384 5.515.577-2.167-.254-17.376-.148-13.674.52 2.25.41 7.886-.794 8.446.528-5.077-.518-32.992-.757-35.157-1.14-.3-.053 1.567-.419 1.153-.486-.322-.05-6.734-.153-7.567-.343-.501-.113 2.325-.283 2.1-.443-.188-.114-8.171-.554-8.656-.04 1.984-.147 7.487.217 4.582.572-.373.043-2.292-.362-2.748-.306-4.212.514 8.304.765 10.26.83-7.879.43-20.056-.77-29.176-.65-3.668-.57 5.482-.486 1.33-.997-8.629-1.064-2.324.53-2.594.577-2.178.371-9.394-2.284-9.467-.464-3.126-.39-2.107-.581-6.547-.508q.863.222 1.734.443c-4.937.875-15.262-2.19-14.461-2.362 2.099-.461 7.509.595 7.966.591.696-.004 2.618-1.777 10.078.15 3.112-1.123-11.842-1.277-5.022-1.868-4.568-.025-23.468-1.633-26.181-1.206-.328.057 1.136 1.354-3.508.533-2.206-.392 3.142-.184 2.139-.507-1.692-.541-15.101-1.146-28.257-1.69-10.922-.448-21.669-.848-25.323-1.008-.522-.024-.311-.397-.825-.42-1.575-.066-7.358.218-10.169-.101 5.809 1.004-5.546.485-8.433.256-4.38-.345-4.072-1.005-5.958-1.247-7.271-.932-18.662.061-24.248-1.743.229 1.501-9.763-1.263-14.359-1.532-3.598-.21-8.884.48-4.053 1.349-6.217-.415-12.775-.506-18.61-.747-.965-.04.386-.403-1.259-.456-.15-.002-.38.416-1.794.381-11.683-.289-5.955-.88-8.121-1.273-1.211-.22-2.106-.346-2.765-.408 6.791.304 14.644.58 16.738.686-1.732-1.05-15.069-.673-18.937-1.151-.134-.017.365-.514.229-.525h-.009c-1.459-.124-10.737-.463-8.865.27.503.196 4.765.44 9.839.674-1.379.039-.388.684-.632.695-2.957.121-10.094-.862-12.643-1.087-.582-.05-.562.328-.658.323-2.313-.218-1.301-1.236-3.741-.267-4.121-1.578 7.88.254 7.079-.663-.628-.705-27.406-1.89-27.401-.833-.086-.118-.446-.279-1.192-.481-1.655-.45-9.108-.768-10.41-.648-.219.025-.191 1.052-.461 1.046-.675-.016-9.732-1.339-13.17-.929l5.49.745c-11.102-.626-9.389-.222-5.721.293.184.014.362.063.538.077 2.848.39 6.521.818 6.568.902.182.317-18.632-.584-14.964-1.325.519-.101 9.189.816 4.924-.105-.736-.161-6.357-.287-6.642-.378-1.938-.608 10.313-.571 8.857-1.36-2.99.502-6.787-.069-10.191-.088-1.55-.01-1.957.482-2.148.48-2.852-.026-1.225-.474-2.175-.514-.513-.02-6.202.807-5.05-.709-18.558.127-5.191.868 6.178 1.421-3.623.37-10.635-.301-13.798-.343-1.137-.015-.494.548-2.415.547-3.936-.005-22.709-1.635-27.576-2.03 3.006-.027 2.16-.647-.154-.73-2.312-.083-.412.785-.867.843-.508.057-11.337-.871-13.171-.864 8.202.146 6.396-.521-.564-.94l3.05-.338c-4.115.018-12.599-1.283-14.987-1.14-.372.023.933.57.724.582-2.084.1-9.06-.73-9.409-.582-.286.123 2.704.671 1.577.815-.235.03-3.106-.76-5.952-.734-1.055.009-.443.493-.709.507-2.225.115-.857-.589-4.936-.656-2.985-.047-5.205.601-9.298.17 13.382 1.562 2.156.649-3.527.691-.901.007-.174.863-5.519.232 11.492-1-3.238-.933-6.258-1.068-.165-.011-.2-.558-1.671-.627-.124-.004.039.37-1.327.344-13.059-.25-4.697-.335-7.159-.795-1.028-.196-7.408.088-9.102.042-.39-.013-.198-.39-1.708-.427-2.653-.066-5.118.258-6.877.232-.205-.004-.202-.61-3.543-.52a8 8 0 0 0-.793.06c-.54.07-.799.195-.011.338l.133.023c4.386.707 12.858.01 17.879.769 4.563.686-9.869.207-10.637.192-.278-.008 2.567-.21-.31-.368-1.71-.092-4.412.314-7.098.457-1.193.061-2.383.073-3.49-.03-.28-.026-3.161-.995-3.024-1.042.117-.035 4.6-.093 3.96-.367-.079-.032-2.925-.112-3.288-.313-.446-.245-1.601-2.554-2.202-2.628-1.546-.185-.543.362-1.557.297-2.202-.14-9.619-1.005-9.913-.22 1.257.077 2.47.154 3.706.233-6.873-.093-3.969.318-4.944.441-1.058.135-.749-.551-3.068-.67-.485-.03-10.24-.09-10.053.21 5.373-.358 3.374.46 3.618.48.941.075 2.172-.38 3.43-.342 8.848.275-.099.83 1.987 1.072.717.082 2.164-.294 2.47-.266.995.091.999.629 1.667.601 1.56-.063-.24-.867-.116-.903 1.422-.443 6.796.287 3.418 1.028 2.007.349 2.271-.65 3.868-.205 3.18.881-1.614.547-2.902.648-4.648.36-6.047-.063-12.622-.072-2.387-.005-5.194.43-6.285.436-.68.002-7.232-1.808-7.449.85-2.498-.298-6.53-2.107-9.121-2.057-2.332.045-1.614.995-1.83 1.028-.341.053-3.197-.051-4.156.073-1.126.146-.57.51-2.35.64-4.444.326-4.338-.63-4.791-.696-5.297-.754-2.979.627-4.152.73-1.125.083-16.438-.465-19.693-.092 1.311-.197 2.653-.393 3.954-.588-2.355-.595-4.863.392-4.907-.681-.47 1.734-5.319.601-6.791.658-.576.023-.528.318-1.247.336-2.777.07-9.168-.095-10.657.076-6.603.727 10.291 1.594 11.59 1.666-2.625-.014-17.663.562-10.744 1.309 1.059.115 2.937-.682 3.538-.719 4.068-.242.873.486 1.193.55.547.1 3.212-.597 3.909-.523.236.025-1.275.665 2.591.649-1.896.616-12.74.234-14.188.405-.503.061 2.684 1.308-6.617.19l.331.358c-5.186.138-10.341.294-15.521.47.556-.292 3.462-.922-.209-.715-2.107.122-.531.704-.724.727-1.886.15-35.316 1.072-41.779 1.522-2.197.122-8.3.923-8.778.96-2.805.185-12.709.404-14.696.597-1.229.117-.029.567-1.129.608-1.022.036.006-.527-.298-.53-2.542-.055-21.645 1.839-26.232 1.715 2.788-.069 16.611-1.994 16.3-2.319-.068-.045-3.446-.21-4.143.024-1.189-.358-5.029 1.225-7.206 1.115-.243-.012.654-.82-3.175-.687-.988.035-3.13.497-5.592.574-.871.027-1.781.008-2.696-.093-5.031.653-31.671 1.797-33.417 2.771-.054.047 3.71.009 1.21.545-3.317.715-.411-1-4.348-.795-.591.026-11.452 1.12-11.798 1.248-3.214 1.11 6.307.6 6.18.712-.31.265-8.172 1.107-8.505 1.083-.3-.032 6.023-1.695-1.672-.587l2.7.149c-3.633.581-4.027-.138-4.908-.104-2.77.108-5.612 1.521-10.117.532-1.2-.262.694-.862.544-.904-1.459-.368-3.081 1.146-5.278.348-.154-.059 4.639-1.14-3.857-.302l1.776.115c-1.166.328-9.767 1.333-10.92 1.407-3.398.209-.52-.794-3.9-.35 2.268.708-8.018 1.953-7.502 1.079-1.345 1.18-10.13 1.392-14.205 1.881-2.605.304-7.746 1.425-8.57 1.485-.987.068-.779-.67-2.594-.58-.501.024-5.723 1.256-10.405 1.256-.568 0-1.548-.338-1.84-.727-.091-.113-.12-.231-.055-.347.064-.127.232-.25.547-.36 2.72-.956 8.3-.791 8.107-1.47-.15-.688-6.377.554-8.798.929q-.313.047-.54.073c-9.297 1.043-4.084-.608-4.378-.807-.676-.488-5.765.37-5.942.347-.913-.086 2.582-1.139 2.568-1.499-.003-.475-5.008-.496-3.93-.835 1.538-.487 6.13-.529 6.403-.606 3.605-1.046-1.624-1.29-3.09-1.584-.445-.092 1.174-.63.822-.621-5.47.168-.863 1.678-4.453 2.125-3.146.393.747-.98.65-1.004-.184-.014-3.962.584-4.587.438-.342-.078 9.303-3.087 8.792-3.623q-4.687.975-9.368 1.982c-.345-.762 4.21-.931 4.696-1.095.928-.324-1.799-.282-1.712-.554.015-.168 3.035-1.26.191-1.026-.941.076-2.904.976-6.461 1.01 12.038-2.812 3.493-1.81 3.121-2.038-.41-.22 5.274-1.872-1.737-.553-.562-1.496.05-.514 2.022-1.13 2.38-.745-3.352-.311 5.676-1.423-.607-.65-7.86.627-8.224.636-.335.004 1.186-.624.6-.648-6.997-.226-2.257-.392-4.365-.943-.194-.054-6.633.77-1.798-.239 8.84-1.812 12.716-1.365 13.878-3.82-6.752.125-14.503 2.95-16.482 3.346-3.038.597.026-.431-.369-.487-.135-.02-2.753.508-2.81.484-2.195-1.343 11.742-2.177 15.984-3.152-1.173-.062-2.409-.11-3.568-.171 1.534-.272 3.1-.546 4.68-.82-7.554.752-.284-.153 1.331-1.811.356-.372-4.438.96 1.007-.813-4.164.489-2.89-.009-6.563 1.005.028-.57 8.32-2.585 11.586-3.392-11.808 1.305-4.804 2.187-15.112 2.857-1.773.999 3.049.032 2.68.21-1.378.648-4.751.57-8.532 2.698-.605.348 2.26.551-1.795 1.26-.483.082-3.146-.037-3.145-.08.263-.542 2.85-.846 2.941-1.065.051-.204-2.801.449-2.81.4-.208-.575 2.35-.68 1.952-.796-.82-.267-11.503.457 2.143-1.742-11.13 2.787-1.322.888 3.003-.13 1.075-.258 1.352-.672 2.875-1.063 2.021-.516 4.414-.747 5.479-.993 1.133-.263-5.458-.022 3.892-1.328-4.862-.057-13.107 2.27-17.911 2.575-9.708.623 6.352-2.682 7.978-3.031.434-.108-1.121-.33-.833-.41.482-.14 9.609-1.461 10.418-1.993.823-.544-3.325.57-3.674.207-.212-.259 10.65-2.55 4.673-1.764-4.087.532-11.467 2.946-12.947 1.978 6.03-1.164 11.999-2.255 18.007-3.328-3.37.075-6.732.158-10.105.255 4.327-.822 8.34-1.291 12.307-1.961 2.222-.375 4.524-.812 6.789-1.382-15.966.924 4.954-1.963 5.127-2.104.105-.13-6.307-.437-7.315-.5 5.449-1.328 21.992-3.659 12.105-3.885 1.784.102 5.959-1.26 5.897-1.313-.61-.598-9.905 1.044-8.452.26 1.67-.918 4.275-.318 6.969-.732 13.823-2.086 9.638-5.04 23.588-6.034l-.868-.275c15.127-1.438 30.199-2.676 45.235-3.796 5.79-1.567 21.396-3.501 29.103-3.974 1.547-.1 9.19-.132 9.769-.076 1.071.104-4.746.613-2.091.76.381.019 6.494-.317 10.054-.687 1.644-.173 2.739-.355 2.433-.52-.527.014-1.455.104-2.455.21-1.771.186-3.762.42-4.237.368-1.445-.166.515-.45 4.207-.783 9.616-.9 30.932-1.899 32.338-2.246l-2.676-.415c2.501-.055 5.061-.108 7.565-.154M102.368 59.154c-1.412.731-5.16.67-7.293 1.06-3.01.543-7.847 3.344-5.9.852 4.383-.653 8.809-1.292 13.193-1.912m64.977-4.789c-3.022-.085-.784-1.528 1.695-1.187.274.04 2.371 1.305-1.695 1.188m-31.314 1.936c.135-.03 2.69-.215 2.786-.203 2.35.31-5.413.871-2.786.203m150.846-9.095c-3.288.12-.868 1.223 1.144.71.127-.032-.93-.717-1.144-.71m-2.342.016c-2.592-.979-7.638 1.23-3.586.926.39-.03 3.703-.878 3.586-.926m-127.867 7.469c.314-.422 3.384-.473 4.717-.482-.013.363-3.432.335-4.717.482m77.892-5.137c.131-.324-10.547.213-11.26.667 1.689-.267 11.163-.388 11.26-.667m27.354-1.505c-.279-.046-3.938.157-3.832.429 1.806.298 5.056-.225 3.832-.429m54.486-.99c.205-.068-2.577-1.803 3.977-.683.964.165-2.474.634-2.13.696a12 12 0 0 0 1.737.182c-3.047.156-6.216.245-6.529.141-1.455-.49 2.873-.307 2.945-.335m28.635-1.274c.642-.28 4.661-.096 5.569.03.157.024-.536.765 1.276.727 1.457-.031-.715-.82 2.128-.668 2.88.155-.976.659-.723.7.341.055 4.777-.238 4.627.206-.094.328-4.853.05-6.027.11-1.502.076.309.643-2.192.501-1.569-.087-.69-1.047-1.021-1.098-.254-.043-5.819.473-3.628-.505zm-24.224 1.423c-.23.033-.5.052-.827.046zm-209.909 10.68c1.565.149-2.948.968-4.746.754-.054-.312 4.491-.777 4.746-.754m212.754-11.476c4.501.236 1.229.57-2.845.796 1.284-.186 1.314-.873 2.845-.796m-128.625 4.723c.196.059.325.163.353.347-.517-.169-.569-.274-.353-.347m10.576-.339c3.591-.781-3.768-.312-3.688.09.032.15 3.541-.06 3.688-.09m85.476-3.613c-.331-.048 4.8-1.84-2.668-.43 3.992.127-.215.388-.147.536.16.423 6.883-.105 8.354.062 1.145-.783-4.421-.008-5.53-.168zm105.626-.088c-.928.423-3.813.202-5.744.128.913-.426 3.786-.208 5.744-.128m514.213 23.817c-13.479.06-15.235-1.817-2.865-.765.243.022 3.682.602 2.865.765M795.019 66.65c-1.244-.847 2.987-.804 5.736-.367.622.098 2.902.994.256 1.048.123-.96-3.948-1.49-5.992-.681M326.207 45.899c1.307-.533 5.424-.155 7.537-.07-1.287.434-5.652.233-7.537.07m540.378 22.803c-1.418-.104-2.402.558-2.158.623 1.094.299 3.764-.18 2.158-.623M313.072 45.869c-.184-.317 5.207-.654 5.579.13-1.142-.053-5.441.067-5.579-.13m79.967.89c-.833-.182 3.503-.358 4.825-.16-.12.333-4.286.279-4.825.16M843.658 68.2c-1.271-.103-4.465-.23-4.83.037-.45.335 4.238.375 4.83-.038m236.782 5.025c.13.129-4.74.9-6.91.617-4.06-.544 6.67-.72 6.91-.617M880.058 68.75c4.017.776-.455.007-.286.706 2.715.105 9.448.332 4.839-.482-.896-.158-3.293-.142-4.553-.224m-3.687-.34c-.436.21-3.356.832-.849.856 1.159.01 3.043-.721.849-.857m173.749 4.419c-1.69-.318 1.05-.346 4.31-.275 3.97.086 8.76.313 9.01.376s.41.12.5.167c.55-.182 3.73-.145 4.06.355-.91-.062-3.52-.078-3.77-.138-.13-.026-.22-.05-.28-.073-.68.253-5.65.073-9.53-.125-2.19-.115-4.04-.239-4.3-.287m-27.29-1.152c4.19-.828 4.84.725 4.5.768-4.49.546-1.55-.535-1.68-.59-.31-.095-3.54.372-2.81-.178zm21.71.79c.19-.017 3.61.097 3.74.124 2.79.572-6.91.25-3.74-.125m-677.876-27.51c2.444.192.031.72-1.582.491-.132-.022-.569-.66 1.582-.491m507.724 23.546c-.59-.122-15.248-.979-14.413-.1 1.276-.056 17.953.892 14.413.1M764.537 64.23c2.593.123-.27.802-1.642.44-.508-.136.989-.47 1.642-.44M305.802 45.2c-2.658.471-2.126-1.022.191-.536.091.019-.087.517-.191.536m479.426 20.39c-8.964.11-6.747-2.35 4.851-1.007l-1.104.297c13.384.928.913.22-2.382.225-1.252.003-.221.473-1.357.488zm-34.325-2.036c-6.841-1.78 2.35-.87 8.68-.46 1.571.102 2.967.174 3.904.169-1.317.155-2.745.234-3.926.294-2.655.137-4.043.178-.035.786q.638.096 1.465.212-.784-.025-1.473-.052c-9.934-.386-5.428-.844-5.875-.921-.556-.093-2.376.068-2.74-.028m22.714 1.016c.501-.031 4.238.5 5.588.497-1.909.54-8.914-.281-5.588-.497m220.575 6.984c.32-.48 1.114-.822 4.047-.584-.909.227-2.798.4-4.047.584M99.322 56.891c-2.027.17-6.001.402-4.733.783.131.029 4.755-.498 4.733-.783m732.388 9.83c-.439-.073-11.638-.516-7.79.16 1.143.204 11.374.497 7.79-.16m58.026 1.895c-.929-.031-4.736-.048-4.823.064-.266.39 4.409.305 4.823-.064M89.172 57.453c-.27-.024-6.36.734-5.657.896 1.31.3 6.576-.821 5.657-.895M375.61 43.977c.514-.008 1.184.533 1.362.542.42.012 9.86.015 6.246.614-.595.092-14.176-.434-15.937-.52-.68-.736 5.13.05 6.537.004.247-.01.415-.613 1.788-.637zm633.989 27.36c.44-.451 11.62-.547 11.46.009zm-5.67-.183c-2.37-.372 3.18-.373 4.83-.198-.02.31-4.47.252-4.83.198M868.557 66.27c-1.123.079 2.297.855 1.525.963-.496.066-2.99-.262-3.798-.077-.228.06 2.309.77 3.047.765 1.05-.004.041-.532 1.196-.5 3.843.105 7.196.56 10.771.656.325.008-2.186-.417.587-.331.427.012 2.986.61 6.273.626 7.323-1.413 12.642.325 21.873-.018-.332-.16-7.226-.752-7.644-.78-7.685-.47-21.572-.894-29.632-1.143-2.083-.064-1.082.31-1.981.294-.708-.012.143-.62-2.217-.455m-768.214-9.836c-1-.537-4.33.207-6.463.399.823.488 4.368-.33 6.463-.4m853.368 13.2c-1.086 0-4.486-.267-4.773-.082-.366.24 4.541.508 4.773.082M428.835 45.694c.103-.014 2.693.118 2.792.142 2.295.597-5.47.197-2.792-.142m62.321 2.916c1.976.022 3.983-.074 4.623.474-1.261-.144-4.873-.128-4.623-.474m86.17 4.703c-.371-.696 5.562.082 6.689.207-.437.275-6.42.295-6.689-.207m416.473 16.118c3.677.112 2.916-.924 5.212-.418.369.085 1.559 2.234-2.428 1.36-.725-.157 2.131-.606-2.784-.942m-201.831-4.75c.941-.407 3.857-.157 5.824-.043-.451.314-4.436.069-5.824.044m-713.855-6.51c-1.755-.439-9.436.955-7.473 1.138.302.014 6.363-1.038 7.473-1.138m257.301-14.296c3.226-.486-3.435-.66-5.565-.175.982-.032 5.338.206 5.565.175m221.218 7.892c.156-.012 3.598.231 3.751.264 2.794.677-6.943-.008-3.751-.264m-85.951-4.978c1.242-.35 9.412.372 11.196.87-1.762.507-12.771-.436-11.196-.87m508.07 22.632c2.629.033 5.031.206 7.473.431-.546.333-7.185-.168-7.473-.43M569.285 52.443c.184.014.362.063.538.077q-.275-.038-.538-.077M920.31 67.861c-2.169-.19-1.736.45-1.602.473 1.623.245 4.083-.258 1.602-.473M97.791 55.756c-.81-.488-4.382.325-6.468.412.64.381 4.795-.182 6.468-.412m643.952 6.198c-2.717-.746 8.493-.924 10.837-.42.154.39-10.439.526-10.837.42M325.387 43.016c-.206-.446-4.869.103-3.878.31.636.132 4.011-.035 3.878-.31m432.804 19.038c.375-.031.923.018 1.434.105.933.157 1.746.438 1.18.586-.364.094-.797.058-1.205-.036-.848-.194-1.593-.637-1.409-.655m94.335 3.314c-.46-.082-6.662.17-4.126.707 1.762.374 2.072-.26 2.489-.248.475.019 10.363 1.125 1.637-.46M679.174 58.32c2.336-.044 5.14.308 7.577.428-1.008.221-6.607-.009-7.577-.428M343.319 42.94c-.541-.194-15.834-.348-7.159.231.52.03 8.854.323 7.159-.23m650.48 26.49a28 28 0 0 1-1.628-.102c.62.03 1.16.07 1.628.102m-41.539-.93c.864-.305-3.439-.488-4.658-.343-.409.386 4.541.385 4.658.343M686.961 58.307c1.413-.109 3.951.226 5.69.298-.31.285-5.1.04-5.69-.298m-98.456-5.92c2.766.339 6.197.454 6.271.09.054.06.186.13.407.204s3.222.075 4.504.275c7.716 1.192-29.967-1.287-8.062-1.068zm-128.804-6.973c-1.529-.518-6.005-.154-4.858.073.799.156 6.413.449 4.858-.073m60.663 2.772c-.471-.105-4.808-.024-4.929.206 2.462.38 7.065.282 4.929-.206m-72.737-3.827c-.992-.11-2.288.56-2.172.596.996.306 3.821-.123 2.172-.596m538.639 22.976c-1.517-.237-6.177.192-7.23.648-.19-.096-.703-.227-1.651-.39h.008c-1.248-.209-39.37-1.248-13.823.226.795.047-.276-.404 2.951-.26.214.01.306.362.98.393 1.576.07 9.646.458 11.332.21.013.065.118.13.342.19 1.995.546 8.228-.835 7.091-1.017M528.912 48.587c-.864-.178-3.618-.204-3.918.088 1.35.225 5.92.324 3.918-.088m-186.058-6.915c-1.749-.266-6.218.19-4.869.448.857.157 6.883-.145 4.869-.448m158.538 5.61c10.106.893 2.416.097 3.991-.274zm531.948 22.12c-1.63-.135.31-.992 2.05-.475.55.165-1.15.548-2.05.474m72.18 1.865c-1.2-.9 4.88.087 2.44.42-.07.006-2.38-.389-2.44-.42m-50.16-2.038c-.3.136-.57.24-.87.314-.78.212-1.74.201-4.04.057 4.27-.056.92-.546 4.05-.413.25.01.53.024.86.042M594.749 52.417c.017.023.031.04.027.06q-.028-.03-.027-.06m-156.639-8.31c-1.26-.51-4.819-.615-3.777-.114.099.046 3.239.43 3.777.113m540.926 23.876c.168.085.08.137-.203.18-.012-.062.062-.118.203-.18m-521.851-23.44c-.125.336 5.241.71 5.467.681 3.125-.448-3.233-.602-5.467-.68m-149.957-3.292c-.277.038 1.529.9 2.613.547.84-.274-1.554-.693-2.613-.547m758.622 27.985c1.77.04 4.09.095 4.55.525-1.13-.092-4.57-.22-4.55-.525m37.26 1.286c-1.94.36-6.41.124-9.27-.073.02-.657 7.49.089 9.27.073m-112.188-2.854c-.131-.029-4.438-.307-3.86.138.86.652 5.064.121 3.86-.138M315.545 41.654c1.921-.31-2.52-1.2-4.526-.476-1.036.37 4.194.526 4.526.476m111.498 1.425c-2.547.156 3.719.836 4.601.419-1.165-.082-3.681-.473-4.601-.418m86.247 3.551c-7.914-1.727-3.69.882-2.262.748.2-.02 2.455-.707 2.262-.748M58.39 57.986c-1.08.327 3.119.429 3.587-.065.31-.315-2.925-.143-3.588.065m575.36-3.691-1.005-.046c.251-.007.577.005 1.005.046M404.121 40.56c3.924 1.42 4.824 1.124 5.175.833.145-.12.199-.24.341-.233 1.044.052 3.465.629 5.459.614a1980 1980 0 0 0-6.832.402c.191.02.537.051 1.005.09 3.88.322 16.396 1.277 16.702 1.026.483-.409-4.439-.453-4.576-.495-.203-.06-.926-1.27-1.377-1.331-.454-.063-6.26-.292-10.707-.525-2.419-.126-4.467-.257-5.19-.38m92.442 5.4c1.281.206 1.624.694 2.229.613.206-.028.263-.473.965-.553zm-102.534-4.023c-1.577-.59 5.544-.192 5.785-.121 1.214.404-4.513.599-5.785.12m60.465 2.09c-.264-.045-5.722-.453-5.686-.147 1.42.29 8.753.68 5.686.146m46.118 2.007c1.915.151 5.534.791 5.152.097h-.008q-2.578-.05-5.144-.097m-178.529-5.832c-3.572-1.06-1.884.287 1.288.625.954-.484-.7-.453-1.288-.625m-11.393-.737c-.964-.192-11.192.133-9.612.685.54.193 6.4-.38 6.683-.342.406.054-1.444.699 1.665.546-.185-.211 1.602-.828 1.264-.89m8.439.06c-3.53-.799-4.301.711-1.662.701 1.033-.002 2.167-.585 1.662-.7m14.446.114c-1.252-.146-4.671-.358-7 .145 3.128.04 6.258.087 9.377.14.362-.283-1.269-.157-2.385-.285zm786.075 29.524c-.49-.447-.07-.445.55-.23.59.194 1.67.838 1.75.955.2.328-.39.153-.97-.07-.59-.23-1.11-.452-1.33-.655M34.805 47.742c-.766-.047-1.43-.505-3.044.062q2.636.188 5.34.375c1.17-1.15-1.428-.39-2.296-.437m-7.12-2.317c.237-.063-1.322-1.276 1.967-.846 2.238.282-9.165 2.87-11.35 2.632 2.25-.716 7.325-1.25 9.383-1.786m-21.447-2.42c-.152-.1 4.304-1.192 4.83-1.2 2.754-.1-3.925 1.61-4.83 1.2m14.197-2.437c-2.094.083 2.423-.9 3.816-.971.194.24-3.484.952-3.816.97m1076.885 4.67c-2.18-1.09-4.37.95-.82.675.16-.013.91-.622.82-.674M10.335 40.66c2.167-.136-2.438.947-3.898 1.108-.159-.251 3.59-1.096 3.898-1.108m1085.505 2.154c-3.05-.843-2.02 1.593-1.68 1.703 1.6.44 6.9-.243 8.08-.4-8.1-.069-4.97-.895-6.4-1.303m-13.95.94c-2.8.173 4.34.871 5.66.255-1.32-.014-4.91-.307-5.66-.254m-16.88-1.193c-1.44-.118-5.95-.42-6.66-.059 1.57-.035 6.08.432 6.66.06m-3.35-1.2c-2.35-.561-2.92.915-.21.53.1-.015.3-.5.21-.53m-13.11-.806c-1.49-.622-3.26.785-.8.872.73.023.96-.801.8-.872m43.6-.465c-2.23-.338-5.08.593-.39.878-1.65.095-3.35.193-4.99.297 6.16.788 5.8-.644 7.54-.517 2.54.19 2.26 1.364 1.75 1.712 2.07-.638 10.78-.243 16.14.184-4.71-.795-11.86-1.708-16.23-2.085-1.28-.112-2.46.164-3.53.087-1.72-.126-.17-.534-.29-.555m-60.81.114c-4.48-.754-1.72.745.88.535.11-.017-.77-.517-.88-.535M3.204 37.678c6.565-.806 2.222.832 14.624-2.695-5.11 1.798-.188.663-1.15 1.19-.77.416-3.901.764-2.018.98-2.607-.143-12.266 1.859-14.498 2.63l.036-.013c-.197.053-.253-.028-.141-.208.137-.187.368-.442.669-.7.57-.508 1.348-1.015 2.478-1.184m1061.876 1.1c-1.43-1.789-2.11.983-5.04-.535-3.99 2.027 10.88.237 12.63 2.074-16.07-.593 10.56 2.028-.58-.918 9.23 1.204 3.04-.254 4.48-.558 1.54-.324 6.79.221 6.53-.44h-.01c-3.2-.05-6.47-.092-9.62-.125 3.09 1.49-3.47.9-5.62-.297-.92.266-1.9.53-2.77.798m18.09 1.788c-.29-.045-7.28-.04-6.85.256.96.199 10.79.274 6.85-.256m31.55 1.486c-2.77-.347-6.82-.94-8.27-.503 2.58.172 6.71.837 8.27.503m-129.314-3.91c-3.2.373 6.611.698 3.784.124-.133-.027-3.621-.14-3.784-.124m72.454.745c-3.26-.604-1.73 1.136.67.74.14-.023-.52-.712-.67-.74M8.326 36.364c.203-.493 9.02-1.844 10.555-2.101-.782.511-10.662 2.58-10.555 2.101m1111.744 4.894c-5.93-2.593-13.08-1.243-13.87-1.354-.78-.092.5-.664.32-.694-.42-.09-8.49-.485-8.9-.44-.27.022 1.11 1.012-.52 1.228 3.13-.474 18.17.957 19.28 1.187.72.042-4.31-1.726 3.68.07 0 .001 0 .002.01.003m-15.77-1.68c2.03.511-3.73.209-5.02.014-3.01-.473 4.73-.097 5.02-.014m-13.49-.997c-.6-.114-6.3-.382-6.84.036 2.73.64 8.26.217 6.84-.036m-62.93-1.397c-1.44.029-5.54-.38-5.73-.006 1.43-.028 5.52.38 5.73.007m-990.342-9.26c-1.487.045-.035-.315 1.787-.639 1.125-.201 2.447-.39 3.086-.428.099.137-1.649.491-3.034.753-.953.178-1.755.312-1.84.315m1019.842 7.348c-.17-.026-.96-.05-2.18-.07-4.95-.087-16.85-.1-18.91.004 2.04.272 14.18.561 18.89.595 1.07.008 1.76.003 1.9-.02.24-.036.41-.489.3-.509m38.6.912c1.68-.482 2.74.237 2.96.256 2 .175 6.43.317 5.43.793-3.76-.466-11.75-.087-8.39-1.049m-69.31-1.534c-6.01.093 5.48.893 3.99.285-.13-.037-3.35-.295-3.99-.285m32.69.502c1.35-.43 19.08.37 21.97.471-2.62.753-4.7.068-8.07.026-.93-.011-.69.34-.79.337-1.63-.024-.4-.391-1.41-.422-.55-.022-13.65.175-11.7-.412m37.58.69c.99-.312 12.58.24 13.16.436 3.45.848-12.39-.373-13.16-.436m-39.18-1.46c1.86-.924 10.73-.084 4.68.262-.61.03-3.01-.438-4.68-.262m-30.43-.636c-.28-.033-6.57-.343-6.67-.039.86.135 10.04.413 6.67.04m3.24-.974c-.14.005 1.28.62-1.61.492-.25-.012-.66-.682-4.39-.51-.76.036-1.93.453-1.84.482 3.86 1.113 15.48-.662 7.84-.464m66.6 2.543c-.59-.306.89-1.073 2.25-.584.58.21-.57.65-2.25.584m-89.69-2.21c3.65-.435-7.797-.748-8.344-.63.312.32 8.024.673 8.344.63M42.731 23.172l-.009.001c3.19-.363 1.287.347 1.437.337 6.744-.365 4.832-1.031 5.872-1.295 2.16-.542 2.01.639 5.66-.33-6.075 1.526-.507.48-.275.865.914 1.562-8.309.326-11.408 1.162-.408.108 2.83.172 1.753.484-1.566.454-4.904.543-6.839.374-1.686-.148-2.38-.503-.159-.993.826-.183 2.187-.402 3.968-.605M1100.45 34.709c1.42-.477 13.03.873 9.91 1.049-.61-.05-12.2-.474-9.91-1.049M597.854 15.54c2.612-.275-3.355-1.12-4.482-.854-.561.133 3.334.976 4.482.855m-41.909-4.221c-3.09-.088-6.431 1.504-2.586 1.444.408-.008 2.926-1.178 2.586-1.444m201.414 11.934c-3.168-.782-3.033.404-.684.497.829.033.784-.472.684-.497M635.16 16.93c-.318-.06-4.031-.197-3.911.081 1.362.241 5.969.32 3.911-.081m123.222 6.202c-1.729.113.766.95 3 .56q.344-.06.673-.159a8 8 0 0 1-.664-.025c-1.219-.09-2.846-.386-3.009-.376m292.768 8.51c-1.69.45-6.1.218-8.73.25-.3-.633 6.84-.175 8.73-.25m-482.202-18.87c-2.928.276 3.272.992 2.736.376-.078-.036-2.62-.389-2.736-.376m291.66 14.24c-2.126.307 4.58 1.022 2.75.306-.089-.03-2.636-.323-2.75-.306m29.267 1.095c-1.581-.17-8.435-.33-5.779.112.418.068 5.654.227 5.779-.113M50.154 21.742c-.98-.518 4.164-1.067 4.897-1.046.297.006-3.66 1.717-4.897 1.046m686.432.416c-1.658 0-5.945-.367-6.718-.067 2.03.032 7.229.767 6.718.067m-154.377-8.631c-2.486-.845-6.823-1.024-5.804-.049 4.792.213-.539-.855 5.804.049m186.867 9.334c-1.323-.112-2.38.72-2.232.768 1.421.458 3.534-.368 2.232-.768m-99.68-4.349c-.056-.379-4.327-.446-3.771-.173.182.091 3.816.48 3.771.173m325.807 11.85c-1.958-.38 4.049-.599 5.767-.166.84.593-5.5.211-5.767.166m-189.336-5.75c.222-.548-6.433-.494-3.833.07.652.142 3.758.114 3.833-.07m63.735 1.54c-4.492.53 14.26 1.566 9.353.59-.332-.068-8.99-.634-9.353-.59m30.617 1.3c-.761-.094-.344-1.955 2.833-1.147.419.105-1.567.547-1.223.67.205.07 7.154.518 7.463.482.343-.04-.044-.651.305-.71.383-.064 4.652.575 6.893.637 4.211.118 4.661-.372 5.007-.364 1.009.022 2.71.419 4.751.469 10.282.252 26.043.188 34.16 1.421-7.231-.582-14.164-.287-21.405-.318 2.15-.991-10.65.55-3.155-.474-3.46.19-33.086-.356-35.62-.665zM543.835 10.114c1.926-.534-7.79-.929-8.643-.234 1.266.172 8.4.293 8.643.234m44.788.982c.911-.058 1.829-1.257 6.506-.353l.013.001c1.368.264-.221.478.025.6.089.05 4.356.919.777.813-5.453-.16-.46-.958-3.36-1.138-.352-.022-5.889.337-5.579.504.031.019 1.696-.029 1.967.049 1.02.29.495.652.639.678.469.075 9.193-.088 10.43.565.392.21-13.884-.18-14.444-.31-.348-.08-.138-1.154-.496-1.281-.186-.064-5.943.012-6.679-.13a7 7 0 0 1-.5-.114c.851.384-4.355.062-4.173-.306.099-.143 3.677.147 3.804.18q.083.025.149.046c-.713-.45 11.386.263 8.81-.494 3.535-.13-.551.862 2.111.69m16.906.305-1.106.279c6.161.076 13.211 1.032 20.292 1.435 1.793.103-.23-.712 2.11-.387 1.874.261 3.924 1.026 2.891 1.111-.253.022-4.064-.619-5.984-.686-5.686-.199-4.284.48-4.617.477-.367-.004-3.912-.63-5.859-.723-4.908-.234-7.167.003-13.836-.862 3.895-.17 1.819-1.146 6.109-.644m228.509 12.562c.249-.367 4.239.106 5.695.1-.246.369-4.231-.104-5.695-.1M232.687 3.263c-1.225.67 8.157.409 5.664.005-.537-.092-4.494-.055-5.664-.005m42.109-1.114c1.247-.203-3.804-.518-3.775-.04.008.152 3.611.065 3.775.04m410.044 14.35c.235-.006 3.627.317 3.732.354 2.217.777-8.953-.212-3.732-.353M325.955.735c-4.368.407 8.796.58 4.77.064-.206-.027-4.566-.085-4.77-.064m18.263-.062c-1.055.013-5.663-.211-5.745-.022-.073.302 5.204.537 5.745.022m425.856 19.9c-.469-.717 5.548.075 7.655.078.473.717-5.565-.073-7.655-.078m-38.102-2.312c25.494.697 19.811 1.915-1.534.262-.009-.447-.076-.308 1.534-.262m32.605 1.635c-.547.233-1.741.243-3.03.186-.94-.041-1.931-.12-2.755-.172.196-.158 1.44-.145 2.768-.103 1.15.037 2.362.096 3.017.089M221.485 2.853c1.614-.65 8.803-.305 7.546-.01-.306.06-8.118.347-7.546.01m465.523 13.169c-.557-.707 7.083-.017 7.661.164 2.33.73-7.033-.279-7.661-.164m119.229 5.456c1.372-.476 5.212-.056 7.673.044-1.136.41-5.574.048-7.673-.044m-17.783-1.13c.157-.013 3.594.176 3.746.207 2.796.633-6.928.1-3.746-.206M37.569 18.83c.025-.008.172-.033.39-.067.769-.123 2.47-.364 2.552-.36 1.55.08-1.006.551-2.496.703-.929.094-1.466.06-.447-.276"/></svg>